InterKhmerLooped.glyphspackage
{
category = Letter;
glyphname = "ka-khmer";
layers = (
{
anchors = (
{
name = bottom;
pos = (619,0);
},
{
name = bottomright;
pos = (1006,0);
},
{
name = top;
pos = (619,1234);
},
{
name = topright;
pos = (1006,1234);
}
);
layerId = "B1F27B51-9973-4381-9301-4FE46FE1CA59";
shapes = (
{
closed = 1;
nodes = (
(233,0,l),
(279,0,l),
(279,582,ls),
(279,783,o),
(407,908,o),
(619,908,cs),
(831,908,o),
(959,783,o),
(959,582,cs),
(959,0,l),
(1006,0,l),
(1006,582,ls),
(1006,811,o),
(856,955,o),
(619,955,cs),
(383,955,o),
(233,811,o),
(233,582,cs)
);
},
{
closed = 1;
nodes = (
(1013,1187,l),
(1013,1234,l),
(226,1234,l),
(226,1187,l)
);
}
);
width = 1238;
},
{
anchors = (
{
name = bottom;
pos = (658,0);
},
{
name = bottomright;
pos = (1102,0);
},
{
name = top;
pos = (658,1234);
},
{
name = topright;
pos = (1102,1234);
}
);
hints = (
{
horizontal = 1;
origin = (0,0);
target = up;
type = BottomGhost;
},
{
horizontal = 1;
origin = (0,5);
target = (0,14);
type = Stem;
},
{
horizontal = 1;
origin = (1,2);
target = (1,3);
type = Stem;
},
{
origin = (0,0);
target = (0,1);
type = Stem;
},
{
origin = (0,9);
target = (0,10);
type = Stem;
}
);
layerId = "C698F293-3EC0-4A5A-A3A0-0FDB1F5CF265";
shapes = (
{
closed = 1;
nodes = (
(214,0,l),
(381,0,l),
(381,505,ls),
(381,661,o),
(493,768,o),
(658,768,cs),
(822,768,o),
(934,661,o),
(934,505,cs),
(934,0,l),
(1102,0,l),
(1102,514,ls),
(1102,755,o),
(922,920,o),
(658,920,cs),
(394,920,o),
(214,755,o),
(214,514,cs)
);
},
{
closed = 1;
nodes = (
(1109,1077,l),
(1109,1234,l),
(207,1234,l),
(207,1077,l)
);
}
);
width = 1316;
},
{
anchors = (
{
name = bottom;
pos = (677,0);
},
{
name = bottomright;
pos = (1212,0);
},
{
name = top;
pos = (677,1234);
},
{
name = topright;
pos = (1212,1234);
}
);
layerId = "5C20EF92-B63D-42A8-8878-93C2863E0093";
shapes = (
{
closed = 1;
nodes = (
(141,0,l),
(536,0,l),
(536,400,ls),
(536,484,o),
(589,540,o),
(676,540,cs),
(763,540,o),
(818,484,o),
(818,400,cs),
(818,0,l),
(1212,0,l),
(1212,417,ls),
(1212,675,o),
(1027,834,o),
(676,834,cs),
(326,834,o),
(141,675,o),
(141,417,cs)
);
},
{
closed = 1;
nodes = (
(1220,895,l),
(1220,1234,l),
(134,1234,l),
(134,895,l)
);
}
);
width = 1353;
}
);
script = khmer;
subCategory = Other;
unicode = 6016;
}
{
category = Letter;
glyphname = "kha-khmer";
kernLeft = KH_KHA;
layers = (
{
anchors = (
{
name = bottom;
pos = (567,0);
},
{
name = bottomright;
pos = (913,0);
},
{
name = top;
pos = (581,1234);
},
{
name = topright;
pos = (928,1234);
}
);
layerId = "B1F27B51-9973-4381-9301-4FE46FE1CA59";
shapes = (
{
closed = 1;
nodes = (
(744,-15,o),
(942,143,o),
(960,426,c),
(913,426,l),
(896,167,o),
(715,32,o),
(515,32,cs),
(318,32,o),
(217,143,o),
(217,295,cs),
(217,346,l),
(695,553,o),
(951,672,o),
(951,923,cs),
(951,1134,o),
(795,1249,o),
(589,1249,cs),
(393,1249,o),
(228,1146,o),
(171,960,c),
(215,947,l),
(269,1119,o),
(420,1202,o),
(589,1202,cs),
(771,1202,o),
(904,1107,o),
(904,923,cs),
(904,697,o),
(667,592,o),
(170,374,c),
(170,295,ls),
(170,116,o),
(293,-15,o),
(516,-15,cs)
);
}
);
width = 1146;
},
{
anchors = (
{
name = bottom;
pos = (645,0);
},
{
name = bottomright;
pos = (1040,0);
},
{
name = top;
pos = (651,1234);
},
{
name = topright;
pos = (1057,1234);
}
);
hints = (
{
horizontal = 1;
origin = (0,33);
target = (0,6);
type = Stem;
},
{
horizontal = 1;
origin = (0,16);
target = (0,23);
type = Stem;
},
{
origin = (0,30);
target = (0,9);
type = Stem;
},
{
origin = (0,26);
target = (0,13);
type = Stem;
}
);
layerId = "C698F293-3EC0-4A5A-A3A0-0FDB1F5CF265";
shapes = (
{
closed = 1;
nodes = (
(877,-13,o),
(1055,140,o),
(1092,378,c),
(925,378,l),
(899,223,o),
(781,130,o),
(605,130,cs),
(439,130,o),
(339,216,o),
(339,343,cs),
(339,369,l),
(853,533,o),
(1079,635,o),
(1079,887,cs),
(1079,1112,o),
(899,1249,o),
(650,1249,cs),
(418,1249,o),
(193,1120,o),
(174,877,c),
(341,855,l),
(357,1014,o),
(490,1106,o),
(647,1106,cs),
(805,1106,o),
(910,1021,o),
(910,885,cs),
(910,692,o),
(685,618,o),
(172,469,c),
(172,338,ls),
(172,122,o),
(341,-13,o),
(597,-13,cs)
);
}
);
width = 1273;
},
{
anchors = (
{
name = bottom;
pos = (637,0);
},
{
name = bottomright;
pos = (1167,0);
},
{
name = top;
pos = (675,1234);
},
{
name = topright;
pos = (1198,1234);
}
);
layerId = "5C20EF92-B63D-42A8-8878-93C2863E0093";
shapes = (
{
closed = 1;
nodes = (
(973,-15,o),
(1185,119,o),
(1214,386,c),
(818,386,l),
(804,305,o),
(714,275,o),
(636,275,cs),
(546,275,o),
(511,309,o),
(511,353,cs),
(511,392,l),
(1000,539,o),
(1205,614,o),
(1205,875,cs),
(1205,1101,o),
(1051,1249,o),
(694,1249,cs),
(339,1249,o),
(140,1096,o),
(118,812,c),
(512,812,l),
(533,904,o),
(592,955,o),
(677,955,cs),
(761,955,o),
(802,907,o),
(802,844,cs),
(802,725,o),
(688,682,o),
(118,544,c),
(118,333,ls),
(118,99,o),
(282,-15,o),
(624,-15,cs)
);
}
);
width = 1304;
}
);
script = khmer;
subCategory = Other;
unicode = 6017;
}
{
category = Letter;
glyphname = "ko-khmer";
layers = (
{
anchors = (
{
name = bottom;
pos = (619,0);
},
{
name = bottomright;
pos = (1006,0);
},
{
name = top;
pos = (619,1234);
},
{
name = topright;
pos = (1006,1234);
}
);
layerId = "B1F27B51-9973-4381-9301-4FE46FE1CA59";
shapes = (
{
closed = 1;
nodes = (
(233,0,l),
(279,0,l),
(279,139,ls),
(279,302,o),
(357,393,o),
(477,393,cs),
(517,393,o),
(550,382,o),
(583,368,c),
(583,416,l),
(552,429,o),
(516,437,o),
(481,437,cs),
(402,437,o),
(326,405,o),
(284,301,c),
(279,301,l),
(279,582,ls),
(279,783,o),
(407,908,o),
(619,908,cs),
(831,908,o),
(959,783,o),
(959,582,cs),
(959,0,l),
(1006,0,l),
(1006,582,ls),
(1006,811,o),
(856,955,o),
(619,955,cs),
(383,955,o),
(233,811,o),
(233,582,cs)
);
},
{
closed = 1;
nodes = (
(1013,1187,l),
(1013,1234,l),
(226,1234,l),
(226,1187,l)
);
}
);
width = 1238;
},
{
anchors = (
{
name = bottom;
pos = (658,0);
},
{
name = bottomright;
pos = (1102,0);
},
{
name = top;
pos = (658,1234);
},
{
name = topright;
pos = (1102,1234);
}
);
hints = (
{
horizontal = 1;
origin = (0,0);
target = up;
type = BottomGhost;
},
{
horizontal = 1;
origin = (0,5);
target = (0,12);
type = Stem;
},
{
horizontal = 1;
origin = (0,20);
target = (0,29);
type = Stem;
},
{
horizontal = 1;
origin = (1,2);
target = (1,3);
type = Stem;
},
{
origin = (0,0);
target = (0,1);
type = Stem;
},
{
origin = (0,24);
target = (0,25);
type = Stem;
}
);
layerId = "C698F293-3EC0-4A5A-A3A0-0FDB1F5CF265";
shapes = (
{
closed = 1;
nodes = (
(214,0,l),
(381,0,l),
(381,109,ls),
(381,222,o),
(455,312,o),
(581,312,cs),
(622,312,o),
(656,303,o),
(690,290,c),
(690,437,l),
(659,448,o),
(622,455,o),
(586,455,cs),
(506,455,o),
(431,421,o),
(389,329,c),
(381,329,l),
(381,505,ls),
(381,661,o),
(493,768,o),
(658,768,cs),
(822,768,o),
(934,661,o),
(934,505,cs),
(934,0,l),
(1102,0,l),
(1102,514,ls),
(1102,755,o),
(922,920,o),
(658,920,cs),
(394,920,o),
(214,755,o),
(214,514,cs)
);
},
{
closed = 1;
nodes = (
(1109,1077,l),
(1109,1234,l),
(207,1234,l),
(207,1077,l)
);
}
);
width = 1316;
},
{
anchors = (
{
name = bottom;
pos = (677,0);
},
{
name = bottomright;
pos = (1212,0);
},
{
name = top;
pos = (677,1234);
},
{
name = topright;
pos = (1212,1234);
}
);
layerId = "5C20EF92-B63D-42A8-8878-93C2863E0093";
shapes = (
{
closed = 1;
nodes = (
(141,0,l),
(536,0,l),
(536,26,ls),
(536,112,o),
(591,162,o),
(675,162,cs),
(704,162,o),
(725,156,o),
(749,149,c),
(749,391,l),
(730,396,o),
(709,399,o),
(687,399,cs),
(629,399,o),
(581,378,o),
(544,306,c),
(536,306,l),
(536,400,ls),
(536,484,o),
(589,540,o),
(676,540,cs),
(763,540,o),
(818,484,o),
(818,400,cs),
(818,0,l),
(1212,0,l),
(1212,417,ls),
(1212,675,o),
(1027,834,o),
(676,834,cs),
(326,834,o),
(141,675,o),
(141,417,cs)
);
},
{
closed = 1;
nodes = (
(1220,895,l),
(1220,1234,l),
(134,1234,l),
(134,895,l)
);
}
);
width = 1353;
}
);
script = khmer;
subCategory = Other;
unicode = 6018;
}
{
category = Letter;
glyphname = "kho-khmer";
layers = (
{
anchors = (
{
name = bottom;
pos = (1280,0);
},
{
name = bottomright;
pos = (1630,0);
},
{
name = top;
pos = (1280,1234);
},
{
name = topright;
pos = (1644,1234);
}
);
layerId = "B1F27B51-9973-4381-9301-4FE46FE1CA59";
shapes = (
{
closed = 1;
nodes = (
(776,-15,o),
(908,88,o),
(942,246,c),
(936,246,l),
(968,88,o),
(1099,-15,o),
(1279,-15,cs),
(1495,-15,o),
(1644,124,o),
(1644,329,cs,{
name = "8.1 ⛔️";
}),
(1644,896,ls),
(1644,917,o),
(1636,926,o),
(1619,931,cs),
(1472,984,l),
(1486,963,l),
(1486,1047,ls),
(1486,1150,o),
(1538,1187,o),
(1623,1187,cs),
(1706,1187,l),
(1706,1234,l),
(1623,1234,ls),
(1510,1234,o),
(1442,1180,o),
(1442,1047,cs),
(1442,952,l),
(1598,896,l),
(1598,329,ls),
(1598,153,o),
(1471,32,o),
(1279,32,cs),
(1087,32,o),
(962,153,o),
(962,329,cs),
(962,896,ls),
(962,917,o),
(953,926,o),
(936,931,cs),
(789,984,l),
(803,963,l),
(803,1047,ls),
(803,1150,o),
(856,1187,o),
(941,1187,cs),
(1023,1187,l),
(1023,1234,l),
(941,1234,ls),
(827,1234,o),
(760,1180,o),
(760,1047,cs),
(760,952,l),
(915,896,l),
(915,329,ls),
(915,153,o),
(789,32,o),
(597,32,cs),
(405,32,o),
(279,153,o),
(279,329,cs),
(279,1234,l),
(217,1234,ls),
(112,1234,o),
(47,1165,o),
(47,1047,cs),
(47,930,o),
(112,860,o),
(217,860,cs),
(263,860,l),
(233,884,l),
(233,329,ls),
(233,124,o),
(380,-15,o),
(597,-15,cs)
);
},
{
closed = 1;
nodes = (
(136,901,o),
(89,958,o),
(89,1047,cs),
(89,1137,o),
(138,1193,o),
(217,1193,cs),
(233,1193,l),
(233,901,l),
(214,901,ls)
);
}
);
width = 1877;
},
{
anchors = (
{
name = bottom;
pos = (1349,0);
},
{
name = bottomright;
pos = (1764,0);
},
{
name = top;
pos = (1350,1234);
},
{
name = topright;
pos = (1778,1234);
}
);
hints = (
{
horizontal = 1;
origin = (0,73);
target = (0,56);
type = Stem;
},
{
origin = (0,53);
target = (0,34);
type = Stem;
},
{
origin = (0,28);
target = (0,9);
type = Stem;
},
{
origin = (0,50);
target = (0,41);
type = Stem;
},
{
origin = (0,25);
target = (0,16);
type = Stem;
},
{
horizontal = 1;
origin = (0,46);
target = (0,45);
type = Stem;
},
{
origin = (0,64);
target = (1,2);
type = Stem;
},
{
origin = (0,70);
target = (0,59);
type = Stem;
}
);
layerId = "C698F293-3EC0-4A5A-A3A0-0FDB1F5CF265";
shapes = (
{
closed = 1;
nodes = (
(842,-15,o),
(975,71,o),
(1033,208,c),
(987,208,l),
(1044,71,o),
(1174,-15,o),
(1360,-15,cs),
(1615,-15,o),
(1778,144,o),
(1778,377,cs),
(1778,821,ls),
(1778,864,o),
(1764,880,o),
(1722,899,cs),
(1611,947,l),
(1624,887,l),
(1624,970,ls),
(1624,1043,o),
(1654,1077,o),
(1732,1077,cs),
(1819,1077,l),
(1819,1234,l),
(1728,1234,ls),
(1560,1234,o),
(1480,1156,o),
(1480,977,cs),
(1480,862,l),
(1611,807,l),
(1611,386,ls),
(1611,238,o),
(1515,134,o),
(1353,134,cs),
(1190,134,o),
(1094,238,o),
(1094,386,cs),
(1094,821,ls),
(1094,864,o),
(1081,880,o),
(1038,899,cs),
(927,947,l),
(940,887,l),
(940,970,ls),
(940,1043,o),
(970,1077,o),
(1048,1077,cs),
(1135,1077,l),
(1135,1234,l),
(1044,1234,ls),
(876,1234,o),
(796,1156,o),
(796,977,cs),
(796,862,l),
(927,807,l),
(927,386,ls),
(927,238,o),
(828,134,o),
(661,134,cs),
(494,134,o),
(396,238,o),
(396,386,cs),
(396,1234,l),
(249,1234,ls),
(108,1234,o),
(41,1153,o),
(41,1028,cs),
(41,898,o),
(116,821,o),
(242,821,cs),
(291,821,l),
(228,888,l),
(228,377,ls),
(228,144,o),
(395,-15,o),
(654,-15,cs)
);
},
{
closed = 1;
nodes = (
(178,924,o),
(157,975,o),
(157,1028,cs),
(157,1091,o),
(191,1123,o),
(241,1123,cs),
(252,1123,l),
(252,924,l),
(245,924,ls)
);
}
);
width = 1992;
},
{
anchors = (
{
name = bottom;
pos = (1353,0);
},
{
name = bottomright;
pos = (1851,0);
},
{
name = top;
pos = (1353,1234);
},
{
name = topright;
pos = (1881,1234);
}
);
layerId = "5C20EF92-B63D-42A8-8878-93C2863E0093";
shapes = (
{
closed = 1;
nodes = (
(872,-15,o),
(1011,67,o),
(1083,188,c),
(958,188,l),
(1028,68,o),
(1167,-15,o),
(1374,-15,cs),
(1706,-15,o),
(1881,145,o),
(1881,403,cs),
(1881,685,ls),
(1881,755,o),
(1846,771,o),
(1794,789,cs),
(1630,843,l),
(1679,736,l),
(1679,838,ls),
(1679,876,o),
(1699,895,o),
(1738,895,cs),
(1925,895,l),
(1925,1234,l),
(1714,1234,ls),
(1444,1234,o),
(1390,1082,o),
(1390,907,cs),
(1390,734,l),
(1487,690,l),
(1487,419,ls),
(1487,335,o),
(1434,279,o),
(1351,279,cs),
(1270,279,o),
(1218,335,o),
(1218,419,cs),
(1218,685,ls),
(1218,750,o),
(1189,770,o),
(1131,789,cs),
(966,843,l),
(1016,736,l),
(1016,838,ls),
(1016,876,o),
(1036,895,o),
(1075,895,cs),
(1262,895,l),
(1262,1234,l),
(1051,1234,ls),
(781,1234,o),
(728,1082,o),
(728,907,cs),
(728,734,l),
(824,690,l),
(824,419,ls),
(824,335,o),
(771,279,o),
(687,279,cs),
(605,279,o),
(554,335,o),
(554,419,cs),
(554,1234,l),
(264,1234,ls),
(114,1234,o),
(38,1163,o),
(38,1035,cs),
(38,907,o),
(112,835,o),
(233,835,cs),
(255,835,l),
(159,891,l),
(159,403,ls),
(159,145,o),
(333,-15,o),
(665,-15,cs)
);
},
{
closed = 1;
nodes = (
(218,963,o),
(204,997,o),
(204,1033,cs),
(204,1077,o),
(228,1101,o),
(258,1101,cs),
(272,1101,l),
(272,963,l),
(260,963,ls)
);
}
);
width = 2022;
}
);
script = khmer;
subCategory = Other;
unicode = 6019;
}
{
category = Letter;
glyphname = "ngo-khmer";
layers = (
{
anchors = (
{
name = bottom;
pos = (619,0);
},
{
name = bottomright;
pos = (1006,0);
},
{
name = top;
pos = (619,1234);
},
{
name = topright;
pos = (991,1234);
}
);
layerId = "B1F27B51-9973-4381-9301-4FE46FE1CA59";
shapes = (
{
closed = 1;
nodes = (
(278,0,l),
(619,375,l),
(960,0,l),
(1006,0,l),
(1006,779,ls),
(1006,883,o),
(940,949,o),
(819,971,c),
(795,943,l),
(894,926,o),
(959,877,o),
(959,779,cs),
(959,72,l),
(956,72,l),
(634,426,l),
(605,426,l),
(282,72,l),
(279,72,l),
(279,589,ls),
(279,658,o),
(243,699,o),
(164,699,cs),
(90,699,l),
(90,655,l),
(164,655,ls),
(214,655,o),
(233,629,o),
(233,586,cs),
(233,0,l)
);
},
{
closed = 1;
nodes = (
(651,865,o),
(740,912,o),
(795,943,c),
(877,947,o),
(942,1012,o),
(942,1091,cs),
(942,1174,o),
(877,1240,o),
(795,1240,cs),
(712,1240,o),
(648,1174,o),
(648,1091,cs),
(648,1015,o),
(705,953,o),
(778,950,c),
(758,977,l),
(712,943,o),
(645,910,o),
(528,910,cs),
(362,910,o),
(257,1001,o),
(257,1189,cs),
(257,1374,l),
(210,1374,l),
(210,1189,ls),
(210,971,o),
(336,865,o),
(528,865,cs)
);
},
{
closed = 1;
nodes = (
(867,950,l),
(867,972,l),
(843,972,l),
(843,950,l)
);
},
{
closed = 1;
nodes = (
(736,987,o),
(691,1033,o),
(691,1091,cs),
(691,1150,o),
(736,1196,o),
(795,1196,cs),
(853,1196,o),
(898,1150,o),
(898,1091,cs),
(898,1033,o),
(853,987,o),
(795,987,cs)
);
}
);
width = 1215;
},
{
anchors = (
{
name = bottom;
pos = (658,0);
},
{
name = bottomright;
pos = (1102,0);
},
{
name = top;
pos = (658,1234);
},
{
name = topright;
pos = (1080,1234);
}
);
hints = (
{
horizontal = 1;
origin = (0,28);
target = up;
type = BottomGhost;
},
{
horizontal = 1;
origin = (0,23);
target = (0,22);
type = Stem;
},
{
horizontal = 1;
origin = (1,8);
target = (3,5);
type = Stem;
},
{
origin = (0,28);
target = (0,17);
type = Stem;
},
{
origin = (0,12);
target = (0,3);
type = Stem;
},
{
origin = (1,24);
target = (1,21);
type = Stem;
},
{
origin = (1,11);
target = (3,2);
type = Stem;
},
{
origin = (3,8);
target = (1,5);
type = Stem;
}
);
layerId = "C698F293-3EC0-4A5A-A3A0-0FDB1F5CF265";
shapes = (
{
closed = 1;
nodes = (
(380,0,l),
(658,285,l),
(936,0,l),
(1102,0,l),
(1102,691,ls),
(1102,829,o),
(1001,907,o),
(889,932,c),
(805,860,l),
(869,842,o),
(934,805,o),
(934,703,cs),
(934,207,l),
(926,207,l),
(693,438,l),
(623,438,l),
(390,207,l),
(381,207,l),
(381,544,ls),
(381,628,o),
(338,675,o),
(242,675,cs),
(114,675,l),
(114,538,l),
(169,538,ls),
(201,538,o),
(214,522,o),
(214,493,cs),
(214,0,l)
);
},
{
closed = 1;
nodes = (
(681,777,o),
(776,824,o),
(861,884,c),
(942,885,o),
(1032,956,o),
(1032,1065,cs),
(1032,1171,o),
(951,1249,o),
(841,1249,cs),
(731,1249,o),
(650,1171,o),
(650,1065,cs),
(650,968,o),
(722,905,o),
(801,885,c),
(779,964,l),
(730,935,o),
(670,907,o),
(582,907,cs),
(443,907,o),
(361,990,o),
(361,1129,cs),
(361,1374,l),
(194,1374,l),
(194,1107,ls),
(194,906,o),
(322,777,o),
(546,777,cs)
);
},
{
closed = 1;
nodes = (
(958,891,l),
(958,933,l),
(929,933,l),
(929,891,l)
);
},
{
closed = 1;
nodes = (
(800,989,o),
(768,1023,o),
(768,1065,cs),
(768,1107,o),
(800,1142,o),
(841,1142,cs),
(882,1142,o),
(915,1107,o),
(915,1065,cs),
(915,1023,o),
(882,989,o),
(841,989,cs)
);
}
);
width = 1273;
},
{
anchors = (
{
name = bottom;
pos = (691,0);
},
{
name = bottomright;
pos = (1226,0);
},
{
name = top;
pos = (691,1234);
},
{
name = topright;
pos = (1226,1234);
}
);
layerId = "5C20EF92-B63D-42A8-8878-93C2863E0093";
shapes = (
{
closed = 1;
nodes = (
(544,0,l),
(689,192,l),
(833,0,l),
(1226,0,l),
(1226,678,ls),
(1226,762,o),
(1093,856,o),
(999,884,c),
(789,799,l),
(814,771,o),
(832,739,o),
(832,712,cs),
(832,359,l),
(823,359,l),
(721,490,l),
(656,490,l),
(555,359,l),
(546,359,l),
(546,507,ls),
(546,616,o),
(491,675,o),
(363,675,cs),
(65,675,l),
(65,438,l),
(124,438,ls),
(144,438,o),
(155,427,o),
(155,407,cs),
(155,0,l)
);
},
{
closed = 1;
nodes = (
(629,749,o),
(710,755,o),
(824,785,c),
(995,785,o),
(1161,886,o),
(1161,1048,cs),
(1161,1167,o),
(1075,1249,o),
(914,1249,cs),
(768,1249,o),
(675,1174,o),
(675,1054,cs),
(675,944,o),
(753,872,o),
(864,860,c),
(843,981,l),
(776,970,o),
(706,960,o),
(644,960,cs),
(559,960,o),
(512,1022,o),
(512,1107,cs),
(512,1336,l),
(133,1336,l),
(133,1085,ls),
(133,858,o),
(292,749,o),
(565,749,cs)
);
},
{
closed = 1;
nodes = (
(1070,823,l),
(1070,898,l),
(1034,898,l),
(1034,823,l)
);
},
{
closed = 1;
nodes = (
(887,1006,o),
(868,1024,o),
(868,1052,cs),
(868,1081,o),
(887,1099,o),
(914,1099,cs),
(940,1099,o),
(959,1081,o),
(959,1052,cs),
(959,1024,o),
(940,1006,o),
(914,1006,cs)
);
}
);
width = 1353;
}
);
script = khmer;
subCategory = Other;
unicode = 6020;
}
{
category = Letter;
glyphname = "ca-khmer";
kernLeft = KH_CA;
layers = (
{
anchors = (
{
name = bottom;
pos = (619,0);
},
{
name = bottomright;
pos = (991,0);
},
{
name = top;
pos = (619,1234);
},
{
name = topright;
pos = (1006,1234);
}
);
layerId = "B1F27B51-9973-4381-9301-4FE46FE1CA59";
shapes = (
{
closed = 1;
nodes = (
(848,-15,o),
(1006,128,o),
(1006,336,cs),
(1006,955,l),
(934,955,ls),
(817,955,o),
(744,886,o),
(744,771,cs),
(744,651,o),
(817,581,o),
(934,581,cs),
(990,581,l),
(959,612,l),
(959,336,ls),
(959,156,o),
(823,32,o),
(618,32,cs),
(414,32,o),
(279,156,o),
(279,336,cs),
(279,915,ls),
(279,936,o),
(271,945,o),
(254,950,cs),
(145,984,l),
(159,963,l),
(159,1040,ls),
(159,1147,o),
(217,1187,o),
(311,1187,cs),
(1006,1187,l),
(1006,1234,l),
(311,1234,ls),
(188,1234,o),
(115,1178,o),
(115,1040,cs),
(115,952,l),
(233,914,l),
(233,336,ls),
(233,128,o),
(389,-15,o),
(618,-15,cs)
);
},
{
closed = 1;
nodes = (
(841,621,o),
(786,679,o),
(786,771,cs),
(786,859,o),
(843,914,o),
(934,914,cs),
(959,914,l),
(959,621,l),
(931,621,ls)
);
}
);
width = 1238;
},
{
anchors = (
{
name = bottom;
pos = (658,0);
},
{
name = bottomright;
pos = (1087,0);
},
{
name = top;
pos = (658,1234);
},
{
name = topright;
pos = (1102,1234);
}
);
hints = (
{
horizontal = 1;
origin = (0,41);
target = (0,16);
type = Stem;
},
{
horizontal = 1;
origin = (1,5);
target = (0,4);
type = Stem;
},
{
horizontal = 1;
origin = (0,32);
target = (0,29);
type = Stem;
},
{
origin = (0,38);
target = (0,19);
type = Stem;
},
{
origin = (0,7);
target = (1,2);
type = Stem;
},
{
origin = (1,7);
target = (0,2);
type = Stem;
},
{
origin = (0,36);
target = (0,25);
type = Stem;
},
{
origin = (0,13);
target = (0,2);
type = Stem;
}
);
layerId = "C698F293-3EC0-4A5A-A3A0-0FDB1F5CF265";
shapes = (
{
closed = 1;
nodes = (
(931,-13,o),
(1102,145,o),
(1102,377,cs),
(1102,920,l),
(915,920,ls),
(769,920,o),
(699,837,o),
(699,709,cs),
(699,582,o),
(777,506,o),
(908,506,cs),
(962,506,l),
(934,562,l),
(934,386,ls),
(934,236,o),
(830,128,o),
(658,128,cs),
(484,128,o),
(381,234,o),
(381,386,cs),
(381,813,ls),
(381,856,o),
(367,871,o),
(325,891,cs),
(205,950,l),
(242,887,l),
(242,974,ls),
(242,1044,o),
(274,1077,o),
(346,1077,cs),
(1109,1077,l),
(1109,1234,l),
(349,1234,ls),
(179,1234,o),
(98,1156,o),
(98,977,cs),
(98,862,l),
(214,801,l),
(214,377,ls),
(214,145,o),
(385,-13,o),
(658,-13,cs)
);
},
{
closed = 1;
nodes = (
(859,610,o),
(824,647,o),
(824,709,cs),
(824,772,o),
(857,809,o),
(913,809,cs),
(939,809,l),
(939,610,l),
(918,610,ls)
);
}
);
width = 1316;
},
{
anchors = (
{
name = bottom;
pos = (676,0);
},
{
name = bottomright;
pos = (1197,0);
},
{
name = top;
pos = (676,1234);
},
{
name = topright;
pos = (1212,1234);
}
);
layerId = "5C20EF92-B63D-42A8-8878-93C2863E0093";
shapes = (
{
closed = 1;
nodes = (
(1010,-15,o),
(1212,142,o),
(1212,407,cs),
(1212,819,l),
(863,819,ls),
(717,819,o),
(645,744,o),
(645,612,cs),
(645,479,o),
(721,405,o),
(847,405,cs),
(854,405,l),
(819,461,l),
(819,416,ls),
(819,335,o),
(757,278,o),
(676,278,cs),
(591,278,o),
(535,335,o),
(535,416,cs),
(535,685,ls),
(535,750,o),
(504,771,o),
(448,789,cs),
(283,843,l),
(335,736,l),
(335,838,ls),
(335,876,o),
(357,895,o),
(402,895,cs),
(1212,895,l),
(1212,1234,l),
(370,1234,ls),
(109,1234,o),
(42,1097,o),
(42,907,cs),
(42,737,l),
(140,693,l),
(140,407,ls),
(140,142,o),
(337,-15,o),
(676,-15,cs)
);
},
{
closed = 1;
nodes = (
(832,539,o),
(817,576,o),
(817,612,cs),
(817,656,o),
(844,679,o),
(879,679,cs),
(891,679,l),
(891,539,l),
(880,539,ls)
);
}
);
width = 1353;
}
);
script = khmer;
subCategory = Other;
unicode = 6021;
}
{
category = Letter;
glyphname = "cha-khmer";
kernLeft = KH_CHA;
layers = (
{
anchors = (
{
name = bottom;
pos = (631,0);
},
{
name = bottomright;
pos = (1017,0);
},
{
name = top;
pos = (631,1234);
},
{
name = topright;
pos = (1017,1234);
}
);
layerId = "B1F27B51-9973-4381-9301-4FE46FE1CA59";
shapes = (
{
closed = 1;
nodes = (
(291,0,l),
(291,915,ls),
(291,936,o),
(282,945,o),
(266,950,cs),
(156,984,l),
(170,963,l),
(170,1040,ls),
(170,1147,o),
(228,1187,o),
(322,1187,cs),
(1017,1187,l),
(1017,1234,l),
(322,1234,ls),
(200,1234,o),
(127,1178,o),
(127,1040,cs),
(127,952,l),
(244,914,l),
(244,343,l),
(260,374,l),
(234,374,ls),
(124,374,o),
(54,303,o),
(54,184,cs),
(54,68,o),
(124,0,o),
(234,0,cs)
);
},
{
closed = 1;
nodes = (
(149,41,o),
(96,96,o),
(96,184,cs),
(96,276,o),
(148,333,o),
(231,333,cs),
(244,333,l),
(244,41,l),
(234,41,ls)
);
},
{
closed = 1;
nodes = (
(968,-7,o),
(1017,41,o),
(1017,154,cs),
(1017,955,l),
(946,955,ls),
(829,955,o),
(755,886,o),
(755,771,cs),
(755,651,o),
(829,581,o),
(946,581,cs),
(994,581,l),
(971,605,l),
(971,154,ls),
(971,65,o),
(936,33,o),
(870,33,cs),
(803,33,o),
(749,65,o),
(584,176,cs),
(288,374,l),
(266,374,l),
(266,333,l),
(272,333,l),
(561,140,ls),
(728,28,o),
(792,-7,o),
(870,-7,cs)
);
},
{
closed = 1;
nodes = (
(971,914,l),
(971,621,l),
(943,621,ls),
(853,621,o),
(797,679,o),
(797,771,cs),
(797,859,o),
(854,914,o),
(946,914,cs)
);
}
);
width = 1250;
},
{
anchors = (
{
name = bottom;
pos = (683,0);
},
{
name = bottomright;
pos = (1112,0);
},
{
name = top;
pos = (683,1234);
},
{
name = topright;
pos = (1126,1234);
}
);
hints = (
{
horizontal = 1;
origin = (0,13);
target = (0,10);
type = Stem;
},
{
origin = (0,24);
target = (1,2);
type = Stem;
},
{
origin = (2,7);
target = (3,5);
type = Stem;
},
{
origin = (2,13);
target = (2,2);
type = Stem;
},
{
horizontal = 1;
origin = (2,27);
target = (2,16);
type = Stem;
},
{
origin = (0,16);
target = (0,7);
type = Stem;
},
{
origin = (0,18);
target = (0,1);
type = Stem;
}
);
layerId = "C698F293-3EC0-4A5A-A3A0-0FDB1F5CF265";
shapes = (
{
closed = 1;
nodes = (
(406,0,l),
(406,813,ls),
(406,856,o),
(391,871,o),
(349,891,cs),
(230,950,l),
(266,887,l),
(266,974,ls),
(266,1044,o),
(299,1077,o),
(371,1077,cs),
(1134,1077,l),
(1134,1234,l),
(374,1234,ls),
(204,1234,o),
(122,1156,o),
(122,977,cs),
(122,862,l),
(239,801,l),
(239,357,l),
(266,413,l),
(237,413,ls),
(114,413,o),
(35,338,o),
(35,210,cs),
(35,78,o),
(114,0,o),
(244,0,cs)
);
},
{
closed = 1;
nodes = (
(188,111,o),
(156,148,o),
(156,210,cs),
(156,273,o),
(190,310,o),
(248,310,cs),
(253,310,l),
(253,111,l),
(244,111,ls)
);
},
{
closed = 1;
nodes = (
(1030,-12,o),
(1126,70,o),
(1126,208,cs),
(1126,920,l),
(940,920,ls),
(794,920,o),
(723,837,o),
(723,709,cs),
(723,582,o),
(802,506,o),
(933,506,cs),
(987,506,l),
(959,562,l),
(959,230,ls),
(959,166,o),
(916,134,o),
(871,134,cs),
(816,134,o),
(763,165,o),
(672,227,cs),
(406,408,l),
(384,408,l),
(384,234,l),
(406,234,l),
(581,109,ls),
(683,36,o),
(770,-12,o),
(885,-12,cs)
);
},
{
closed = 1;
nodes = (
(963,809,l),
(963,610,l),
(942,610,ls),
(883,610,o),
(848,647,o),
(848,709,cs),
(848,772,o),
(882,809,o),
(938,809,cs)
);
}
);
width = 1340;
},
{
anchors = (
{
name = bottom;
pos = (704,0);
},
{
name = bottomright;
pos = (1225,0);
},
{
name = top;
pos = (704,1234);
},
{
name = topright;
pos = (1240,1234);
}
);
layerId = "5C20EF92-B63D-42A8-8878-93C2863E0093";
shapes = (
{
closed = 1;
nodes = (
(563,0,l),
(563,685,ls),
(563,750,o),
(532,771,o),
(477,789,cs),
(311,843,l),
(363,736,l),
(363,838,ls),
(363,876,o),
(385,895,o),
(430,895,cs),
(1239,895,l),
(1239,1234,l),
(398,1234,ls),
(125,1234,o),
(70,1082,o),
(70,907,cs),
(70,737,l),
(169,693,l),
(169,330,l),
(242,413,l),
(223,413,ls),
(100,413,o),
(25,337,o),
(25,207,cs),
(25,74,o),
(104,0,o),
(260,0,cs)
);
},
{
closed = 1;
nodes = (
(220,140,o),
(194,170,o),
(194,212,cs),
(194,252,o),
(221,279,o),
(259,279,cs),
(270,279,l),
(270,140,l),
(258,140,ls)
);
},
{
closed = 1;
nodes = (
(1161,-9,o),
(1240,71,o),
(1240,226,cs),
(1240,819,l),
(891,819,ls),
(745,819,o),
(672,744,o),
(672,612,cs),
(672,480,o),
(749,405,o),
(875,405,cs),
(881,405,l),
(847,461,l),
(847,316,ls),
(847,293,o),
(833,282,o),
(810,282,cs),
(785,282,o),
(765,290,o),
(702,323,cs),
(563,398,l),
(513,398,l),
(513,137,l),
(563,137,l),
(685,76,ls),
(814,10,o),
(892,-9,o),
(1000,-9,cs)
);
},
{
closed = 1;
nodes = (
(919,679,l),
(919,539,l),
(908,539,ls),
(859,539,o),
(846,576,o),
(846,612,cs),
(846,656,o),
(872,679,o),
(907,679,cs)
);
}
);
width = 1381;
}
);
script = khmer;
subCategory = Other;
unicode = 6022;
}
{
category = Letter;
glyphname = "co-khmer";
kernLeft = KH_CA;
layers = (
{
anchors = (
{
name = bottom;
pos = (619,0);
},
{
name = bottomright;
pos = (1006,0);
},
{
name = top;
pos = (619,1234);
},
{
name = topright;
pos = (1006,1234);
}
);
layerId = "B1F27B51-9973-4381-9301-4FE46FE1CA59";
shapes = (
{
closed = 1;
nodes = (
(278,0,l),
(619,375,l),
(960,0,l),
(1006,0,l),
(1006,908,l),
(959,908,l),
(959,71,l),
(956,71,l),
(634,424,l),
(605,424,l),
(282,71,l),
(279,71,l),
(279,915,ls),
(279,936,o),
(271,945,o),
(254,950,cs),
(145,984,l),
(159,963,l),
(159,1040,ls),
(159,1147,o),
(217,1187,o),
(311,1187,cs),
(911,1187,ls),
(976,1187,o),
(1006,1212,o),
(1006,1274,cs),
(1006,1374,l),
(960,1374,l),
(960,1274,ls),
(960,1246,o),
(950,1234,o),
(912,1234,cs),
(311,1234,ls),
(188,1234,o),
(115,1178,o),
(115,1040,cs),
(115,952,l),
(233,914,l),
(233,0,l)
);
}
);
width = 1238;
},
{
anchors = (
{
name = bottom;
pos = (658,0);
},
{
name = bottomright;
pos = (1102,0);
},
{
name = top;
pos = (658,1234);
},
{
name = topright;
pos = (1102,1234);
}
);
hints = (
{
horizontal = 1;
origin = (0,38);
target = up;
type = BottomGhost;
},
{
horizontal = 1;
origin = (0,32);
target = (0,21);
type = Stem;
},
{
origin = (0,38);
target = (0,0);
type = Stem;
},
{
origin = (0,2);
target = (0,3);
type = Stem;
},
{
origin = (0,36);
target = (0,17);
type = Stem;
},
{
origin = (0,28);
target = (0,25);
type = Stem;
}
);
layerId = "C698F293-3EC0-4A5A-A3A0-0FDB1F5CF265";
shapes = (
{
closed = 1;
nodes = (
(381,0,l),
(658,308,l),
(934,0,l),
(1102,0,l),
(1102,883,l),
(934,883,l),
(934,212,l),
(927,212,l),
(693,466,l),
(623,466,l),
(389,212,l),
(381,212,l),
(381,813,ls),
(381,856,o),
(367,871,o),
(325,891,cs),
(205,950,l),
(242,887,l),
(242,974,ls),
(242,1044,o),
(274,1077,o),
(346,1077,cs),
(915,1077,ls),
(1038,1077,o),
(1109,1131,o),
(1109,1247,cs),
(1109,1374,l),
(944,1374,l),
(944,1267,ls),
(944,1243,o),
(935,1234,o),
(910,1234,cs),
(349,1234,ls),
(179,1234,o),
(98,1156,o),
(98,977,cs),
(98,862,l),
(214,801,l),
(214,0,l)
);
}
);
width = 1316;
},
{
anchors = (
{
name = bottom;
pos = (676,0);
},
{
name = bottomright;
pos = (1212,0);
},
{
name = top;
pos = (676,1234);
},
{
name = topright;
pos = (1212,1234);
}
);
layerId = "5C20EF92-B63D-42A8-8878-93C2863E0093";
shapes = (
{
closed = 1;
nodes = (
(533,0,l),
(676,192,l),
(819,0,l),
(1212,0,l),
(1212,764,l),
(817,764,l),
(817,359,l),
(808,359,l),
(708,490,l),
(644,490,l),
(544,359,l),
(535,359,l),
(535,685,ls),
(535,756,o),
(496,773,o),
(448,789,cs),
(283,843,l),
(335,736,l),
(335,838,ls),
(335,876,o),
(357,895,o),
(402,895,cs),
(943,895,ls),
(1121,895,o),
(1219,993,o),
(1219,1171,cs),
(1219,1336,l),
(832,1336,l),
(832,1254,ls),
(832,1237,o),
(824,1234,o),
(811,1234,cs),
(370,1234,ls),
(109,1234,o),
(42,1097,o),
(42,907,cs),
(42,737,l),
(140,693,l),
(140,0,l)
);
}
);
width = 1353;
}
);
script = khmer;
subCategory = Other;
unicode = 6023;
}
{
category = Letter;
glyphname = "cho-khmer";
kernLeft = KH_LO;
layers = (
{
anchors = (
{
name = bottom;
pos = (1938,0);
},
{
name = bottomright;
pos = (2283,0);
},
{
name = top;
pos = (1938,1234);
},
{
name = topright;
pos = (2298,1234);
}
);
layerId = "B1F27B51-9973-4381-9301-4FE46FE1CA59";
shapes = (
{
closed = 1;
nodes = (
(1447,-15,o),
(1577,87,o),
(1610,246,c),
(1603,246,l),
(1637,87,o),
(1769,-15,o),
(1940,-15,cs),
(2152,-15,o),
(2298,124,o),
(2298,329,cs),
(2298,896,ls),
(2298,917,o),
(2289,926,o),
(2272,931,cs),
(2125,984,l),
(2139,963,l),
(2139,1047,ls),
(2139,1150,o),
(2192,1187,o),
(2277,1187,cs),
(2359,1187,l),
(2359,1234,l),
(2277,1234,ls),
(2163,1234,o),
(2096,1180,o),
(2096,1047,cs),
(2096,952,l),
(2251,896,l),
(2251,329,ls),
(2251,153,o),
(2128,32,o),
(1940,32,cs),
(1758,32,o),
(1630,153,o),
(1630,329,cs),
(1630,896,ls),
(1630,917,o),
(1621,926,o),
(1604,931,cs),
(1457,984,l),
(1471,963,l),
(1471,1047,ls),
(1471,1150,o),
(1524,1187,o),
(1609,1187,cs),
(1691,1187,l),
(1691,1234,l),
(1609,1234,ls),
(1495,1234,o),
(1428,1180,o),
(1428,1047,cs),
(1428,952,l),
(1583,896,l),
(1583,329,ls),
(1583,153,o),
(1460,32,o),
(1272,32,cs),
(1084,32,o),
(962,153,o),
(962,329,cs),
(962,891,ls),
(962,1110,o),
(821,1249,o),
(597,1249,cs),
(374,1249,o),
(233,1110,o),
(233,891,cs),
(233,0,l),
(304,0,ls),
(421,0,o),
(495,68,o),
(495,184,cs),
(495,303,o),
(421,374,o),
(304,374,cs),
(249,374,l),
(279,343,l),
(279,891,ls),
(279,1083,o),
(399,1202,o),
(597,1202,cs),
(795,1202,o),
(915,1083,o),
(915,891,cs),
(915,329,ls),
(915,124,o),
(1059,-15,o),
(1272,-15,cs)
);
},
{
closed = 1;
nodes = (
(279,41,l),
(279,333,l),
(307,333,ls),
(397,333,o),
(453,276,o),
(453,184,cs),
(453,96,o),
(396,41,o),
(304,41,cs)
);
}
);
width = 2531;
},
{
anchors = (
{
name = bottom;
pos = (1981,0);
},
{
name = bottomright;
pos = (2377,0);
},
{
name = top;
pos = (1981,1234);
},
{
name = topright;
pos = (2392,1234);
}
);
hints = (
{
horizontal = 1;
origin = (0,87);
target = (0,56);
type = Stem;
},
{
horizontal = 1;
origin = (0,47);
target = (0,44);
type = Stem;
},
{
horizontal = 1;
origin = (0,63);
target = (0,80);
type = Stem;
},
{
horizontal = 1;
origin = (0,67);
target = (1,0);
type = Stem;
},
{
origin = (1,5);
target = (0,71);
type = Stem;
},
{
origin = (0,84);
target = (0,59);
type = Stem;
},
{
origin = (0,53);
target = (0,34);
type = Stem;
},
{
origin = (0,28);
target = (0,9);
type = Stem;
},
{
origin = (0,26);
target = (0,15);
type = Stem;
},
{
origin = (0,51);
target = (0,40);
type = Stem;
},
{
origin = (0,66);
target = (0,77);
type = Stem;
}
);
layerId = "C698F293-3EC0-4A5A-A3A0-0FDB1F5CF265";
shapes = (
{
closed = 1;
nodes = (
(1484,-15,o),
(1613,68,o),
(1670,202,c),
(1623,202,l),
(1679,68,o),
(1807,-15,o),
(1989,-15,cs),
(2235,-15,o),
(2392,140,o),
(2392,368,cs),
(2392,821,ls),
(2392,864,o),
(2379,880,o),
(2336,899,cs),
(2225,947,l),
(2238,887,l),
(2238,970,ls),
(2238,1043,o),
(2268,1077,o),
(2346,1077,cs),
(2433,1077,l),
(2433,1234,l),
(2342,1234,ls),
(2174,1234,o),
(2094,1156,o),
(2094,977,cs),
(2094,862,l),
(2225,807,l),
(2225,377,ls),
(2225,234,o),
(2134,134,o),
(1981,134,cs),
(1823,134,o),
(1730,234,o),
(1730,377,cs),
(1730,821,ls),
(1730,864,o),
(1716,880,o),
(1674,899,cs),
(1563,947,l),
(1576,887,l),
(1576,970,ls),
(1576,1043,o),
(1606,1077,o),
(1684,1077,cs),
(1771,1077,l),
(1771,1234,l),
(1680,1234,ls),
(1512,1234,o),
(1432,1156,o),
(1432,977,cs),
(1432,862,l),
(1563,807,l),
(1563,377,ls),
(1563,234,o),
(1470,134,o),
(1312,134,cs),
(1158,134,o),
(1068,234,o),
(1068,377,cs),
(1068,854,ls),
(1068,1088,o),
(895,1248,o),
(640,1248,cs),
(387,1248,o),
(214,1088,o),
(214,854,cs),
(214,0,l),
(400,0,ls),
(546,0,o),
(617,83,o),
(617,210,cs),
(617,338,o),
(538,413,o),
(407,413,cs),
(354,413,l),
(381,357,l),
(381,848,ls),
(381,995,o),
(486,1097,o),
(640,1097,cs),
(795,1097,o),
(901,995,o),
(901,848,cs),
(901,368,ls),
(901,140,o),
(1059,-15,o),
(1305,-15,cs)
);
},
{
closed = 1;
nodes = (
(377,111,l),
(377,310,l),
(398,310,ls),
(457,310,o),
(492,273,o),
(492,210,cs),
(492,148,o),
(458,111,o),
(402,111,cs)
);
}
);
width = 2606;
},
{
anchors = (
{
name = bottom;
pos = (1999,0);
},
{
name = bottomright;
pos = (2497,0);
},
{
name = top;
pos = (1999,1234);
},
{
name = topright;
pos = (2527,1234);
}
);
layerId = "5C20EF92-B63D-42A8-8878-93C2863E0093";
shapes = (
{
closed = 1;
nodes = (
(1516,-15,o),
(1658,67,o),
(1728,189,c),
(1603,189,l),
(1674,67,o),
(1813,-15,o),
(2020,-15,cs),
(2352,-15,o),
(2527,145,o),
(2527,403,cs),
(2527,685,ls),
(2527,750,o),
(2498,770,o),
(2440,789,cs),
(2275,843,l),
(2325,736,l),
(2325,838,ls),
(2325,876,o),
(2345,895,o),
(2384,895,cs),
(2571,895,l),
(2571,1234,l),
(2360,1234,ls),
(2090,1234,o),
(2037,1082,o),
(2037,907,cs),
(2037,734,l),
(2133,690,l),
(2133,420,ls),
(2133,335,o),
(2080,279,o),
(1997,279,cs),
(1915,279,o),
(1863,335,o),
(1863,420,cs),
(1863,685,ls),
(1863,750,o),
(1834,770,o),
(1777,789,cs),
(1612,843,l),
(1661,736,l),
(1661,838,ls),
(1661,876,o),
(1682,895,o),
(1721,895,cs),
(1907,895,l),
(1907,1234,l),
(1696,1234,ls),
(1427,1234,o),
(1373,1082,o),
(1373,907,cs),
(1373,734,l),
(1469,690,l),
(1469,420,ls),
(1469,335,o),
(1416,279,o),
(1332,279,cs),
(1250,279,o),
(1200,335,o),
(1200,420,cs),
(1200,831,ls),
(1200,1089,o),
(1016,1249,o),
(669,1249,cs),
(322,1249,o),
(141,1089,o),
(141,831,cs),
(141,0,l),
(490,0,ls),
(635,0,o),
(709,74,o),
(709,207,cs),
(709,340,o),
(632,414,o),
(506,414,cs),
(500,414,l),
(536,357,l),
(536,815,ls),
(536,899,o),
(586,955,o),
(669,955,cs),
(752,955,o),
(805,899,o),
(805,815,cs),
(805,403,ls),
(805,145,o),
(979,-15,o),
(1310,-15,cs)
);
},
{
closed = 1;
nodes = (
(462,140,l),
(462,279,l),
(472,279,ls),
(521,279,o),
(536,244,o),
(536,207,cs),
(536,163,o),
(509,140,o),
(474,140,cs)
);
}
);
width = 2668;
}
);
script = khmer;
subCategory = Other;
unicode = 6024;
}
{
category = Letter;
glyphname = "nyo-khmer";
kernLeft = KH_PO;
layers = (
{
anchors = (
{
name = _nyoTail;
pos = (1646,73);
},
{
name = bottom;
pos = (1106,-559);
},
{
name = bottomright;
pos = (1604,-559);
},
{
name = top;
pos = (1273,1234);
},
{
name = topright;
pos = (1618,1234);
}
);
layerId = "B1F27B51-9973-4381-9301-4FE46FE1CA59";
shapes = (
{
closed = 1;
nodes = (
(1538,-570,o),
(1646,-429,o),
(1646,-214,cs),
(1646,-105,l),
(1599,-105,l),
(1599,-214,ls),
(1599,-401,o),
(1511,-524,o),
(1329,-524,cs),
(1055,-524,o),
(891,-293,o),
(529,-293,cs),
(442,-293,o),
(357,-306,o),
(269,-330,c),
(269,-378,l),
(357,-352,o),
(442,-340,o),
(529,-340,cs),
(882,-340,o),
(1037,-570,o),
(1326,-570,cs)
);
},
{
ref = "nyo-khmer.less";
}
);
width = 1879;
},
{
anchors = (
{
name = _nyoTail;
pos = (1764,73);
},
{
name = bottom;
pos = (1326,-559);
},
{
name = bottomright;
pos = (1729,-559);
},
{
name = top;
pos = (1326,1234);
},
{
name = topright;
pos = (1729,1234);
}
);
hints = (
{
horizontal = 1;
origin = (0,4);
target = down;
type = TopGhost;
},
{
origin = (0,5);
target = (0,2);
type = Stem;
},
{
horizontal = 1;
origin = (0,21);
target = (0,11);
type = Stem;
}
);
layerId = "C698F293-3EC0-4A5A-A3A0-0FDB1F5CF265";
shapes = (
{
closed = 1;
nodes = (
(1639,-570,o),
(1764,-459,o),
(1764,-233,cs),
(1764,-105,l),
(1596,-105,l),
(1596,-233,ls),
(1596,-364,o),
(1529,-419,o),
(1394,-419,cs),
(1116,-419,o),
(930,-239,o),
(542,-239,cs),
(445,-239,o),
(351,-252,o),
(255,-278,c),
(255,-430,l),
(351,-403,o),
(445,-391,o),
(542,-391,cs),
(896,-391,o),
(1081,-570,o),
(1394,-570,cs)
);
},
{
ref = "nyo-khmer.less";
}
);
width = 1978;
},
{
anchors = (
{
name = _nyoTail;
pos = (1863,73);
},
{
name = bottom;
pos = (1323,-559);
},
{
name = bottomright;
pos = (1821,-559);
},
{
name = top;
pos = (1323,1234);
},
{
name = topright;
pos = (1828,1234);
}
);
layerId = "5C20EF92-B63D-42A8-8878-93C2863E0093";
shapes = (
{
closed = 1;
nodes = (
(1763,-570,o),
(1863,-470,o),
(1863,-274,cs),
(1863,-92,l),
(1470,-92,l),
(1470,-186,ls),
(1470,-234,o),
(1440,-258,o),
(1382,-258,cs),
(1113,-258,o),
(878,-134,o),
(480,-134,cs),
(378,-134,o),
(281,-144,o),
(185,-162,c),
(185,-466,l),
(283,-448,o),
(379,-438,o),
(480,-438,cs),
(886,-438,o),
(1143,-570,o),
(1463,-570,cs)
);
},
{
ref = "nyo-khmer.less";
}
);
width = 2004;
}
);
script = khmer;
subCategory = Other;
unicode = 6025;
}
{
category = Letter;
glyphname = "da-khmer";
kernLeft = KH_DA;
layers = (
{
anchors = (
{
name = bottom;
pos = (619,0);
},
{
name = bottomright;
pos = (1006,0);
},
{
name = top;
pos = (619,1234);
},
{
name = topright;
pos = (1006,1234);
}
);
layerId = "B1F27B51-9973-4381-9301-4FE46FE1CA59";
shapes = (
{
closed = 1;
nodes = (
(278,0,l),
(619,375,l),
(960,0,l),
(1006,0,l),
(1006,745,l),
(959,745,l),
(959,71,l),
(956,71,l),
(634,424,l),
(605,424,l),
(282,71,l),
(279,71,l),
(279,745,l),
(233,745,l),
(233,0,l)
);
},
{
closed = 1;
nodes = (
(295,1016,o),
(260,1053,o),
(260,1106,cs),
(260,1160,o),
(295,1196,o),
(348,1196,cs),
(400,1196,o),
(435,1160,o),
(435,1106,cs),
(435,1053,o),
(400,1016,o),
(348,1016,cs)
);
},
{
closed = 1;
nodes = (
(862,873,o),
(1006,984,o),
(1006,1186,cs),
(1006,1374,l),
(959,1374,l),
(959,1186,ls),
(959,1014,o),
(834,920,o),
(621,920,cs),
(455,920,o),
(375,955,o),
(348,987,c),
(348,976,l),
(386,976,o),
(480,1002,o),
(480,1106,cs),
(480,1185,o),
(426,1240,o),
(348,1240,cs),
(269,1240,o),
(215,1185,o),
(215,1106,cs),
(215,984,o),
(362,873,o),
(621,873,cs)
);
}
);
width = 1238;
},
{
anchors = (
{
name = bottom;
pos = (658,0);
},
{
name = bottomright;
pos = (1102,0);
},
{
name = top;
pos = (655,1234);
},
{
name = topright;
pos = (1096,1234);
}
);
hints = (
{
horizontal = 1;
origin = (2,18);
target = (1,5);
type = Stem;
},
{
origin = (2,21);
target = (1,2);
type = Stem;
},
{
origin = (1,8);
target = (2,15);
type = Stem;
},
{
origin = (2,5);
target = (2,2);
type = Stem;
},
{
origin = (0,14);
target = (0,11);
type = Stem;
},
{
origin = (0,6);
target = (0,3);
type = Stem;
},
{
horizontal = 1;
origin = (0,14);
target = up;
type = BottomGhost;
},
{
horizontal = 1;
origin = (2,12);
target = (1,11);
type = Stem;
}
);
layerId = "C698F293-3EC0-4A5A-A3A0-0FDB1F5CF265";
shapes = (
{
closed = 1;
nodes = (
(380,0,l),
(658,293,l),
(936,0,l),
(1102,0,l),
(1102,745,l),
(934,745,l),
(934,208,l),
(927,208,l),
(693,448,l),
(622,448,l),
(389,208,l),
(381,208,l),
(381,745,l),
(214,745,l),
(214,0,l)
);
},
{
closed = 1;
nodes = (
(348,1019,o),
(320,1048,o),
(320,1084,cs),
(320,1121,o),
(348,1149,o),
(383,1149,cs),
(418,1149,o),
(445,1121,o),
(445,1084,cs),
(445,1048,o),
(418,1019,o),
(383,1019,cs)
);
},
{
closed = 1;
nodes = (
(941,800,o),
(1109,939,o),
(1109,1196,cs),
(1109,1374,l),
(942,1374,l),
(942,1208,ls),
(942,1030,o),
(835,939,o),
(644,939,cs),
(517,939,o),
(441,974,o),
(413,1003,c),
(405,928,l),
(444,928,o),
(563,966,o),
(563,1091,cs),
(563,1182,o),
(488,1251,o),
(381,1251,cs),
(274,1251,o),
(199,1178,o),
(199,1083,cs),
(199,910,o),
(375,800,o),
(642,800,cs)
);
}
);
width = 1316;
},
{
anchors = (
{
name = bottom;
pos = (677,0);
},
{
name = bottomright;
pos = (1212,0);
},
{
name = top;
pos = (677,1234);
},
{
name = topright;
pos = (1212,1234);
}
);
layerId = "5C20EF92-B63D-42A8-8878-93C2863E0093";
shapes = (
{
closed = 1;
nodes = (
(534,0,l),
(677,192,l),
(819,0,l),
(1212,0,l),
(1212,745,l),
(818,745,l),
(818,359,l),
(809,359,l),
(709,490,l),
(645,490,l),
(544,359,l),
(536,359,l),
(536,745,l),
(141,745,l),
(141,0,l)
);
},
{
closed = 1;
nodes = (
(356,1004,o),
(337,1024,o),
(337,1051,cs),
(337,1080,o),
(356,1099,o),
(383,1099,cs),
(410,1099,o),
(429,1079,o),
(429,1051,cs),
(429,1024,o),
(410,1004,o),
(383,1004,cs)
);
},
{
closed = 1;
nodes = (
(1102,800,o),
(1220,943,o),
(1220,1143,cs),
(1220,1336,l),
(832,1336,l),
(832,1166,ls),
(832,1057,o),
(786,1016,o),
(645,1016,cs),
(586,1016,o),
(516,1025,o),
(486,1030,c),
(516,886,l),
(532,886,o),
(616,931,o),
(616,1057,cs),
(616,1177,o),
(522,1249,o),
(376,1249,cs),
(228,1249,o),
(130,1174,o),
(130,1044,cs),
(130,864,o),
(279,800,o),
(640,800,cs)
);
}
);
width = 1353;
}
);
script = khmer;
subCategory = Other;
unicode = 6026;
}
{
category = Letter;
glyphname = "ttha-khmer";
layers = (
{
anchors = (
{
name = bottom;
pos = (623,0);
},
{
name = bottomright;
pos = (991,0);
},
{
name = top;
pos = (624,1234);
},
{
name = topright;
pos = (1006,1234);
}
);
layerId = "B1F27B51-9973-4381-9301-4FE46FE1CA59";
shapes = (
{
closed = 1;
nodes = (
(849,-15,o),
(1006,124,o),
(1006,329,cs),
(1006,896,ls),
(1006,917,o),
(997,926,o),
(980,931,cs),
(811,984,l),
(818,963,l),
(818,1076,ls),
(818,1158,o),
(859,1189,o),
(926,1189,cs),
(994,1189,ls),
(1058,1189,o),
(1086,1217,o),
(1086,1279,cs),
(1086,1374,l),
(1042,1374,l),
(1042,1279,ls),
(1042,1248,o),
(1027,1234,o),
(994,1234,cs),
(926,1234,ls),
(831,1234,o),
(774,1189,o),
(774,1076,cs),
(774,951,l),
(959,895,l),
(959,329,ls),
(959,153,o),
(825,32,o),
(622,32,cs),
(419,32,o),
(287,153,o),
(287,329,cs),
(287,1234,l),
(224,1234,ls),
(119,1234,o),
(54,1166,o),
(54,1050,cs),
(54,931,o),
(119,860,o),
(224,860,cs),
(271,860,l),
(240,891,l),
(240,329,ls),
(240,124,o),
(394,-15,o),
(622,-15,cs)
);
},
{
closed = 1;
nodes = (
(143,901,o),
(96,958,o),
(96,1050,cs),
(96,1138,o),
(145,1193,o),
(224,1193,cs),
(240,1193,l),
(240,901,l),
(221,901,ls)
);
}
);
width = 1238;
},
{
anchors = (
{
name = bottom;
pos = (668,0);
},
{
name = bottomright;
pos = (1094,0);
},
{
name = top;
pos = (669,1234);
},
{
name = topright;
pos = (1109,1234);
}
);
hints = (
{
horizontal = 1;
origin = (0,49);
target = (0,32);
type = Stem;
},
{
horizontal = 1;
origin = (1,5);
target = (0,37);
type = Stem;
},
{
horizontal = 1;
origin = (0,37);
target = (0,12);
type = Stem;
},
{
origin = (0,40);
target = (1,2);
type = Stem;
},
{
origin = (0,46);
target = (0,35);
type = Stem;
},
{
origin = (0,27);
target = (0,8);
type = Stem;
},
{
origin = (0,19);
target = (0,16);
type = Stem;
},
{
origin = (0,29);
target = (0,2);
type = Stem;
}
);
layerId = "C698F293-3EC0-4A5A-A3A0-0FDB1F5CF265";
shapes = (
{
closed = 1;
nodes = (
(931,-15,o),
(1109,147,o),
(1109,384,cs),
(1109,816,ls),
(1109,859,o),
(1096,879,o),
(1052,894,cs),
(854,963,l),
(903,887,l),
(903,977,ls),
(903,1048,o),
(935,1078,o),
(1002,1078,cs),
(1099,1078,ls),
(1170,1078,o),
(1201,1109,o),
(1201,1179,cs),
(1201,1374,l),
(1041,1374,l),
(1041,1253,ls),
(1041,1241,o),
(1034,1234,o),
(1022,1234,cs),
(992,1234,ls),
(835,1234,o),
(759,1163,o),
(759,1001,cs),
(759,854,l),
(942,792,l),
(942,393,ls),
(942,241,o),
(831,137,o),
(669,137,cs),
(506,137,o),
(396,241,o),
(396,393,cs),
(396,1234,l),
(249,1234,ls),
(108,1234,o),
(41,1153,o),
(41,1028,cs),
(41,898,o),
(116,821,o),
(242,821,cs),
(291,821,l),
(228,888,l),
(228,384,ls),
(228,147,o),
(407,-15,o),
(669,-15,cs)
);
},
{
closed = 1;
nodes = (
(178,924,o),
(157,975,o),
(157,1028,cs),
(157,1091,o),
(191,1123,o),
(241,1123,cs),
(252,1123,l),
(252,924,l),
(245,924,ls)
);
}
);
width = 1323;
},
{
anchors = (
{
name = bottom;
pos = (695,0);
},
{
name = bottomright;
pos = (1216,0);
},
{
name = top;
pos = (699,1234);
},
{
name = topright;
pos = (1230,1234);
}
);
layerId = "5C20EF92-B63D-42A8-8878-93C2863E0093";
shapes = (
{
closed = 1;
nodes = (
(1046,-15,o),
(1230,145,o),
(1230,403,cs),
(1230,681,ls),
(1230,751,o),
(1194,769,o),
(1145,784,cs),
(952,843,l),
(987,736,l),
(987,854,ls),
(987,886,o),
(1004,902,o),
(1038,902,cs),
(1169,902,ls),
(1266,902,o),
(1318,963,o),
(1318,1075,cs),
(1318,1336,l),
(947,1336,l),
(947,1257,ls),
(947,1239,o),
(939,1234,o),
(923,1234,cs),
(902,1234,ls),
(765,1234,o),
(700,1159,o),
(700,1025,cs),
(700,737,l),
(837,677,l),
(837,419,ls),
(837,335,o),
(781,279,o),
(694,279,cs),
(608,279,o),
(554,335,o),
(554,419,cs),
(554,1234,l),
(264,1234,ls),
(114,1234,o),
(38,1163,o),
(38,1035,cs),
(38,907,o),
(112,835,o),
(233,835,cs),
(255,835,l),
(159,891,l),
(159,403,ls),
(159,144,o),
(343,-15,o),
(694,-15,cs)
);
},
{
closed = 1;
nodes = (
(218,963,o),
(204,997,o),
(204,1033,cs),
(204,1077,o),
(228,1101,o),
(258,1101,cs),
(272,1101,l),
(272,963,l),
(260,963,ls)
);
}
);
width = 1409;
}
);
script = khmer;
subCategory = Other;
unicode = 6027;
}
{
category = Letter;
color = 1;
glyphname = "do-khmer";
kernLeft = KH_DO;
layers = (
{
anchors = (
{
name = bottom;
pos = (589,0);
},
{
name = bottomright;
pos = (965,0);
},
{
name = top;
pos = (589,1234);
},
{
name = topright;
pos = (979,1234);
}
);
layerId = "B1F27B51-9973-4381-9301-4FE46FE1CA59";
shapes = (
{
closed = 1;
nodes = (
(723,-15,o),
(862,88,o),
(914,223,c),
(920,223,l),
(920,0,l),
(965,0,l),
(965,443,l),
(920,443,l),
(920,405,ls),
(920,168,o),
(727,31,o),
(549,31,cs),
(361,31,o),
(237,139,o),
(237,296,cs),
(237,485,l),
(677,570,ls),
(866,607,o),
(987,677,o),
(987,880,cs),
(987,1087,ls),
(987,1182,o),
(935,1239,o),
(848,1239,cs),
(788,1239,o),
(732,1215,o),
(656,1134,cs),
(589,1062,l),
(521,1134,ls),
(445,1215,o),
(389,1239,o),
(329,1239,cs),
(242,1239,o),
(191,1182,o),
(191,1087,cs),
(191,904,ls),
(191,826,o),
(238,780,o),
(319,780,cs),
(416,780,l),
(416,824,l),
(319,824,ls),
(267,824,o),
(237,851,o),
(237,902,cs),
(237,1087,ls),
(237,1158,o),
(271,1197,o),
(329,1197,cs),
(377,1197,o),
(428,1171,o),
(489,1107,cs),
(586,1005,l),
(592,1005,l),
(688,1107,ls),
(749,1171,o),
(800,1197,o),
(848,1197,cs),
(906,1197,o),
(940,1158,o),
(940,1087,cs),
(940,880,ls),
(940,705,o),
(839,648,o),
(670,615,cs),
(191,522,l),
(191,296,ls),
(191,113,o),
(333,-15,o),
(549,-15,cs)
);
}
);
width = 1179;
},
{
anchors = (
{
name = bottom;
pos = (634,0);
},
{
name = bottomright;
pos = (1054,0);
},
{
name = top;
pos = (634,1234);
},
{
name = topright;
pos = (1064,1234);
}
);
hints = (
{
horizontal = 1;
origin = (0,69);
target = (0,11);
type = Stem;
},
{
horizontal = 1;
origin = (0,38);
target = (0,41);
type = Stem;
},
{
horizontal = 1;
origin = (0,31);
target = (0,48);
type = Stem;
},
{
horizontal = 1;
origin = (0,4);
target = up;
type = BottomGhost;
},
{
origin = (0,66);
target = (0,14);
type = Stem;
},
{
origin = (0,61);
target = (0,19);
type = Stem;
},
{
origin = (0,4);
target = (0,5);
type = Stem;
},
{
origin = (0,8);
target = (0,5);
type = Stem;
},
{
origin = (0,66);
target = (0,44);
type = Stem;
}
);
layerId = "C698F293-3EC0-4A5A-A3A0-0FDB1F5CF265";
shapes = (
{
closed = 1;
nodes = (
(734,-15,o),
(835,50,o),
(882,132,c),
(891,132,l),
(891,0,l),
(1054,0,l),
(1054,429,l),
(888,429,l),
(888,386,ls),
(888,238,o),
(773,137,o),
(605,137,cs),
(458,137,o),
(357,222,o),
(357,347,cs),
(357,436,l),
(741,525,ls),
(992,584,o),
(1078,694,o),
(1078,858,cs),
(1078,1041,ls),
(1078,1169,o),
(1006,1240,o),
(886,1240,cs),
(823,1240,o),
(766,1225,o),
(677,1147,cs),
(634,1110,l),
(592,1147,ls),
(503,1225,o),
(446,1240,o),
(383,1240,cs),
(263,1240,o),
(191,1169,o),
(191,1041,cs),
(191,875,ls),
(191,773,o),
(247,722,o),
(356,722,cs),
(477,722,l),
(477,853,l),
(394,853,ls),
(368,853,o),
(355,864,o),
(355,888,cs),
(355,1008,ls),
(355,1057,o),
(381,1084,o),
(426,1084,cs),
(466,1084,o),
(503,1058,o),
(555,1008,cs),
(615,952,l),
(654,952,l),
(714,1008,ls),
(768,1059,o),
(803,1084,o),
(843,1084,cs),
(886,1084,o),
(911,1057,o),
(911,1008,cs),
(911,864,ls),
(911,713,o),
(808,677,o),
(681,648,cs),
(191,536,l),
(191,322,ls),
(191,122,o),
(338,-15,o),
(567,-15,cs)
);
}
);
width = 1262;
},
{
anchors = (
{
name = bottom;
pos = (665,0);
},
{
name = bottomright;
pos = (1174,0);
},
{
name = top;
pos = (665,1234);
},
{
name = topright;
pos = (1190,1234);
}
);
layerId = "5C20EF92-B63D-42A8-8878-93C2863E0093";
shapes = (
{
closed = 1;
nodes = (
(669,-15,o),
(747,52,o),
(784,116,c),
(796,116,l),
(796,0,l),
(1174,0,l),
(1174,403,l),
(781,403,l),
(781,351,ls),
(781,276,o),
(733,224,o),
(650,224,cs),
(575,224,o),
(518,267,o),
(518,338,cs),
(518,429,l),
(805,458,ls),
(1038,481,o),
(1203,575,o),
(1203,789,cs),
(1203,1010,ls),
(1203,1158,o),
(1110,1240,o),
(954,1240,cs),
(859,1240,o),
(787,1227,o),
(685,1147,cs),
(664,1131,l),
(644,1147,ls),
(544,1230,o),
(469,1240,o),
(374,1240,cs),
(218,1240,o),
(125,1158,o),
(125,1010,cs),
(125,848,ls),
(125,749,o),
(181,699,o),
(290,699,cs),
(620,699,l),
(620,868,l),
(558,868,ls),
(533,868,o),
(520,880,o),
(520,902,cs),
(520,914,ls),
(520,938,o),
(533,952,o),
(555,952,cs),
(576,952,o),
(596,941,o),
(623,914,cs),
(653,883,l),
(675,883,l),
(706,914,ls),
(733,942,o),
(753,952,o),
(773,952,cs),
(795,952,o),
(809,938,o),
(809,914,cs),
(809,821,ls),
(809,737,o),
(744,690,o),
(648,682,cs),
(125,638,l),
(125,329,ls),
(125,100,o),
(263,-15,o),
(488,-15,cs)
);
}
);
width = 1330;
},
{
anchors = (
{
name = bottom;
pos = (665,0);
},
{
name = bottomright;
pos = (1174,0);
},
{
name = top;
pos = (665,1234);
},
{
name = topright;
pos = (1190,1234);
}
);
associatedMasterId = "5C20EF92-B63D-42A8-8878-93C2863E0093";
attr = {
axisRules = (
{
min = 600;
}
);
};
background = {
shapes = (
{
closed = 1;
nodes = (
(669,-15,o),
(747,52,o),
(784,116,c),
(796,116,l),
(796,0,l),
(1174,0,l),
(1174,403,l),
(781,403,l),
(781,351,ls),
(781,276,o),
(733,224,o),
(650,224,cs),
(575,224,o),
(518,267,o),
(518,338,cs),
(518,429,l),
(805,458,ls),
(1038,481,o),
(1203,575,o),
(1203,789,cs),
(1203,1010,ls),
(1203,1158,o),
(1110,1240,o),
(954,1240,cs),
(859,1240,o),
(787,1227,o),
(685,1147,cs),
(664,1131,l),
(644,1147,ls),
(544,1230,o),
(469,1240,o),
(374,1240,cs),
(218,1240,o),
(125,1158,o),
(125,1010,cs),
(125,848,ls),
(125,749,o),
(181,699,o),
(290,699,cs),
(620,699,l),
(620,868,l),
(558,868,ls),
(533,868,o),
(520,880,o),
(520,902,cs),
(520,914,ls),
(520,938,o),
(533,952,o),
(555,952,cs),
(576,952,o),
(596,941,o),
(623,914,cs),
(653,883,l),
(675,883,l),
(706,914,ls),
(733,942,o),
(753,952,o),
(773,952,cs),
(795,952,o),
(809,938,o),
(809,914,cs),
(809,821,ls),
(809,737,o),
(744,690,o),
(648,682,cs),
(125,638,l),
(125,329,ls),
(125,100,o),
(263,-15,o),
(488,-15,cs)
);
}
);
};
color = 3;
layerId = "02863DB0-55EB-4F83-AC74-14559DC10028";
name = "[600]";
shapes = (
{
closed = 1;
nodes = (
(669,-15,o),
(747,52,o),
(784,116,c),
(796,116,l),
(796,0,l),
(1174,0,l),
(1174,403,l),
(781,403,l),
(781,351,ls),
(781,276,o),
(733,224,o),
(650,224,cs),
(575,224,o),
(518,267,o),
(518,338,cs),
(518,437,l),
(805,466,ls),
(1038,490,o),
(1203,584,o),
(1203,798,cs),
(1203,1010,ls),
(1203,1158,o),
(1110,1240,o),
(954,1240,cs),
(859,1240,o),
(787,1227,o),
(685,1147,cs),
(664,1131,l),
(644,1147,ls),
(544,1230,o),
(469,1240,o),
(374,1240,cs),
(218,1240,o),
(125,1158,o),
(125,1010,cs),
(125,803,l),
(520,803,l),
(520,914,ls),
(520,938,o),
(533,952,o),
(555,952,cs),
(576,952,o),
(596,941,o),
(623,914,cs),
(653,883,l),
(675,883,l),
(706,914,ls),
(733,942,o),
(753,952,o),
(773,952,cs),
(795,952,o),
(809,938,o),
(809,914,cs),
(809,830,ls),
(809,746,o),
(744,699,o),
(648,691,cs),
(125,647,l),
(125,329,ls),
(125,100,o),
(263,-15,o),
(488,-15,cs)
);
}
);
width = 1330;
},
{
anchors = (
{
name = bottom;
pos = (634,0);
},
{
name = bottomright;
pos = (1054,0);
},
{
name = top;
pos = (634,1234);
},
{
name = topright;
pos = (1064,1234);
}
);
associatedMasterId = "C698F293-3EC0-4A5A-A3A0-0FDB1F5CF265";
attr = {
axisRules = (
{
min = 600;
}
);
};
background = {
shapes = (
{
closed = 1;
nodes = (
(733,-15,o),
(833,50,o),
(880,132,c),
(889,132,l),
(889,0,l),
(1054,0,l),
(1054,429,l),
(886,429,l),
(886,386,ls),
(886,238,o),
(772,137,o),
(605,137,cs),
(459,137,o),
(358,222,o),
(358,347,cs),
(358,426,l),
(741,515,ls),
(993,574,o),
(1078,689,o),
(1078,858,cs),
(1078,1041,ls),
(1078,1169,o),
(1006,1240,o),
(886,1240,cs),
(823,1240,o),
(766,1225,o),
(677,1147,cs),
(634,1110,l),
(592,1147,ls),
(503,1225,o),
(446,1240,o),
(383,1240,cs),
(263,1240,o),
(191,1169,o),
(191,1041,cs),
(191,882,ls),
(191,776,o),
(257,722,o),
(387,722,cs),
(477,722,l),
(477,853,l),
(419,853,ls),
(378,853,o),
(358,872,o),
(358,911,cs),
(358,1008,ls),
(358,1057,o),
(383,1084,o),
(426,1084,cs),
(466,1084,o),
(503,1058,o),
(555,1008,cs),
(615,952,l),
(654,952,l),
(714,1008,ls),
(768,1059,o),
(803,1084,o),
(843,1084,cs),
(886,1084,o),
(911,1057,o),
(911,1008,cs),
(911,864,ls),
(911,713,o),
(808,677,o),
(681,648,cs),
(191,536,l),
(191,322,ls),
(191,122,o),
(338,-15,o),
(567,-15,cs)
);
}
);
};
color = 3;
layerId = "CD6383A3-FDFF-4487-9867-C408E5FD57F3";
name = "[600]";
shapes = (
{
closed = 1;
nodes = (
(734,-15,o),
(835,50,o),
(882,132,c),
(891,132,l),
(891,0,l),
(1054,0,l),
(1054,429,l),
(888,429,l),
(888,386,ls),
(888,238,o),
(773,137,o),
(605,137,cs),
(458,137,o),
(357,222,o),
(357,347,cs),
(357,450,l),
(741,538,ls),
(992,596,o),
(1078,701,o),
(1078,858,cs),
(1078,1041,ls),
(1078,1169,o),
(1006,1240,o),
(886,1240,cs),
(823,1240,o),
(766,1225,o),
(677,1147,cs),
(634,1110,l),
(592,1147,ls),
(503,1225,o),
(446,1240,o),
(383,1240,cs),
(263,1240,o),
(191,1169,o),
(191,1041,cs),
(191,815,l),
(355,815,l),
(355,1008,ls),
(355,1057,o),
(381,1084,o),
(426,1084,cs),
(466,1084,o),
(503,1058,o),
(555,1008,cs),
(615,952,l),
(654,952,l),
(714,1008,ls),
(768,1059,o),
(803,1084,o),
(843,1084,cs),
(886,1084,o),
(911,1057,o),
(911,1008,cs),
(911,864,ls),
(911,723,o),
(807,691,o),
(681,662,cs),
(191,550,l),
(191,322,ls),
(191,122,o),
(338,-15,o),
(567,-15,cs)
);
}
);
width = 1262;
},
{
anchors = (
{
name = bottom;
pos = (589,0);
},
{
name = bottomright;
pos = (965,0);
},
{
name = top;
pos = (589,1234);
},
{
name = topright;
pos = (979,1234);
}
);
associatedMasterId = "B1F27B51-9973-4381-9301-4FE46FE1CA59";
attr = {
axisRules = (
{
min = 600;
}
);
};
background = {
shapes = (
{
closed = 1;
nodes = (
(723,-15,o),
(861,88,o),
(913,231,c),
(920,231,l),
(920,0,l),
(965,0,l),
(965,443,l),
(920,443,l),
(920,405,ls),
(920,168,o),
(727,31,o),
(549,31,cs),
(361,31,o),
(237,148,o),
(237,318,cs),
(237,514,l),
(677,600,ls),
(865,636,o),
(987,696,o),
(987,880,cs),
(987,1087,ls),
(987,1185,o),
(938,1239,o),
(856,1239,cs),
(793,1239,o),
(747,1218,o),
(671,1134,cs),
(589,1045,l),
(506,1134,ls),
(430,1218,o),
(384,1239,o),
(322,1239,cs),
(239,1239,o),
(191,1185,o),
(191,1087,cs),
(191,789,l),
(359,789,l),
(359,829,l),
(237,829,l),
(237,1087,ls),
(237,1158,o),
(268,1197,o),
(322,1197,cs),
(372,1197,o),
(412,1173,o),
(474,1107,cs),
(586,989,l),
(592,989,l),
(703,1107,ls),
(765,1173,o),
(805,1197,o),
(856,1197,cs),
(909,1197,o),
(940,1158,o),
(940,1087,cs),
(940,880,ls),
(940,724,o),
(838,676,o),
(670,644,cs),
(191,552,l),
(191,318,ls),
(191,122,o),
(333,-15,o),
(549,-15,cs)
);
}
);
};
color = 6;
layerId = "A028B84D-DC8A-4518-8D6D-EBB566944AEF";
name = "[600]";
shapes = (
{
closed = 1;
nodes = (
(723,-15,o),
(861,88,o),
(913,231,c),
(920,231,l),
(920,0,l),
(965,0,l),
(965,443,l),
(920,443,l),
(920,405,ls),
(920,168,o),
(727,31,o),
(549,31,cs),
(361,31,o),
(237,139,o),
(237,296,cs),
(237,500,l),
(677,585,ls),
(866,621,o),
(987,686,o),
(987,880,cs),
(987,1087,ls),
(987,1182,o),
(935,1239,o),
(848,1239,cs),
(788,1239,o),
(732,1215,o),
(656,1134,cs),
(589,1062,l),
(521,1134,ls),
(445,1215,o),
(389,1239,o),
(329,1239,cs),
(242,1239,o),
(191,1182,o),
(191,1087,cs),
(191,824,l),
(237,824,l),
(237,1087,ls),
(237,1158,o),
(271,1197,o),
(329,1197,cs),
(377,1197,o),
(428,1171,o),
(489,1107,cs),
(586,1005,l),
(592,1005,l),
(688,1107,ls),
(749,1171,o),
(800,1197,o),
(848,1197,cs),
(906,1197,o),
(940,1158,o),
(940,1087,cs),
(940,880,ls),
(940,715,o),
(839,662,o),
(670,629,cs),
(191,537,l),
(191,296,ls),
(191,113,o),
(333,-15,o),
(549,-15,cs)
);
}
);
width = 1179;
}
);
script = khmer;
subCategory = Other;
unicode = 6028;
}
{
category = Letter;
glyphname = "ttho-khmer";
kernLeft = KH_PO;
layers = (
{
anchors = (
{
name = bottom;
pos = (1281,0);
},
{
name = bottomright;
pos = (1639,0);
},
{
name = top;
pos = (1281,1234);
},
{
name = topright;
pos = (1645,1234);
}
);
layerId = "B1F27B51-9973-4381-9301-4FE46FE1CA59";
shapes = (
{
closed = 1;
nodes = (
(233,0,l),
(304,0,ls),
(421,0,o),
(495,68,o),
(495,184,cs),
(495,303,o),
(421,374,o),
(304,374,cs),
(249,374,l),
(279,343,l),
(279,1102,ls),
(279,1163,o),
(307,1197,o),
(354,1197,cs),
(404,1197,o),
(443,1171,o),
(505,1107,cs),
(616,989,l),
(622,989,l),
(733,1107,ls),
(795,1171,o),
(835,1197,o),
(884,1197,cs),
(931,1197,o),
(959,1163,o),
(959,1102,cs),
(959,343,l),
(975,374,l),
(949,374,ls),
(838,374,o),
(768,303,o),
(768,184,cs),
(768,68,o),
(838,0,o),
(949,0,cs),
(1006,0,l),
(1006,1102,ls),
(1006,1190,o),
(960,1239,o),
(884,1239,cs),
(822,1239,o),
(774,1213,o),
(701,1134,cs),
(619,1045,l),
(537,1134,ls),
(464,1213,o),
(416,1239,o),
(354,1239,cs),
(278,1239,o),
(233,1190,o),
(233,1102,cs)
);
},
{
closed = 1;
nodes = (
(279,41,l),
(279,333,l),
(307,333,ls),
(397,333,o),
(453,276,o),
(453,184,cs),
(453,96,o),
(396,41,o),
(304,41,cs)
);
},
{
closed = 1;
nodes = (
(864,41,o),
(811,96,o),
(811,184,cs),
(811,276,o),
(862,333,o),
(946,333,cs),
(959,333,l),
(959,41,l),
(949,41,ls)
);
},
{
closed = 1;
nodes = (
(1578,-7,o),
(1646,71,o),
(1646,186,cs),
(1646,896,ls),
(1646,917,o),
(1637,926,o),
(1620,931,cs),
(1473,984,l),
(1487,963,l),
(1487,1047,ls),
(1487,1150,o),
(1540,1187,o),
(1625,1187,cs),
(1707,1187,l),
(1707,1234,l),
(1625,1234,ls),
(1511,1234,o),
(1444,1180,o),
(1444,1047,cs),
(1444,952,l),
(1599,896,l),
(1599,186,ls),
(1599,95,o),
(1550,33,o),
(1473,33,cs),
(1409,33,o),
(1349,47,o),
(1212,176,cs),
(1003,374,l),
(981,374,l),
(981,333,l),
(987,333,l),
(1190,140,ls),
(1329,7,o),
(1399,-7,o),
(1473,-7,cs)
);
}
);
width = 1879;
},
{
anchors = (
{
name = bottom;
pos = (1346,0);
},
{
name = bottomright;
pos = (1749,0);
},
{
name = top;
pos = (1346,1234);
},
{
name = topright;
pos = (1749,1234);
}
);
hints = (
{
horizontal = 1;
origin = (0,0);
target = (1,0);
type = Stem;
},
{
horizontal = 1;
origin = (3,15);
target = (3,12);
type = Stem;
},
{
horizontal = 1;
origin = (3,35);
target = (3,24);
type = Stem;
},
{
horizontal = 1;
origin = (0,47);
target = (0,13);
type = Stem;
},
{
origin = (0,0);
target = (0,9);
type = Stem;
},
{
origin = (1,5);
target = (0,4);
type = Stem;
},
{
origin = (0,31);
target = (2,2);
type = Stem;
},
{
origin = (0,26);
target = (0,35);
type = Stem;
},
{
origin = (3,21);
target = (3,2);
type = Stem;
},
{
origin = (3,19);
target = (3,8);
type = Stem;
}
);
layerId = "C698F293-3EC0-4A5A-A3A0-0FDB1F5CF265";
shapes = (
{
closed = 1;
nodes = (
(214,0,l),
(400,0,ls),
(546,0,o),
(617,83,o),
(617,210,cs),
(617,338,o),
(538,413,o),
(407,413,cs),
(354,413,l),
(381,357,l),
(381,1008,ls),
(381,1057,o),
(407,1084,o),
(450,1084,cs),
(489,1084,o),
(526,1058,o),
(578,1008,cs),
(638,952,l),
(677,952,l),
(737,1008,ls),
(791,1059,o),
(827,1084,o),
(866,1084,cs),
(909,1084,o),
(934,1057,o),
(934,1008,cs),
(934,357,l),
(962,413,l),
(923,413,ls),
(795,413,o),
(720,338,o),
(720,210,cs),
(720,78,o),
(797,0,o),
(930,0,cs),
(1102,0,l),
(1102,1041,ls),
(1102,1169,o),
(1030,1240,o),
(910,1240,cs),
(846,1240,o),
(789,1225,o),
(700,1147,cs),
(658,1110,l),
(616,1147,ls),
(526,1225,o),
(469,1240,o),
(406,1240,cs),
(286,1240,o),
(214,1169,o),
(214,1041,cs)
);
},
{
closed = 1;
nodes = (
(377,111,l),
(377,310,l),
(398,310,ls),
(457,310,o),
(492,273,o),
(492,210,cs),
(492,148,o),
(458,111,o),
(402,111,cs)
);
},
{
closed = 1;
nodes = (
(878,111,o),
(845,148,o),
(845,210,cs),
(845,273,o),
(879,310,o),
(937,310,cs),
(944,310,l),
(944,111,l),
(933,111,ls)
);
},
{
closed = 1;
nodes = (
(1667,-12,o),
(1764,70,o),
(1764,208,cs),
(1764,821,ls),
(1764,864,o),
(1750,880,o),
(1707,899,cs),
(1596,947,l),
(1610,887,l),
(1610,970,ls),
(1610,1043,o),
(1639,1077,o),
(1717,1077,cs),
(1805,1077,l),
(1805,1234,l),
(1714,1234,ls),
(1545,1234,o),
(1465,1156,o),
(1465,977,cs),
(1465,862,l),
(1596,807,l),
(1596,226,ls),
(1596,162,o),
(1553,130,o),
(1500,130,cs),
(1432,130,o),
(1377,170,o),
(1309,223,cs),
(1087,396,l),
(1026,396,l),
(1026,215,l),
(1087,215,l),
(1214,116,ls),
(1301,49,o),
(1390,-12,o),
(1522,-12,cs)
);
}
);
width = 1978;
},
{
anchors = (
{
name = bottom;
pos = (1356,0);
},
{
name = bottomright;
pos = (1869,0);
},
{
name = top;
pos = (1356,1234);
},
{
name = topright;
pos = (1884,1234);
}
);
layerId = "5C20EF92-B63D-42A8-8878-93C2863E0093";
shapes = (
{
closed = 1;
nodes = (
(141,0,l),
(415,0,ls),
(565,0,o),
(641,74,o),
(641,207,cs),
(641,342,o),
(564,415,o),
(441,415,cs),
(420,415,l),
(536,341,l),
(536,913,ls),
(536,938,o),
(549,952,o),
(571,952,cs),
(594,952,o),
(615,938,o),
(639,914,cs),
(669,883,l),
(691,883,l),
(722,914,ls),
(749,942,o),
(769,952,o),
(789,952,cs),
(811,952,o),
(825,938,o),
(825,913,cs),
(825,330,l),
(944,413,l),
(909,413,ls),
(791,413,o),
(720,338,o),
(720,207,cs),
(720,74,o),
(795,0,o),
(946,0,cs),
(1220,0,l),
(1220,1010,ls),
(1220,1158,o),
(1126,1240,o),
(970,1240,cs),
(876,1240,o),
(803,1227,o),
(701,1147,cs),
(680,1131,l),
(660,1147,ls),
(568,1220,o),
(497,1240,o),
(391,1240,cs),
(234,1240,o),
(141,1158,o),
(141,1010,cs)
);
},
{
closed = 1;
nodes = (
(402,140,l),
(402,279,l),
(413,279,ls),
(461,279,o),
(475,244,o),
(475,207,cs),
(475,163,o),
(448,140,o),
(414,140,cs)
);
},
{
closed = 1;
nodes = (
(912,140,o),
(885,163,o),
(885,207,cs),
(885,244,o),
(899,279,o),
(948,279,cs),
(959,279,l),
(959,140,l),
(947,140,ls)
);
},
{
closed = 1;
nodes = (
(1789,-12,o),
(1884,79,o),
(1884,248,cs),
(1884,685,ls),
(1884,750,o),
(1854,770,o),
(1797,789,cs),
(1632,843,l),
(1682,736,l),
(1682,838,ls),
(1682,876,o),
(1701,895,o),
(1741,895,cs),
(1927,895,l),
(1927,1234,l),
(1716,1234,ls),
(1459,1234,o),
(1393,1097,o),
(1393,907,cs),
(1393,734,l),
(1489,690,l),
(1489,341,ls),
(1489,305,o),
(1473,286,o),
(1439,286,cs),
(1423,286,o),
(1387,295,o),
(1337,326,cs),
(1220,398,l),
(1171,398,l),
(1171,152,l),
(1220,152,l),
(1319,88,ls),
(1439,11,o),
(1535,-12,o),
(1612,-12,cs)
);
}
);
width = 2025;
}
);
metricRight = "=ba-khmer";
script = khmer;
subCategory = Other;
unicode = 6029;
}
{
category = Letter;
glyphname = "nno-khmer";
kernLeft = KH_LO;
layers = (
{
anchors = (
{
name = bottom;
pos = (1265,0);
},
{
name = bottomright;
pos = (1599,0);
},
{
name = top;
pos = (1265,1234);
},
{
name = topright;
pos = (2283,1234);
}
);
layerId = "B1F27B51-9973-4381-9301-4FE46FE1CA59";
shapes = (
{
closed = 1;
nodes = (
(304,0,ls),
(421,0,o),
(495,68,o),
(495,184,cs),
(495,303,o),
(421,374,o),
(304,374,cs),
(249,374,l),
(279,343,l),
(279,892,ls),
(279,1075,o),
(412,1201,o),
(605,1201,cs),
(799,1201,o),
(931,1075,o),
(931,892,cs),
(931,0,l),
(979,0,l),
(1265,338,l),
(1552,0,l),
(1599,0,l),
(1599,892,ls),
(1599,1075,o),
(1732,1201,o),
(1925,1201,cs),
(2122,1201,o),
(2251,1075,o),
(2251,892,cs),
(2251,0,l),
(2298,0,l),
(2298,892,ls),
(2298,1103,o),
(2147,1247,o),
(1925,1247,cs),
(1704,1247,o),
(1553,1103,o),
(1553,892,cs),
(1553,69,l),
(1550,69,l),
(1278,389,l),
(1252,389,l),
(981,69,l),
(978,69,l),
(978,892,ls),
(978,1103,o),
(827,1247,o),
(605,1247,cs),
(384,1247,o),
(233,1103,o),
(233,892,cs),
(233,0,l)
);
},
{
closed = 1;
nodes = (
(279,333,l),
(307,333,ls),
(397,333,o),
(453,276,o),
(453,184,cs),
(453,96,o),
(396,41,o),
(304,41,cs),
(279,41,l)
);
}
);
width = 2531;
},
{
anchors = (
{
name = bottom;
pos = (1303,0);
},
{
name = bottomright;
pos = (1704,0);
},
{
name = top;
pos = (1303,1234);
},
{
name = topright;
pos = (2379,1234);
}
);
hints = (
{
horizontal = 1;
origin = (0,50);
target = (1,8);
type = Stem;
},
{
horizontal = 1;
origin = (0,46);
target = (0,12);
type = Stem;
},
{
origin = (0,50);
target = (0,8);
type = Stem;
},
{
origin = (1,4);
target = (0,3);
type = Stem;
},
{
origin = (0,16);
target = (0,42);
type = Stem;
},
{
origin = (0,37);
target = (0,20);
type = Stem;
},
{
origin = (0,28);
target = (0,29);
type = Stem;
}
);
layerId = "C698F293-3EC0-4A5A-A3A0-0FDB1F5CF265";
shapes = (
{
closed = 1;
nodes = (
(400,0,ls),
(546,0,o),
(617,83,o),
(617,210,cs),
(617,338,o),
(538,413,o),
(407,413,cs),
(354,413,l),
(381,357,l),
(381,846,ls),
(381,998,o),
(488,1097,o),
(642,1097,cs),
(796,1097,o),
(902,998,o),
(902,846,cs),
(902,0,l),
(1067,0,l),
(1302,282,l),
(1540,0,l),
(1704,0,l),
(1704,846,ls),
(1704,998,o),
(1810,1097,o),
(1965,1097,cs),
(2119,1097,o),
(2225,998,o),
(2225,846,cs),
(2225,0,l),
(2392,0,l),
(2392,853,ls),
(2392,1098,o),
(2218,1249,o),
(1965,1249,cs),
(1711,1249,o),
(1537,1098,o),
(1537,853,cs),
(1537,228,l),
(1529,228,l),
(1328,464,l),
(1278,464,l),
(1077,228,l),
(1070,228,l),
(1070,853,ls),
(1070,1098,o),
(895,1249,o),
(642,1249,cs),
(389,1249,o),
(214,1098,o),
(214,853,cs),
(214,0,l)
);
},
{
closed = 1;
nodes = (
(377,310,l),
(398,310,ls),
(457,310,o),
(492,273,o),
(492,210,cs),
(492,148,o),
(458,111,o),
(402,111,cs),
(377,111,l)
);
}
);
width = 2606;
},
{
anchors = (
{
name = bottom;
pos = (1326,0);
},
{
name = bottomright;
pos = (1847,0);
},
{
name = top;
pos = (1326,1234);
},
{
name = topright;
pos = (2490,1234);
}
);
layerId = "5C20EF92-B63D-42A8-8878-93C2863E0093";
shapes = (
{
closed = 1;
nodes = (
(490,0,ls),
(635,0,o),
(709,74,o),
(709,207,cs),
(709,340,o),
(632,414,o),
(506,414,cs),
(500,414,l),
(536,357,l),
(536,822,ls),
(536,902,o),
(587,955,o),
(670,955,cs),
(753,955,o),
(805,902,o),
(805,822,cs),
(805,0,l),
(1186,0,l),
(1326,178,l),
(1467,0,l),
(1847,0,l),
(1847,822,ls),
(1847,902,o),
(1900,955,o),
(1983,955,cs),
(2065,955,o),
(2117,902,o),
(2117,822,cs),
(2117,0,l),
(2512,0,l),
(2512,831,ls),
(2512,1090,o),
(2326,1249,o),
(1983,1249,cs),
(1641,1249,o),
(1459,1090,o),
(1459,831,cs),
(1459,358,l),
(1449,358,l),
(1352,474,l),
(1301,474,l),
(1204,358,l),
(1194,358,l),
(1194,831,ls),
(1194,1089,o),
(1012,1249,o),
(670,1249,cs),
(325,1249,o),
(141,1089,o),
(141,831,cs),
(141,0,l)
);
},
{
closed = 1;
nodes = (
(462,279,l),
(472,279,ls),
(521,279,o),
(536,244,o),
(536,207,cs),
(536,163,o),
(509,140,o),
(474,140,cs),
(462,140,l)
);
}
);
width = 2653;
}
);
script = khmer;
subCategory = Other;
unicode = 6030;
}
{
category = Letter;
glyphname = "ta-khmer";
layers = (
{
anchors = (
{
name = bottom;
pos = (619,0);
},
{
name = bottomright;
pos = (1006,0);
},
{
name = top;
pos = (619,1234);
},
{
name = topright;
pos = (1006,1234);
}
);
layerId = "B1F27B51-9973-4381-9301-4FE46FE1CA59";
shapes = (
{
closed = 1;
nodes = (
(959,0,l),
(1006,0,l),
(1006,582,ls),
(1006,811,o),
(856,955,o),
(619,955,cs),
(383,955,o),
(233,811,o),
(233,582,cs),
(233,0,l),
(304,0,ls),
(421,0,o),
(495,68,o),
(495,184,cs),
(495,303,o),
(421,374,o),
(304,374,cs),
(249,374,l),
(279,343,l),
(279,582,ls),
(279,783,o),
(407,908,o),
(619,908,cs),
(831,908,o),
(959,783,o),
(959,582,cs)
);
},
{
closed = 1;
nodes = (
(279,41,l),
(279,333,l),
(307,333,ls),
(397,333,o),
(453,276,o),
(453,184,cs),
(453,96,o),
(396,41,o),
(304,41,cs)
);
},
{
closed = 1;
nodes = (
(1013,1187,l),
(1013,1234,l),
(226,1234,l),
(226,1187,l)
);
}
);
width = 1238;
},
{
anchors = (
{
name = bottom;
pos = (658,0);
},
{
name = bottomright;
pos = (1102,0);
},
{
name = top;
pos = (658,1234);
},
{
name = topright;
pos = (1102,1234);
}
);
hints = (
{
horizontal = 1;
origin = (0,9);
target = (1,0);
type = Stem;
},
{
horizontal = 1;
origin = (0,22);
target = (0,5);
type = Stem;
},
{
horizontal = 1;
origin = (2,2);
target = (2,3);
type = Stem;
},
{
origin = (1,5);
target = (0,13);
type = Stem;
},
{
origin = (0,0);
target = (0,1);
type = Stem;
},
{
origin = (0,9);
target = (0,18);
type = Stem;
}
);
layerId = "C698F293-3EC0-4A5A-A3A0-0FDB1F5CF265";
shapes = (
{
closed = 1;
nodes = (
(934,0,l),
(1102,0,l),
(1102,514,ls),
(1102,755,o),
(922,920,o),
(658,920,cs),
(394,920,o),
(214,755,o),
(214,514,cs),
(214,0,l),
(400,0,ls),
(546,0,o),
(617,83,o),
(617,210,cs),
(617,338,o),
(538,413,o),
(407,413,cs),
(354,413,l),
(381,357,l),
(381,505,ls),
(381,661,o),
(493,768,o),
(658,768,cs),
(822,768,o),
(934,661,o),
(934,505,cs)
);
},
{
closed = 1;
nodes = (
(377,111,l),
(377,310,l),
(398,310,ls),
(457,310,o),
(492,273,o),
(492,210,cs),
(492,148,o),
(458,111,o),
(402,111,cs)
);
},
{
closed = 1;
nodes = (
(1109,1077,l),
(1109,1234,l),
(207,1234,l),
(207,1077,l)
);
}
);
width = 1316;
},
{
anchors = (
{
name = bottom;
pos = (677,0);
},
{
name = bottomright;
pos = (1212,0);
},
{
name = top;
pos = (677,1234);
},
{
name = topright;
pos = (1212,1234);
}
);
layerId = "5C20EF92-B63D-42A8-8878-93C2863E0093";
shapes = (
{
closed = 1;
nodes = (
(818,0,l),
(1212,0,l),
(1212,414,ls),
(1212,672,o),
(1027,831,o),
(677,831,cs),
(325,831,o),
(141,672,o),
(141,414,cs),
(141,0,l),
(490,0,ls),
(635,0,o),
(709,74,o),
(709,207,cs),
(709,340,o),
(632,414,o),
(506,414,cs),
(500,414,l),
(536,357,l),
(536,397,ls),
(536,481,o),
(589,537,o),
(677,537,cs),
(763,537,o),
(818,481,o),
(818,397,cs)
);
},
{
closed = 1;
nodes = (
(462,140,l),
(462,279,l),
(472,279,ls),
(521,279,o),
(536,244,o),
(536,207,cs),
(536,163,o),
(509,140,o),
(474,140,cs)
);
},
{
closed = 1;
nodes = (
(1220,895,l),
(1220,1234,l),
(134,1234,l),
(134,895,l)
);
}
);
width = 1353;
}
);
script = khmer;
subCategory = Other;
unicode = 6031;
}
{
category = Letter;
glyphname = "tha-khmer";
kernLeft = KH_CA;
layers = (
{
anchors = (
{
name = bottom;
pos = (619,0);
},
{
name = bottomright;
pos = (991,0);
},
{
name = top;
pos = (619,1234);
},
{
name = topright;
pos = (1006,1234);
}
);
layerId = "B1F27B51-9973-4381-9301-4FE46FE1CA59";
shapes = (
{
closed = 1;
nodes = (
(848,-15,o),
(1006,128,o),
(1006,336,cs),
(1006,955,l),
(934,955,ls),
(817,955,o),
(744,886,o),
(744,771,cs),
(744,651,o),
(817,581,o),
(934,581,cs),
(990,581,l),
(959,612,l),
(959,336,ls),
(959,156,o),
(823,32,o),
(618,32,cs),
(414,32,o),
(279,156,o),
(279,336,cs),
(279,915,ls),
(279,936,o),
(271,945,o),
(254,950,cs),
(145,984,l),
(159,963,l),
(159,1040,ls),
(159,1147,o),
(217,1187,o),
(311,1187,cs),
(911,1187,ls),
(976,1187,o),
(1006,1212,o),
(1006,1274,cs),
(1006,1374,l),
(960,1374,l),
(960,1274,ls),
(960,1246,o),
(950,1234,o),
(912,1234,cs),
(311,1234,ls),
(188,1234,o),
(115,1178,o),
(115,1040,cs),
(115,952,l),
(233,914,l),
(233,336,ls),
(233,128,o),
(389,-15,o),
(618,-15,cs)
);
},
{
closed = 1;
nodes = (
(959,914,l),
(959,621,l),
(931,621,ls),
(841,621,o),
(786,679,o),
(786,771,cs),
(786,859,o),
(843,914,o),
(934,914,cs)
);
}
);
width = 1238;
},
{
anchors = (
{
name = bottom;
pos = (658,0);
},
{
name = bottomright;
pos = (1087,0);
},
{
name = top;
pos = (658,1234);
},
{
name = topright;
pos = (1102,1234);
}
);
hints = (
{
horizontal = 1;
origin = (0,49);
target = (0,16);
type = Stem;
},
{
horizontal = 1;
origin = (1,8);
target = (0,4);
type = Stem;
},
{
horizontal = 1;
origin = (0,40);
target = (0,29);
type = Stem;
},
{
origin = (0,46);
target = (0,19);
type = Stem;
},
{
origin = (0,7);
target = (1,5);
type = Stem;
},
{
origin = (0,44);
target = (0,25);
type = Stem;
},
{
origin = (0,36);
target = (0,33);
type = Stem;
},
{
origin = (0,13);
target = (0,2);
type = Stem;
}
);
layerId = "C698F293-3EC0-4A5A-A3A0-0FDB1F5CF265";
shapes = (
{
closed = 1;
nodes = (
(931,-13,o),
(1102,144,o),
(1102,377,cs),
(1102,920,l),
(915,920,ls),
(769,920,o),
(699,837,o),
(699,709,cs),
(699,582,o),
(777,506,o),
(908,506,cs),
(962,506,l),
(934,562,l),
(934,386,ls),
(934,234,o),
(831,128,o),
(658,128,cs),
(484,128,o),
(381,234,o),
(381,386,cs),
(381,813,ls),
(381,856,o),
(367,871,o),
(325,891,cs),
(205,950,l),
(242,887,l),
(242,974,ls),
(242,1044,o),
(274,1077,o),
(346,1077,cs),
(915,1077,ls),
(1038,1077,o),
(1109,1131,o),
(1109,1247,cs),
(1109,1374,l),
(944,1374,l),
(944,1267,ls),
(944,1243,o),
(935,1234,o),
(910,1234,cs),
(349,1234,ls),
(179,1234,o),
(98,1156,o),
(98,977,cs),
(98,862,l),
(214,801,l),
(214,377,ls),
(214,144,o),
(385,-13,o),
(658,-13,cs)
);
},
{
closed = 1;
nodes = (
(939,809,l),
(939,610,l),
(918,610,ls),
(859,610,o),
(824,647,o),
(824,709,cs),
(824,772,o),
(857,809,o),
(913,809,cs)
);
}
);
width = 1316;
},
{
anchors = (
{
name = bottom;
pos = (676,0);
},
{
name = bottomright;
pos = (1197,0);
},
{
name = top;
pos = (676,1234);
},
{
name = topright;
pos = (1212,1234);
}
);
layerId = "5C20EF92-B63D-42A8-8878-93C2863E0093";
shapes = (
{
closed = 1;
nodes = (
(1010,-15,o),
(1212,142,o),
(1212,407,cs),
(1212,819,l),
(863,819,ls),
(717,819,o),
(645,744,o),
(645,612,cs),
(645,479,o),
(721,405,o),
(847,405,cs),
(854,405,l),
(819,461,l),
(819,416,ls),
(819,335,o),
(756,278,o),
(676,278,cs),
(591,278,o),
(535,335,o),
(535,416,cs),
(535,685,ls),
(535,756,o),
(496,773,o),
(448,789,cs),
(283,843,l),
(335,736,l),
(335,838,ls),
(335,876,o),
(357,895,o),
(402,895,cs),
(943,895,ls),
(1121,895,o),
(1219,993,o),
(1219,1171,cs),
(1219,1336,l),
(832,1336,l),
(832,1254,ls),
(832,1237,o),
(824,1234,o),
(811,1234,cs),
(370,1234,ls),
(109,1234,o),
(42,1097,o),
(42,907,cs),
(42,737,l),
(140,693,l),
(140,407,ls),
(140,142,o),
(337,-15,o),
(676,-15,cs)
);
},
{
closed = 1;
nodes = (
(891,679,l),
(891,539,l),
(880,539,ls),
(832,539,o),
(817,576,o),
(817,612,cs),
(817,656,o),
(844,679,o),
(879,679,cs)
);
}
);
width = 1353;
}
);
script = khmer;
subCategory = Other;
unicode = 6032;
}
{
category = Letter;
glyphname = "to-khmer";
kernLeft = KH_TO;
kernRight = KH_TO;
layers = (
{
anchors = (
{
name = bottom;
pos = (566,0);
},
{
name = bottomright;
pos = (855,0);
},
{
name = top;
pos = (573,1234);
},
{
name = topright;
pos = (958,1234);
}
);
background = {
anchors = (
{
name = bottom;
pos = (576,0);
},
{
name = bottomright;
pos = (875,0);
},
{
name = top;
pos = (573,1234);
},
{
name = topright;
pos = (958,1234);
}
);
shapes = (
{
closed = 1;
nodes = (
(825,505,l),
(471,562,o),
(237,655,o),
(237,908,cs),
(237,1082,o),
(362,1202,o),
(573,1202,cs),
(767,1202,o),
(889,1108,o),
(935,946,c),
(979,960,l),
(932,1134,o),
(792,1249,o),
(573,1249,cs),
(338,1249,o),
(191,1110,o),
(191,910,cs),
(191,627,o),
(437,522,o),
(825,461,c)
);
},
{
closed = 1;
nodes = (
(759,-15,o),
(885,94,o),
(885,252,c),
(865,478,l),
(850,458,l),
(892,458,ls),
(972,458,o),
(1022,511,o),
(1022,597,cs),
(1022,680,o),
(972,731,o),
(892,731,cs),
(819,731,l),
(819,485,l),
(839,252,l),
(839,122,o),
(731,31,o),
(575,31,cs),
(418,31,o),
(311,122,o),
(311,252,cs),
(311,413,l),
(264,413,l),
(264,252,ls),
(264,94,o),
(390,-15,o),
(575,-15,cs)
);
},
{
closed = 1;
nodes = (
(865,499,l),
(865,690,l),
(892,690,ls),
(947,690,o),
(980,655,o),
(980,597,cs),
(980,536,o),
(948,499,o),
(895,499,cs)
);
}
);
};
layerId = "B1F27B51-9973-4381-9301-4FE46FE1CA59";
shapes = (
{
closed = 1;
nodes = (
(825,505,l),
(471,562,o),
(237,655,o),
(237,908,cs),
(237,1082,o),
(362,1202,o),
(573,1202,cs),
(767,1202,o),
(889,1108,o),
(935,946,c),
(979,960,l),
(932,1134,o),
(792,1249,o),
(573,1249,cs),
(338,1249,o),
(191,1110,o),
(191,910,cs),
(191,627,o),
(437,522,o),
(825,461,c)
);
},
{
closed = 1;
nodes = (
(743,-15,o),
(865,94,o),
(865,252,cs),
(865,478,l),
(850,458,l),
(892,458,ls),
(972,458,o),
(1022,511,o),
(1022,597,cs),
(1022,680,o),
(972,731,o),
(892,731,cs),
(819,731,l),
(819,485,l),
(819,252,ls),
(819,122,o),
(715,31,o),
(565,31,cs),
(414,31,o),
(311,122,o),
(311,252,cs),
(311,413,l),
(264,413,l),
(264,252,ls),
(264,94,o),
(386,-15,o),
(565,-15,cs)
);
},
{
closed = 1;
nodes = (
(865,499,l),
(865,690,l),
(892,690,ls),
(947,690,o),
(980,655,o),
(980,597,cs),
(980,536,o),
(948,499,o),
(895,499,cs)
);
}
);
width = 1174;
},
{
anchors = (
{
name = bottom;
pos = (570,0);
},
{
name = bottomright;
pos = (911,0);
},
{
name = top;
pos = (586,1234);
},
{
name = topright;
pos = (998,1234);
}
);
background = {
anchors = (
{
name = bottom;
pos = (580,0);
},
{
name = bottomright;
pos = (932,0);
},
{
name = top;
pos = (586,1234);
},
{
name = topright;
pos = (998,1234);
}
);
hints = (
{
horizontal = 1;
origin = (1,26);
target = (1,17);
type = Stem;
},
{
horizontal = 1;
origin = (2,1);
target = (1,12);
type = Stem;
},
{
horizontal = 1;
origin = (0,13);
target = (0,6);
type = Stem;
},
{
origin = (1,23);
target = (1,20);
type = Stem;
},
{
origin = (1,14);
target = (1,2);
type = Stem;
},
{
origin = (2,5);
target = (1,8);
type = Stem;
},
{
origin = (0,16);
target = (0,3);
type = Stem;
}
);
shapes = (
{
closed = 1;
nodes = (
(784,552,l),
(496,592,o),
(323,677,o),
(323,866,cs),
(323,1007,o),
(420,1099,o),
(588,1099,cs),
(740,1099,o),
(835,1022,o),
(864,894,c),
(1041,920,l),
(1006,1139,o),
(828,1249,o),
(588,1249,cs),
(305,1249,o),
(146,1094,o),
(146,867,cs),
(146,607,o),
(357,472,o),
(784,424,c)
);
},
{
closed = 1;
nodes = (
(800,-15,o),
(932,107,o),
(932,285,c),
(912,465,l),
(856,412,l),
(898,412,ls),
(1007,412,o),
(1075,473,o),
(1075,576,cs),
(1075,679,o),
(1010,739,o),
(900,739,cs),
(746,739,l),
(746,498,l),
(768,293,l),
(768,196,o),
(707,131,o),
(581,131,cs),
(457,131,o),
(389,196,o),
(389,293,cs),
(389,410,l),
(223,410,l),
(223,285,ls),
(223,107,o),
(356,-15,o),
(578,-15,cs)
);
},
{
closed = 1;
nodes = (
(876,507,l),
(876,647,l),
(893,647,ls),
(932,647,o),
(960,619,o),
(960,576,cs),
(960,534,o),
(933,507,o),
(893,507,cs)
);
}
);
};
hints = (
{
horizontal = 1;
origin = (1,26);
target = (1,17);
type = Stem;
},
{
horizontal = 1;
origin = (2,1);
target = (1,12);
type = Stem;
},
{
horizontal = 1;
origin = (0,13);
target = (0,6);
type = Stem;
},
{
origin = (1,23);
target = (1,20);
type = Stem;
},
{
origin = (1,14);
target = (1,2);
type = Stem;
},
{
origin = (2,5);
target = (1,8);
type = Stem;
},
{
origin = (0,16);
target = (0,3);
type = Stem;
}
);
layerId = "C698F293-3EC0-4A5A-A3A0-0FDB1F5CF265";
shapes = (
{
closed = 1;
nodes = (
(784,552,l),
(496,592,o),
(323,677,o),
(323,866,cs),
(323,1007,o),
(420,1099,o),
(588,1099,cs),
(740,1099,o),
(835,1022,o),
(864,894,c),
(1041,920,l),
(1006,1139,o),
(828,1249,o),
(588,1249,cs),
(305,1249,o),
(146,1094,o),
(146,867,cs),
(146,607,o),
(357,472,o),
(784,424,c)
);
},
{
closed = 1;
nodes = (
(783,-15,o),
(917,107,o),
(917,285,cs),
(917,465,l),
(861,412,l),
(912,412,ls),
(1021,412,o),
(1080,473,o),
(1080,576,cs),
(1080,679,o),
(1021,739,o),
(911,739,cs),
(751,739,l),
(751,498,l),
(751,293,ls),
(751,196,o),
(688,131,o),
(570,131,cs),
(452,131,o),
(388,196,o),
(388,293,cs),
(388,410,l),
(222,410,l),
(222,285,ls),
(222,107,o),
(351,-15,o),
(567,-15,cs)
);
},
{
closed = 1;
nodes = (
(894,509,l),
(894,645,l),
(909,645,ls),
(948,645,o),
(974,619,o),
(974,576,cs),
(974,534,o),
(949,509,o),
(909,509,cs)
);
}
);
width = 1223;
},
{
anchors = (
{
name = bottom;
pos = (647,0);
},
{
name = bottomright;
pos = (1116,0);
},
{
name = top;
pos = (637,1234);
},
{
name = topright;
pos = (1154,1234);
}
);
background = {
anchors = (
{
name = bottom;
pos = (645,0);
},
{
name = bottomright;
pos = (1105,0);
},
{
name = top;
pos = (637,1234);
},
{
name = topright;
pos = (1154,1234);
}
);
shapes = (
{
closed = 1;
nodes = (
(878,637,l),
(602,660,o),
(499,701,o),
(499,826,cs),
(499,908,o),
(559,955,o),
(634,955,cs),
(726,955,o),
(777,896,o),
(783,812,c),
(1176,812,l),
(1169,1090,o),
(971,1249,o),
(634,1249,cs),
(335,1249,o),
(96,1123,o),
(96,839,cs),
(96,597,o),
(266,450,o),
(859,426,c)
);
},
{
closed = 1;
nodes = (
(947,-15,o),
(1115,101,o),
(1115,331,c),
(1095,440,l),
(1027,358,l),
(1049,358,ls),
(1147,358,o),
(1213,439,o),
(1213,535,cs),
(1213,641,o),
(1147,714,o),
(1005,714,cs),
(851,714,l),
(757,592,l),
(770,355,l),
(770,290,o),
(716,252,o),
(653,252,cs),
(587,252,o),
(537,290,o),
(537,355,cs),
(537,403,l),
(154,403,l),
(154,331,ls),
(154,101,o),
(326,-15,o),
(645,-15,cs)
);
},
{
closed = 1;
nodes = (
(995,461,l),
(995,586,l),
(1005,586,ls),
(1041,586,o),
(1067,561,o),
(1067,523,cs),
(1067,486,o),
(1041,461,o),
(1005,461,cs)
);
}
);
};
layerId = "5C20EF92-B63D-42A8-8878-93C2863E0093";
shapes = (
{
closed = 1;
nodes = (
(878,637,l),
(602,660,o),
(499,701,o),
(499,826,cs),
(499,908,o),
(559,955,o),
(634,955,cs),
(726,955,o),
(777,896,o),
(783,812,c),
(1176,812,l),
(1169,1090,o),
(971,1249,o),
(634,1249,cs),
(335,1249,o),
(96,1123,o),
(96,839,cs),
(96,597,o),
(266,450,o),
(859,426,c)
);
},
{
closed = 1;
nodes = (
(955,-15,o),
(1122,101,o),
(1122,331,cs),
(1122,440,l),
(1021,358,l),
(1043,358,ls),
(1141,358,o),
(1207,439,o),
(1207,535,cs),
(1207,641,o),
(1141,714,o),
(999,714,cs),
(845,714,l),
(744,592,l),
(744,355,ls),
(744,296,o),
(704,261,o),
(647,261,cs),
(587,261,o),
(551,296,o),
(551,355,cs),
(551,403,l),
(158,403,l),
(158,331,ls),
(158,101,o),
(320,-15,o),
(639,-15,cs)
);
},
{
closed = 1;
nodes = (
(990,461,l),
(990,586,l),
(1000,586,ls),
(1036,586,o),
(1062,561,o),
(1062,523,cs),
(1062,486,o),
(1036,461,o),
(1000,461,cs)
);
}
);
width = 1305;
},
{
anchors = (
{
name = bottom;
pos = (560,0);
},
{
name = bottomright;
pos = (886,0);
},
{
name = top;
pos = (586,1234);
},
{
name = topright;
pos = (998,1234);
}
);
associatedMasterId = "C698F293-3EC0-4A5A-A3A0-0FDB1F5CF265";
color = 6;
hints = (
{
horizontal = 1;
origin = (1,26);
target = (1,17);
type = Stem;
},
{
horizontal = 1;
origin = (2,1);
target = (1,12);
type = Stem;
},
{
horizontal = 1;
origin = (0,13);
target = (0,6);
type = Stem;
},
{
origin = (1,23);
target = (1,20);
type = Stem;
},
{
origin = (1,14);
target = (1,2);
type = Stem;
},
{
origin = (2,5);
target = (1,8);
type = Stem;
},
{
origin = (0,16);
target = (0,3);
type = Stem;
}
);
layerId = "EA046B4A-2E7C-4039-A8C2-036A1BCDAD63";
name = "21 Oct 22, 09:12";
shapes = (
{
closed = 1;
nodes = (
(784,552,l),
(496,592,o),
(323,677,o),
(323,866,cs),
(323,1007,o),
(420,1099,o),
(588,1099,cs),
(740,1099,o),
(835,1022,o),
(864,894,c),
(1041,920,l),
(1006,1139,o),
(828,1249,o),
(588,1249,cs),
(305,1249,o),
(146,1094,o),
(146,867,cs),
(146,607,o),
(357,472,o),
(784,424,c)
);
},
{
closed = 1;
nodes = (
(773,-15,o),
(907,107,o),
(907,285,cs),
(907,465,l),
(851,412,l),
(902,412,ls),
(1011,412,o),
(1070,473,o),
(1070,576,cs),
(1070,679,o),
(1011,739,o),
(901,739,cs),
(741,739,l),
(741,498,l),
(741,293,ls),
(741,196,o),
(678,131,o),
(560,131,cs),
(442,131,o),
(378,196,o),
(378,293,cs),
(378,410,l),
(212,410,l),
(212,285,ls),
(212,107,o),
(341,-15,o),
(557,-15,cs)
);
},
{
closed = 1;
nodes = (
(884,509,l),
(884,645,l),
(899,645,ls),
(938,645,o),
(964,619,o),
(964,576,cs),
(964,534,o),
(939,509,o),
(899,509,cs)
);
}
);
width = 1211;
}
);
script = khmer;
subCategory = Other;
unicode = 6033;
}
{
category = Letter;
glyphname = "no-khmer";
kernLeft = KH_NO;
kernRight = KH_NO;
layers = (
{
anchors = (
{
name = bottom;
pos = (587,0);
},
{
name = bottomright;
pos = (967,0);
},
{
name = top;
pos = (580,1234);
},
{
name = topright;
pos = (960,1234);
}
);
layerId = "B1F27B51-9973-4381-9301-4FE46FE1CA59";
shapes = (
{
closed = 1;
nodes = (
(844,-15,o),
(982,101,o),
(982,318,cs),
(982,492,o),
(895,594,o),
(698,624,cs),
(502,653,ls),
(346,677,o),
(237,740,o),
(237,907,cs),
(237,1082,o),
(362,1202,o),
(573,1202,cs),
(767,1202,o),
(889,1108,o),
(935,946,c),
(979,960,l),
(934,1134,o),
(792,1249,o),
(573,1249,cs),
(338,1249,o),
(191,1110,o),
(191,909,cs),
(191,712,o),
(319,636,o),
(495,609,cs),
(691,579,ls),
(859,554,o),
(935,472,o),
(935,318,cs),
(935,129,o),
(819,31,o),
(645,31,cs),
(453,31,o),
(252,168,o),
(252,405,cs),
(252,442,l),
(207,442,l),
(207,0,l),
(252,0,l),
(252,231,l),
(259,231,l),
(314,88,o),
(456,-15,o),
(645,-15,cs)
);
}
);
width = 1174;
},
{
anchors = (
{
name = bottom;
pos = (634,0);
},
{
name = bottomright;
pos = (1043,0);
},
{
name = top;
pos = (655,1234);
},
{
name = topright;
pos = (1061,1234);
}
);
hints = (
{
horizontal = 1;
origin = (0,44);
target = (0,32);
type = Stem;
},
{
horizontal = 1;
origin = (0,19);
target = (0,12);
type = Stem;
},
{
horizontal = 1;
origin = (0,38);
target = up;
type = BottomGhost;
},
{
origin = (0,29);
target = (0,2);
type = Stem;
},
{
origin = (0,22);
target = (0,9);
type = Stem;
},
{
origin = (0,38);
target = (0,35);
type = Stem;
}
);
layerId = "C698F293-3EC0-4A5A-A3A0-0FDB1F5CF265";
shapes = (
{
closed = 1;
nodes = (
(950,-15,o),
(1105,94,o),
(1105,329,cs),
(1105,542,o),
(993,647,o),
(776,669,cs),
(588,689,ls),
(465,702,o),
(371,765,o),
(371,885,cs),
(371,1011,o),
(480,1097,o),
(639,1097,cs),
(798,1097,o),
(902,1007,o),
(921,886,c),
(1094,917,l),
(1065,1109,o),
(905,1249,o),
(639,1249,cs),
(370,1249,o),
(194,1105,o),
(194,885,cs),
(194,679,o),
(330,561,o),
(559,537,cs),
(763,516,ls),
(853,506,o),
(930,467,o),
(930,334,cs),
(930,204,o),
(850,137,o),
(710,137,cs),
(523,137,o),
(381,269,o),
(381,401,cs),
(381,426,l),
(217,426,l),
(217,0,l),
(380,0,l),
(380,167,l),
(389,167,l),
(439,63,o),
(545,-15,o),
(735,-15,cs)
);
}
);
width = 1276;
},
{
anchors = (
{
name = bottom;
pos = (659,0);
},
{
name = bottomright;
pos = (1160,0);
},
{
name = top;
pos = (669,1234);
},
{
name = topright;
pos = (1191,1234);
}
);
layerId = "5C20EF92-B63D-42A8-8878-93C2863E0093";
shapes = (
{
closed = 1;
nodes = (
(1053,-15,o),
(1190,101,o),
(1190,328,cs),
(1190,546,o),
(1064,667,o),
(816,688,cs),
(668,701,ls),
(566,710,o),
(506,754,o),
(506,832,cs),
(506,911,o),
(565,955,o),
(642,955,cs),
(731,955,o),
(784,900,o),
(790,812,c),
(1183,812,l),
(1176,1091,o),
(978,1249,o),
(641,1249,cs),
(342,1249,o),
(103,1123,o),
(103,839,cs),
(103,597,o),
(274,493,o),
(510,469,cs),
(645,455,ls),
(753,445,o),
(797,400,o),
(797,338,cs),
(797,268,o),
(740,224,o),
(664,224,cs),
(582,224,o),
(535,275,o),
(535,351,cs),
(535,403,l),
(142,403,l),
(142,0,l),
(520,0,l),
(520,116,l),
(531,116,l),
(567,55,o),
(642,-15,o),
(827,-15,cs)
);
}
);
width = 1298;
}
);
script = khmer;
subCategory = Other;
unicode = 6035;
}
{
category = Letter;
glyphname = "ba-khmer";
kernLeft = KH_BA;
layers = (
{
anchors = (
{
name = bottom;
pos = (612,0);
},
{
name = bottomright;
pos = (976,0);
},
{
name = indpTail;
pos = (991,73);
},
{
name = top;
pos = (612,1234);
},
{
name = topright;
pos = (991,1234);
}
);
layerId = "B1F27B51-9973-4381-9301-4FE46FE1CA59";
shapes = (
{
closed = 1;
nodes = (
(836,-15,o),
(991,124,o),
(991,329,cs),
(991,896,ls),
(991,917,o),
(982,926,o),
(966,931,cs),
(819,984,l),
(832,963,l),
(832,1047,ls),
(832,1150,o),
(885,1187,o),
(970,1187,cs),
(1052,1187,l),
(1052,1234,l),
(970,1234,ls),
(856,1234,o),
(789,1180,o),
(789,1047,cs),
(789,952,l),
(944,896,l),
(944,329,ls),
(944,153,o),
(812,32,o),
(611,32,cs),
(410,32,o),
(279,153,o),
(279,329,cs),
(279,896,ls),
(279,917,o),
(271,926,o),
(254,931,cs),
(107,984,l),
(121,963,l),
(121,1047,ls),
(121,1150,o),
(173,1187,o),
(258,1187,cs),
(341,1187,l),
(341,1234,l),
(258,1234,ls),
(145,1234,o),
(77,1180,o),
(77,1047,cs),
(77,952,l),
(233,896,l),
(233,329,ls),
(233,124,o),
(386,-15,o),
(611,-15,cs)
);
}
);
width = 1224;
},
{
anchors = (
{
name = bottom;
pos = (653,0);
},
{
name = bottomright;
pos = (1080,0);
},
{
name = indpTail;
pos = (1094,73);
},
{
name = top;
pos = (655,1234);
},
{
name = topright;
pos = (1094,1234);
}
);
hints = (
{
horizontal = 1;
origin = (0,49);
target = (0,24);
type = Stem;
},
{
horizontal = 1;
origin = (0,40);
target = (0,37);
type = Stem;
},
{
origin = (0,46);
target = (0,27);
type = Stem;
},
{
origin = (0,21);
target = (0,2);
type = Stem;
},
{
origin = (0,19);
target = (0,8);
type = Stem;
},
{
origin = (0,44);
target = (0,33);
type = Stem;
}
);
layerId = "C698F293-3EC0-4A5A-A3A0-0FDB1F5CF265";
shapes = (
{
closed = 1;
nodes = (
(916,-13,o),
(1094,148,o),
(1094,386,cs),
(1094,821,ls),
(1094,864,o),
(1081,880,o),
(1038,899,cs),
(927,947,l),
(940,887,l),
(940,970,ls),
(940,1043,o),
(970,1077,o),
(1048,1077,cs),
(1135,1077,l),
(1135,1234,l),
(1044,1234,ls),
(876,1234,o),
(796,1156,o),
(796,977,cs),
(796,862,l),
(927,807,l),
(927,394,ls),
(927,242,o),
(816,138,o),
(654,138,cs),
(492,138,o),
(381,242,o),
(381,394,cs),
(381,821,ls),
(381,864,o),
(367,880,o),
(325,899,cs),
(214,947,l),
(227,887,l),
(227,970,ls),
(227,1043,o),
(257,1077,o),
(335,1077,cs),
(422,1077,l),
(422,1234,l),
(331,1234,ls),
(163,1234,o),
(83,1156,o),
(83,977,cs),
(83,862,l),
(214,807,l),
(214,386,ls),
(214,148,o),
(392,-13,o),
(654,-13,cs)
);
}
);
width = 1308;
},
{
anchors = (
{
name = bottom;
pos = (675,0);
},
{
name = bottomright;
pos = (1196,0);
},
{
name = indpTail;
pos = (1211,73);
},
{
name = top;
pos = (679,1234);
},
{
name = topright;
pos = (1210,1234);
}
);
layerId = "5C20EF92-B63D-42A8-8878-93C2863E0093";
shapes = (
{
closed = 1;
nodes = (
(1026,-15,o),
(1211,144,o),
(1211,403,cs),
(1211,685,ls),
(1211,750,o),
(1182,770,o),
(1125,789,cs),
(960,843,l),
(1008,736,l),
(1008,838,ls),
(1008,876,o),
(1029,895,o),
(1069,895,cs),
(1254,895,l),
(1254,1234,l),
(1044,1234,ls),
(787,1234,o),
(720,1097,o),
(720,907,cs),
(720,734,l),
(817,690,l),
(817,418,ls),
(817,334,o),
(761,278,o),
(675,278,cs),
(588,278,o),
(534,334,o),
(534,418,cs),
(534,685,ls),
(534,750,o),
(505,770,o),
(447,789,cs),
(282,843,l),
(332,736,l),
(332,838,ls),
(332,876,o),
(352,895,o),
(391,895,cs),
(578,895,l),
(578,1234,l),
(367,1234,ls),
(98,1234,o),
(44,1082,o),
(44,907,cs),
(44,734,l),
(140,690,l),
(140,403,ls),
(140,144,o),
(324,-15,o),
(675,-15,cs)
);
}
);
width = 1352;
}
);
script = khmer;
subCategory = Other;
unicode = 6036;
}
{
category = Letter;
glyphname = "pha-khmer";
kernLeft = KH_CA;
layers = (
{
anchors = (
{
name = bottom;
pos = (619,0);
},
{
name = bottomright;
pos = (1006,0);
},
{
name = top;
pos = (619,1234);
},
{
name = topright;
pos = (1006,1234);
}
);
layerId = "B1F27B51-9973-4381-9301-4FE46FE1CA59";
shapes = (
{
closed = 1;
nodes = (
(278,0,l),
(619,375,l),
(960,0,l),
(1006,0,l),
(1006,955,l),
(934,955,ls),
(817,955,o),
(744,886,o),
(744,771,cs),
(744,651,o),
(817,581,o),
(934,581,cs),
(990,581,l),
(959,612,l),
(959,71,l),
(956,71,l),
(634,424,l),
(605,424,l),
(282,71,l),
(279,71,l),
(279,915,ls),
(279,936,o),
(271,945,o),
(254,950,cs),
(145,984,l),
(159,963,l),
(159,1040,ls),
(159,1147,o),
(217,1187,o),
(311,1187,cs),
(911,1187,ls),
(976,1187,o),
(1006,1212,o),
(1006,1274,cs),
(1006,1374,l),
(960,1374,l),
(960,1274,ls),
(960,1246,o),
(950,1234,o),
(912,1234,cs),
(311,1234,ls),
(188,1234,o),
(115,1178,o),
(115,1040,cs),
(115,952,l),
(233,914,l),
(233,0,l)
);
},
{
closed = 1;
nodes = (
(841,621,o),
(786,679,o),
(786,771,cs),
(786,859,o),
(843,914,o),
(934,914,cs),
(959,914,l),
(959,621,l),
(931,621,ls)
);
}
);
width = 1238;
},
{
anchors = (
{
name = bottom;
pos = (658,0);
},
{
name = bottomright;
pos = (1102,0);
},
{
name = top;
pos = (658,1234);
},
{
name = topright;
pos = (1102,1234);
}
);
hints = (
{
horizontal = 1;
origin = (0,46);
target = up;
type = BottomGhost;
},
{
horizontal = 1;
origin = (1,5);
target = (0,5);
type = Stem;
},
{
horizontal = 1;
origin = (0,40);
target = (0,29);
type = Stem;
},
{
origin = (0,46);
target = (0,0);
type = Stem;
},
{
origin = (0,8);
target = (1,2);
type = Stem;
},
{
origin = (0,2);
target = (0,3);
type = Stem;
},
{
origin = (0,44);
target = (0,25);
type = Stem;
},
{
origin = (0,36);
target = (0,33);
type = Stem;
}
);
layerId = "C698F293-3EC0-4A5A-A3A0-0FDB1F5CF265";
shapes = (
{
closed = 1;
nodes = (
(381,0,l),
(658,269,l),
(934,0,l),
(1102,0,l),
(1102,920,l),
(915,920,ls),
(769,920,o),
(699,837,o),
(699,709,cs),
(699,582,o),
(777,506,o),
(908,506,cs),
(962,506,l),
(934,562,l),
(934,201,l),
(927,201,l),
(693,424,l),
(623,424,l),
(389,201,l),
(381,201,l),
(381,813,ls),
(381,856,o),
(367,871,o),
(325,891,cs),
(205,950,l),
(242,887,l),
(242,974,ls),
(242,1044,o),
(274,1077,o),
(346,1077,cs),
(915,1077,ls),
(1038,1077,o),
(1109,1131,o),
(1109,1247,cs),
(1109,1374,l),
(944,1374,l),
(944,1267,ls),
(944,1243,o),
(935,1234,o),
(910,1234,cs),
(349,1234,ls),
(179,1234,o),
(98,1156,o),
(98,977,cs),
(98,862,l),
(214,801,l),
(214,0,l)
);
},
{
closed = 1;
nodes = (
(859,610,o),
(824,647,o),
(824,709,cs),
(824,772,o),
(857,809,o),
(913,809,cs),
(939,809,l),
(939,610,l),
(918,610,ls)
);
}
);
width = 1316;
},
{
anchors = (
{
name = bottom;
pos = (676,0);
},
{
name = bottomright;
pos = (1212,0);
},
{
name = top;
pos = (676,1234);
},
{
name = topright;
pos = (1212,1234);
}
);
layerId = "5C20EF92-B63D-42A8-8878-93C2863E0093";
shapes = (
{
closed = 1;
nodes = (
(530,0,l),
(676,154,l),
(821,0,l),
(1212,0,l),
(1212,819,l),
(863,819,ls),
(717,819,o),
(645,744,o),
(645,612,cs),
(645,479,o),
(721,405,o),
(847,405,cs),
(854,405,l),
(817,461,l),
(817,276,l),
(808,276,l),
(705,377,l),
(647,377,l),
(544,276,l),
(535,276,l),
(535,685,ls),
(535,756,o),
(496,773,o),
(448,789,cs),
(283,843,l),
(335,736,l),
(335,838,ls),
(335,876,o),
(357,895,o),
(402,895,cs),
(943,895,ls),
(1121,895,o),
(1219,993,o),
(1219,1171,cs),
(1219,1336,l),
(832,1336,l),
(832,1254,ls),
(832,1237,o),
(824,1234,o),
(811,1234,cs),
(370,1234,ls),
(109,1234,o),
(42,1097,o),
(42,907,cs),
(42,737,l),
(140,693,l),
(140,0,l)
);
},
{
closed = 1;
nodes = (
(832,539,o),
(817,576,o),
(817,612,cs),
(817,656,o),
(844,679,o),
(879,679,cs),
(891,679,l),
(891,539,l),
(880,539,ls)
);
}
);
width = 1353;
}
);
script = khmer;
subCategory = Other;
unicode = 6037;
}
{
category = Letter;
glyphname = "po-khmer";
kernLeft = KH_PO;
layers = (
{
anchors = (
{
name = bottom;
pos = (619,0);
},
{
name = bottomright;
pos = (1006,0);
},
{
name = indpTail;
pos = (1006,73);
},
{
name = top;
pos = (619,1234);
},
{
name = topright;
pos = (1006,1234);
}
);
layerId = "B1F27B51-9973-4381-9301-4FE46FE1CA59";
shapes = (
{
closed = 1;
nodes = (
(304,0,ls),
(421,0,o),
(495,68,o),
(495,184,cs),
(495,303,o),
(421,374,o),
(304,374,cs),
(249,374,l),
(279,343,l),
(279,1102,ls),
(279,1163,o),
(307,1197,o),
(354,1197,cs),
(404,1197,o),
(443,1171,o),
(505,1107,cs),
(616,989,l),
(622,989,l),
(733,1107,ls),
(795,1171,o),
(835,1197,o),
(884,1197,cs),
(931,1197,o),
(959,1163,o),
(959,1102,cs),
(959,0,l),
(1006,0,l),
(1006,1102,ls),
(1006,1190,o),
(960,1239,o),
(884,1239,cs),
(822,1239,o),
(774,1213,o),
(701,1134,cs),
(619,1045,l),
(537,1134,ls),
(464,1213,o),
(416,1239,o),
(354,1239,cs),
(278,1239,o),
(233,1190,o),
(233,1102,cs),
(233,0,l)
);
},
{
closed = 1;
nodes = (
(279,333,l),
(307,333,ls),
(397,333,o),
(453,276,o),
(453,184,cs),
(453,96,o),
(396,41,o),
(304,41,cs),
(279,41,l)
);
}
);
width = 1238;
},
{
anchors = (
{
name = bottom;
pos = (680,0);
},
{
name = bottomright;
pos = (1220,0);
},
{
name = indpTail;
pos = (1220,73);
},
{
name = top;
pos = (680,1234);
},
{
name = topright;
pos = (1220,1234);
}
);
layerId = "5C20EF92-B63D-42A8-8878-93C2863E0093";
shapes = (
{
closed = 1;
nodes = (
(490,0,ls),
(635,0,o),
(709,74,o),
(709,207,cs),
(709,340,o),
(632,414,o),
(506,414,cs),
(500,414,l),
(536,357,l),
(536,913,ls),
(536,938,o),
(549,952,o),
(571,952,cs),
(594,952,o),
(615,938,o),
(639,914,cs),
(669,883,l),
(691,883,l),
(722,914,ls),
(749,942,o),
(769,952,o),
(789,952,cs),
(811,952,o),
(825,938,o),
(825,913,cs),
(825,0,l),
(1220,0,l),
(1220,1010,ls),
(1220,1158,o),
(1126,1240,o),
(970,1240,cs),
(876,1240,o),
(803,1227,o),
(701,1147,cs),
(680,1131,l),
(660,1147,ls),
(568,1220,o),
(497,1240,o),
(391,1240,cs),
(234,1240,o),
(141,1158,o),
(141,1010,cs),
(141,0,l)
);
},
{
closed = 1;
nodes = (
(462,279,l),
(472,279,ls),
(521,279,o),
(536,244,o),
(536,207,cs),
(536,163,o),
(509,140,o),
(474,140,cs),
(462,140,l)
);
}
);
width = 1361;
},
{
anchors = (
{
name = bottom;
pos = (658,0);
},
{
name = bottomright;
pos = (1102,0);
},
{
name = indpTail;
pos = (1102,73);
},
{
name = top;
pos = (658,1234);
},
{
name = topright;
pos = (1087,1234);
}
);
hints = (
{
horizontal = 1;
origin = (0,42);
target = (1,8);
type = Stem;
},
{
horizontal = 1;
origin = (0,38);
target = (0,12);
type = Stem;
},
{
origin = (0,42);
target = (0,8);
type = Stem;
},
{
origin = (1,4);
target = (0,3);
type = Stem;
},
{
origin = (0,25);
target = (0,26);
type = Stem;
},
{
origin = (0,42);
target = (1,8);
type = Stem;
}
);
layerId = "C698F293-3EC0-4A5A-A3A0-0FDB1F5CF265";
shapes = (
{
closed = 1;
nodes = (
(400,0,ls),
(546,0,o),
(617,83,o),
(617,210,cs),
(617,338,o),
(538,413,o),
(407,413,cs),
(354,413,l),
(381,357,l),
(381,1008,ls),
(381,1057,o),
(407,1084,o),
(450,1084,cs),
(489,1084,o),
(526,1058,o),
(578,1008,cs),
(638,952,l),
(677,952,l),
(737,1008,ls),
(791,1059,o),
(827,1084,o),
(866,1084,cs),
(909,1084,o),
(934,1057,o),
(934,1008,cs),
(934,0,l),
(1102,0,l),
(1102,1041,ls),
(1102,1169,o),
(1030,1240,o),
(910,1240,cs),
(846,1240,o),
(789,1225,o),
(700,1147,cs),
(658,1110,l),
(616,1147,ls),
(526,1225,o),
(469,1240,o),
(406,1240,cs),
(286,1240,o),
(214,1169,o),
(214,1041,cs),
(214,0,l)
);
},
{
closed = 1;
nodes = (
(377,310,l),
(398,310,ls),
(457,310,o),
(492,273,o),
(492,210,cs),
(492,148,o),
(458,111,o),
(402,111,cs),
(377,111,l)
);
}
);
width = 1316;
}
);
script = khmer;
subCategory = Other;
unicode = 6038;
}
{
category = Letter;
glyphname = "pho-khmer";
kernLeft = KH_PHO;
layers = (
{
anchors = (
{
name = bottom;
pos = (629,0);
},
{
name = bottomright;
pos = (1020,0);
},
{
name = top;
pos = (629,1234);
},
{
name = topright;
pos = (1020,1234);
}
);
layerId = "B1F27B51-9973-4381-9301-4FE46FE1CA59";
shapes = (
{
closed = 1;
nodes = (
(294,0,l),
(294,582,ls),
(294,783,o),
(422,908,o),
(634,908,cs),
(846,908,o),
(974,783,o),
(974,582,cs),
(974,0,l),
(1020,0,l),
(1020,582,ls),
(1020,811,o),
(870,955,o),
(634,955,cs),
(397,955,o),
(247,811,o),
(247,582,cs),
(247,328,l),
(276,359,l),
(224,359,ls),
(124,359,o),
(63,292,o),
(63,177,cs),
(63,65,o),
(124,0,o),
(224,0,cs)
);
},
{
closed = 1;
nodes = (
(150,41,o),
(105,93,o),
(105,177,cs),
(105,264,o),
(148,319,o),
(221,319,cs),
(249,319,l),
(249,41,l),
(224,41,ls)
);
},
{
closed = 1;
nodes = (
(1027,1187,l),
(1027,1234,l),
(240,1234,l),
(240,1187,l)
);
}
);
width = 1253;
},
{
anchors = (
{
name = bottom;
pos = (661,0);
},
{
name = bottomright;
pos = (1105,0);
},
{
name = top;
pos = (661,1234);
},
{
name = topright;
pos = (1105,1234);
}
);
hints = (
{
horizontal = 1;
origin = (0,25);
target = (1,8);
type = Stem;
},
{
horizontal = 1;
origin = (0,4);
target = (0,13);
type = Stem;
},
{
horizontal = 1;
origin = (2,2);
target = (2,3);
type = Stem;
},
{
origin = (0,22);
target = (1,2);
type = Stem;
},
{
origin = (0,8);
target = (0,9);
type = Stem;
},
{
origin = (0,17);
target = (0,0);
type = Stem;
}
);
layerId = "C698F293-3EC0-4A5A-A3A0-0FDB1F5CF265";
shapes = (
{
closed = 1;
nodes = (
(399,0,l),
(399,505,ls),
(399,661,o),
(508,768,o),
(668,768,cs),
(828,768,o),
(937,661,o),
(937,505,cs),
(937,0,l),
(1105,0,l),
(1105,514,ls),
(1105,755,o),
(928,920,o),
(668,920,cs),
(408,920,o),
(231,755,o),
(231,514,cs),
(231,357,l),
(275,413,l),
(250,413,ls),
(120,413,o),
(44,338,o),
(44,210,cs),
(44,78,o),
(120,0,o),
(250,0,cs)
);
},
{
closed = 1;
nodes = (
(196,111,o),
(160,151,o),
(160,210,cs),
(160,269,o),
(196,310,o),
(249,310,cs),
(255,310,l),
(255,111,l),
(249,111,ls)
);
},
{
closed = 1;
nodes = (
(1112,1077,l),
(1112,1234,l),
(210,1234,l),
(210,1077,l)
);
}
);
width = 1318;
},
{
anchors = (
{
name = bottom;
pos = (696,0);
},
{
name = bottomright;
pos = (1234,0);
},
{
name = top;
pos = (696,1234);
},
{
name = topright;
pos = (1234,1234);
}
);
layerId = "5C20EF92-B63D-42A8-8878-93C2863E0093";
shapes = (
{
closed = 1;
nodes = (
(554,0,l),
(554,397,ls),
(554,481,o),
(608,537,o),
(696,537,cs),
(784,537,o),
(840,481,o),
(840,397,cs),
(840,0,l),
(1234,0,l),
(1234,414,ls),
(1234,672,o),
(1048,831,o),
(696,831,cs),
(344,831,o),
(159,672,o),
(159,414,cs),
(159,343,l),
(255,399,l),
(233,399,ls),
(112,399,o),
(38,327,o),
(38,199,cs),
(38,71,o),
(114,0,o),
(265,0,cs)
);
},
{
closed = 1;
nodes = (
(228,133,o),
(204,157,o),
(204,202,cs),
(204,237,o),
(218,271,o),
(261,271,cs),
(272,271,l),
(272,133,l),
(258,133,ls)
);
},
{
closed = 1;
nodes = (
(1241,895,l),
(1241,1234,l),
(153,1234,l),
(153,895,l)
);
}
);
width = 1375;
}
);
script = khmer;
subCategory = Other;
unicode = 6039;
}
{
category = Letter;
glyphname = "yo-khmer";
layers = (
{
anchors = (
{
name = bottom;
pos = (1281,0);
},
{
name = bottomright;
pos = (1632,0);
},
{
name = top;
pos = (1281,1234);
},
{
name = topright;
pos = (1646,1234);
}
);
layerId = "B1F27B51-9973-4381-9301-4FE46FE1CA59";
shapes = (
{
closed = 1;
nodes = (
(800,-15,o),
(937,84,o),
(973,235,c),
(966,235,l),
(998,84,o),
(1123,-15,o),
(1297,-15,cs),
(1504,-15,o),
(1647,123,o),
(1647,326,cs),
(1647,896,ls),
(1647,917,o),
(1639,926,o),
(1622,931,cs),
(1475,984,l),
(1489,963,l),
(1489,1047,ls),
(1489,1150,o),
(1541,1187,o),
(1626,1187,cs),
(1708,1187,l),
(1708,1234,l),
(1626,1234,ls),
(1513,1234,o),
(1445,1180,o),
(1445,1047,cs),
(1445,952,l),
(1601,896,l),
(1601,326,ls),
(1601,151,o),
(1480,32,o),
(1297,32,cs),
(1115,32,o),
(992,151,o),
(992,326,cs),
(992,896,ls),
(992,917,o),
(984,926,o),
(967,931,cs),
(820,984,l),
(834,963,l),
(834,1047,ls),
(834,1150,o),
(886,1187,o),
(971,1187,cs),
(1054,1187,l),
(1054,1234,l),
(971,1234,ls),
(858,1234,o),
(790,1180,o),
(790,1047,cs),
(790,952,l),
(946,896,l),
(946,326,ls),
(946,151,o),
(805,32,o),
(611,32,cs),
(411,32,o),
(279,151,o),
(279,326,cs),
(279,891,l),
(249,860,l),
(306,860,ls),
(418,860,o),
(489,931,o),
(489,1050,cs),
(489,1166,o),
(418,1234,o),
(306,1234,cs),
(233,1234,l),
(233,326,ls),
(233,123,o),
(386,-15,o),
(611,-15,cs)
);
},
{
closed = 1;
nodes = (
(280,901,l),
(280,1193,l),
(306,1193,ls),
(393,1193,o),
(447,1138,o),
(447,1050,cs),
(447,958,o),
(394,901,o),
(309,901,cs)
);
}
);
width = 1880;
},
{
anchors = (
{
name = bottom;
pos = (1334,0);
},
{
name = bottomright;
pos = (1749,0);
},
{
name = top;
pos = (1335,1234);
},
{
name = topright;
pos = (1764,1234);
}
);
hints = (
{
horizontal = 1;
origin = (0,73);
target = (0,56);
type = Stem;
},
{
horizontal = 1;
origin = (0,69);
target = (0,44);
type = Stem;
},
{
horizontal = 1;
origin = (1,1);
target = (0,69);
type = Stem;
},
{
origin = (0,70);
target = (0,59);
type = Stem;
},
{
origin = (1,5);
target = (0,65);
type = Stem;
},
{
origin = (0,53);
target = (0,34);
type = Stem;
},
{
origin = (0,28);
target = (0,9);
type = Stem;
},
{
origin = (0,26);
target = (0,15);
type = Stem;
},
{
origin = (0,51);
target = (0,40);
type = Stem;
}
);
layerId = "C698F293-3EC0-4A5A-A3A0-0FDB1F5CF265";
shapes = (
{
closed = 1;
nodes = (
(843,-15,o),
(981,71,o),
(1041,207,c),
(995,207,l),
(1050,71,o),
(1177,-15,o),
(1356,-15,cs),
(1604,-15,o),
(1764,144,o),
(1764,377,cs),
(1764,821,ls),
(1764,864,o),
(1750,880,o),
(1707,899,cs),
(1596,947,l),
(1610,887,l),
(1610,970,ls),
(1610,1043,o),
(1639,1077,o),
(1717,1077,cs),
(1805,1077,l),
(1805,1234,l),
(1714,1234,ls),
(1545,1234,o),
(1465,1156,o),
(1465,977,cs),
(1465,862,l),
(1596,807,l),
(1596,386,ls),
(1596,238,o),
(1504,134,o),
(1349,134,cs),
(1193,134,o),
(1102,238,o),
(1102,386,cs),
(1102,821,ls),
(1102,864,o),
(1088,880,o),
(1045,899,cs),
(934,947,l),
(947,887,l),
(947,970,ls),
(947,1043,o),
(977,1077,o),
(1055,1077,cs),
(1142,1077,l),
(1142,1234,l),
(1051,1234,ls),
(883,1234,o),
(803,1156,o),
(803,977,cs),
(803,862,l),
(934,807,l),
(934,386,ls),
(934,238,o),
(832,134,o),
(658,134,cs),
(483,134,o),
(381,238,o),
(381,386,cs),
(381,868,l),
(354,821,l),
(407,821,ls),
(538,821,o),
(617,898,o),
(617,1027,cs),
(617,1153,o),
(546,1234,o),
(400,1234,cs),
(214,1234,l),
(214,377,ls),
(214,144,o),
(385,-15,o),
(650,-15,cs)
);
},
{
closed = 1;
nodes = (
(378,924,l),
(378,1123,l),
(404,1123,ls),
(458,1123,o),
(493,1091,o),
(493,1028,cs),
(493,975,o),
(472,924,o),
(399,924,cs)
);
}
);
width = 1978;
},
{
anchors = (
{
name = bottom;
pos = (1334,0);
},
{
name = bottomright;
pos = (1833,0);
},
{
name = top;
pos = (1334,1234);
},
{
name = topright;
pos = (1863,1234);
}
);
layerId = "5C20EF92-B63D-42A8-8878-93C2863E0093";
shapes = (
{
closed = 1;
nodes = (
(863,-15,o),
(1006,66,o),
(1079,188,c),
(953,188,l),
(1022,68,o),
(1159,-15,o),
(1363,-15,cs),
(1690,-15,o),
(1863,145,o),
(1863,403,cs),
(1863,685,ls),
(1863,750,o),
(1833,770,o),
(1776,789,cs),
(1611,843,l),
(1660,736,l),
(1660,838,ls),
(1660,876,o),
(1680,895,o),
(1720,895,cs),
(1906,895,l),
(1906,1234,l),
(1695,1234,ls),
(1438,1234,o),
(1372,1097,o),
(1372,907,cs),
(1372,734,l),
(1468,690,l),
(1468,420,ls),
(1468,335,o),
(1419,279,o),
(1340,279,cs),
(1262,279,o),
(1214,335,o),
(1214,420,cs),
(1214,685,ls),
(1214,757,o),
(1177,772,o),
(1127,789,cs),
(963,843,l),
(1011,736,l),
(1011,838,ls),
(1011,876,o),
(1032,895,o),
(1072,895,cs),
(1257,895,l),
(1257,1234,l),
(1047,1234,ls),
(789,1234,o),
(723,1097,o),
(723,907,cs),
(723,734,l),
(819,690,l),
(819,420,ls),
(819,335,o),
(764,279,o),
(676,279,cs),
(589,279,o),
(536,335,o),
(536,420,cs),
(536,886,l),
(455,835,l),
(476,835,ls),
(599,835,o),
(674,907,o),
(674,1035,cs),
(674,1163,o),
(597,1234,o),
(445,1234,cs),
(141,1234,l),
(141,403,ls),
(141,144,o),
(317,-15,o),
(653,-15,cs)
);
},
{
closed = 1;
nodes = (
(423,967,l),
(423,1095,l),
(436,1095,ls),
(469,1095,o),
(495,1074,o),
(495,1034,cs),
(495,1000,o),
(480,967,o),
(434,967,cs)
);
}
);
width = 2004;
}
);
metricRight = "ba-khmer";
script = khmer;
subCategory = Other;
unicode = 6041;
}
{
category = Letter;
glyphname = "ro-khmer";
kernLeft = KH_RO;
layers = (
{
anchors = (
{
name = bottom;
pos = (322,0);
},
{
name = bottomright;
pos = (410,0);
},
{
name = top;
pos = (341,1234);
},
{
name = topright;
pos = (667,1234);
}
);
layerId = "B1F27B51-9973-4381-9301-4FE46FE1CA59";
shapes = (
{
closed = 1;
nodes = (
(410,0,l),
(410,896,ls),
(410,917,o),
(402,926,o),
(385,931,cs),
(231,984,l),
(244,963,l),
(244,1047,ls),
(244,1150,o),
(296,1187,o),
(382,1187,cs),
(472,1187,l),
(472,1234,l),
(382,1234,ls),
(268,1234,o),
(201,1180,o),
(201,1047,cs),
(201,951,l),
(364,895,l),
(364,343,l),
(393,374,l),
(345,374,ls),
(232,374,o),
(162,303,o),
(162,184,cs),
(162,68,o),
(232,0,o),
(345,0,cs)
);
},
{
closed = 1;
nodes = (
(258,41,o),
(204,96,o),
(204,184,cs),
(204,276,o),
(256,333,o),
(342,333,cs),
(364,333,l),
(364,41,l),
(345,41,ls)
);
}
);
width = 650;
},
{
anchors = (
{
name = bottom;
pos = (346,0);
},
{
name = bottomright;
pos = (501,0);
},
{
name = top;
pos = (361,1234);
},
{
name = topright;
pos = (741,1234);
}
);
hints = (
{
horizontal = 1;
origin = (0,27);
target = (1,8);
type = Stem;
},
{
horizontal = 1;
origin = (0,13);
target = (0,10);
type = Stem;
},
{
origin = (0,24);
target = (1,2);
type = Stem;
},
{
origin = (0,19);
target = (0,0);
type = Stem;
},
{
origin = (0,17);
target = (0,6);
type = Stem;
}
);
layerId = "C698F293-3EC0-4A5A-A3A0-0FDB1F5CF265";
shapes = (
{
closed = 1;
nodes = (
(501,0,l),
(501,816,ls),
(501,859,o),
(488,878,o),
(444,894,cs),
(300,947,l),
(314,887,l),
(314,974,ls),
(314,1046,o),
(351,1077,o),
(426,1077,cs),
(524,1077,l),
(524,1234,l),
(419,1234,ls),
(251,1234,o),
(170,1156,o),
(170,977,cs),
(170,855,l),
(333,795,l),
(333,357,l),
(361,413,l),
(333,413,ls),
(202,413,o),
(132,336,o),
(132,207,cs),
(132,81,o),
(198,0,o),
(342,0,cs)
);
},
{
closed = 1;
nodes = (
(285,111,o),
(253,143,o),
(253,206,cs),
(253,259,o),
(273,310,o),
(338,310,cs),
(349,310,l),
(349,111,l),
(334,111,ls)
);
}
);
width = 715;
},
{
anchors = (
{
name = bottom;
pos = (396,0);
},
{
name = bottomright;
pos = (640,0);
},
{
name = top;
pos = (406,1234);
},
{
name = topright;
pos = (864,1234);
}
);
layerId = "5C20EF92-B63D-42A8-8878-93C2863E0093";
shapes = (
{
closed = 1;
nodes = (
(640,0,l),
(640,685,ls),
(640,750,o),
(609,771,o),
(554,789,cs),
(362,851,l),
(412,736,l),
(412,838,ls),
(412,876,o),
(434,895,o),
(480,895,cs),
(668,895,l),
(668,1234,l),
(462,1234,ls),
(192,1234,o),
(124,1090,o),
(124,891,cs),
(124,737,l),
(246,678,l),
(246,357,l),
(308,414,l),
(286,414,ls),
(159,414,o),
(80,340,o),
(80,207,cs),
(80,74,o),
(162,0,o),
(325,0,cs)
);
},
{
closed = 1;
nodes = (
(299,138,o),
(272,162,o),
(272,206,cs),
(272,244,o),
(287,282,o),
(336,282,cs),
(346,282,l),
(346,138,l),
(334,138,ls)
);
}
);
width = 811;
}
);
script = khmer;
subCategory = Other;
unicode = 6042;
}
{
category = Letter;
glyphname = "lo-khmer";
kernLeft = KH_LO;
layers = (
{
anchors = (
{
name = bottom;
pos = (1289,0);
},
{
name = bottomright;
pos = (1631,0);
},
{
name = top;
pos = (1289,1234);
},
{
name = topright;
pos = (1646,1234);
}
);
layerId = "B1F27B51-9973-4381-9301-4FE46FE1CA59";
shapes = (
{
closed = 1;
nodes = (
(1500,-15,o),
(1646,130,o),
(1646,341,cs),
(1646,896,ls),
(1646,917,o),
(1637,926,o),
(1620,931,cs),
(1473,984,l),
(1487,963,l),
(1487,1047,ls),
(1487,1150,o),
(1540,1187,o),
(1625,1187,cs),
(1707,1187,l),
(1707,1234,l),
(1625,1234,ls),
(1511,1234,o),
(1444,1180,o),
(1444,1047,cs),
(1444,952,l),
(1599,896,l),
(1599,341,ls),
(1599,157,o),
(1475,32,o),
(1289,32,cs),
(1102,32,o),
(978,157,o),
(978,341,cs),
(978,892,ls),
(978,1103,o),
(826,1247,o),
(605,1247,cs),
(384,1247,o),
(233,1103,o),
(233,892,cs),
(233,0,l),
(304,0,ls),
(421,0,o),
(495,68,o),
(495,184,cs),
(495,303,o),
(421,374,o),
(304,374,cs),
(249,374,l),
(279,343,l),
(279,892,ls),
(279,1075,o),
(409,1201,o),
(605,1201,cs),
(800,1201,o),
(931,1075,o),
(931,892,cs),
(931,341,ls),
(931,130,o),
(1078,-15,o),
(1289,-15,cs)
);
},
{
closed = 1;
nodes = (
(279,41,l),
(279,333,l),
(307,333,ls),
(397,333,o),
(453,276,o),
(453,184,cs),
(453,96,o),
(396,41,o),
(304,41,cs)
);
}
);
width = 1879;
},
{
anchors = (
{
name = bottom;
pos = (1334,0);
},
{
name = bottomright;
pos = (1749,0);
},
{
name = top;
pos = (1335,1234);
},
{
name = topright;
pos = (1764,1234);
}
);
hints = (
{
horizontal = 1;
origin = (0,55);
target = (0,24);
type = Stem;
},
{
horizontal = 1;
origin = (0,15);
target = (0,12);
type = Stem;
},
{
horizontal = 1;
origin = (0,31);
target = (0,48);
type = Stem;
},
{
horizontal = 1;
origin = (0,35);
target = (1,0);
type = Stem;
},
{
origin = (0,35);
target = (0,44);
type = Stem;
},
{
origin = (1,5);
target = (0,39);
type = Stem;
},
{
origin = (0,52);
target = (0,27);
type = Stem;
},
{
origin = (0,19);
target = (0,8);
type = Stem;
},
{
origin = (0,21);
target = (0,2);
type = Stem;
}
);
layerId = "C698F293-3EC0-4A5A-A3A0-0FDB1F5CF265";
shapes = (
{
closed = 1;
nodes = (
(1591,-15,o),
(1764,144,o),
(1764,376,cs),
(1764,821,ls),
(1764,864,o),
(1750,880,o),
(1707,899,cs),
(1596,947,l),
(1610,887,l),
(1610,970,ls),
(1610,1043,o),
(1639,1077,o),
(1717,1077,cs),
(1805,1077,l),
(1805,1234,l),
(1714,1234,ls),
(1545,1234,o),
(1465,1156,o),
(1465,977,cs),
(1465,862,l),
(1596,807,l),
(1596,386,ls),
(1596,238,o),
(1491,137,o),
(1337,137,cs),
(1183,137,o),
(1078,238,o),
(1078,386,cs),
(1078,857,ls),
(1078,1089,o),
(903,1248,o),
(645,1248,cs),
(389,1248,o),
(214,1089,o),
(214,857,cs),
(214,0,l),
(400,0,ls),
(546,0,o),
(617,83,o),
(617,210,cs),
(617,338,o),
(538,413,o),
(407,413,cs),
(354,413,l),
(381,357,l),
(381,848,ls),
(381,995,o),
(488,1097,o),
(645,1097,cs),
(803,1097,o),
(911,995,o),
(911,848,cs),
(911,376,ls),
(911,144,o),
(1083,-15,o),
(1337,-15,cs)
);
},
{
closed = 1;
nodes = (
(377,111,l),
(377,310,l),
(398,310,ls),
(457,310,o),
(492,273,o),
(492,210,cs),
(492,148,o),
(458,111,o),
(402,111,cs)
);
}
);
width = 1978;
},
{
anchors = (
{
name = bottom;
pos = (1334,0);
},
{
name = bottomright;
pos = (1833,0);
},
{
name = top;
pos = (1334,1234);
},
{
name = topright;
pos = (1863,1234);
}
);
layerId = "5C20EF92-B63D-42A8-8878-93C2863E0093";
shapes = (
{
closed = 1;
nodes = (
(1680,-15,o),
(1863,145,o),
(1863,403,cs),
(1863,685,ls),
(1863,750,o),
(1834,770,o),
(1776,789,cs),
(1611,843,l),
(1660,736,l),
(1660,838,ls),
(1660,876,o),
(1680,895,o),
(1720,895,cs),
(1906,895,l),
(1906,1234,l),
(1695,1234,ls),
(1438,1234,o),
(1372,1097,o),
(1372,907,cs),
(1372,734,l),
(1468,690,l),
(1468,419,ls),
(1468,335,o),
(1416,279,o),
(1333,279,cs),
(1250,279,o),
(1199,335,o),
(1199,419,cs),
(1199,831,ls),
(1199,1090,o),
(1015,1249,o),
(669,1249,cs),
(322,1249,o),
(141,1090,o),
(141,831,cs),
(141,0,l),
(490,0,ls),
(635,0,o),
(709,74,o),
(709,207,cs),
(709,340,o),
(632,414,o),
(506,414,cs),
(500,414,l),
(536,357,l),
(536,815,ls),
(536,899,o),
(586,955,o),
(669,955,cs),
(752,955,o),
(805,899,o),
(805,815,cs),
(805,403,ls),
(805,144,o),
(987,-15,o),
(1333,-15,cs)
);
},
{
closed = 1;
nodes = (
(462,140,l),
(462,279,l),
(472,279,ls),
(521,279,o),
(536,244,o),
(536,207,cs),
(536,163,o),
(509,140,o),
(474,140,cs)
);
}
);
width = 2004;
}
);
metricRight = "ba-khmer";
script = khmer;
subCategory = Other;
unicode = 6043;
}
{
category = Letter;
glyphname = "vo-khmer";
kernLeft = KH_VO;
layers = (
{
anchors = (
{
name = bottom;
pos = (395,0);
},
{
name = bottomright;
pos = (418,0);
},
{
name = top;
pos = (349,1234);
},
{
name = topright;
pos = (674,1234);
}
);
layerId = "B1F27B51-9973-4381-9301-4FE46FE1CA59";
shapes = (
{
closed = 1;
nodes = (
(418,0,l),
(418,896,ls),
(418,917,o),
(409,926,o),
(392,931,cs),
(223,984,l),
(230,963,l),
(230,1076,ls),
(230,1158,o),
(271,1189,o),
(338,1189,cs),
(403,1189,ls),
(467,1189,o),
(495,1217,o),
(495,1279,cs),
(495,1374,l),
(451,1374,l),
(451,1279,ls),
(451,1248,o),
(437,1234,o),
(403,1234,cs),
(338,1234,ls),
(243,1234,o),
(186,1189,o),
(186,1076,cs),
(186,951,l),
(371,895,l),
(371,343,l),
(400,374,l),
(352,374,ls),
(239,374,o),
(169,303,o),
(169,184,cs),
(169,68,o),
(239,0,o),
(352,0,cs)
);
},
{
closed = 1;
nodes = (
(265,41,o),
(211,96,o),
(211,184,cs),
(211,276,o),
(263,333,o),
(349,333,cs),
(371,333,l),
(371,41,l),
(352,41,ls)
);
}
);
width = 658;
},
{
anchors = (
{
name = bottom;
pos = (354,0);
},
{
name = bottomright;
pos = (508,0);
},
{
name = top;
pos = (368,1234);
},
{
name = topright;
pos = (748,1234);
}
);
hints = (
{
horizontal = 1;
origin = (0,35);
target = (1,8);
type = Stem;
},
{
horizontal = 1;
origin = (0,21);
target = (0,10);
type = Stem;
},
{
origin = (0,25);
target = (0,6);
type = Stem;
},
{
origin = (0,17);
target = (0,14);
type = Stem;
},
{
origin = (0,32);
target = (1,2);
type = Stem;
},
{
origin = (0,27);
target = (0,0);
type = Stem;
}
);
layerId = "C698F293-3EC0-4A5A-A3A0-0FDB1F5CF265";
shapes = (
{
closed = 1;
nodes = (
(508,0,l),
(508,816,ls),
(508,859,o),
(495,879,o),
(451,894,cs),
(267,958,l),
(302,887,l),
(302,977,ls),
(302,1048,o),
(334,1078,o),
(401,1078,cs),
(498,1078,ls),
(569,1078,o),
(600,1109,o),
(600,1179,cs),
(600,1374,l),
(439,1374,l),
(439,1253,ls),
(439,1241,o),
(433,1234,o),
(421,1234,cs),
(391,1234,ls),
(234,1234,o),
(158,1163,o),
(158,1001,cs),
(158,854,l),
(341,792,l),
(341,357,l),
(368,413,l),
(341,413,ls),
(209,413,o),
(140,336,o),
(140,207,cs),
(140,81,o),
(205,0,o),
(349,0,cs)
);
},
{
closed = 1;
nodes = (
(293,111,o),
(260,143,o),
(260,206,cs),
(260,259,o),
(280,310,o),
(346,310,cs),
(357,310,l),
(357,111,l),
(341,111,ls)
);
}
);
width = 722;
},
{
anchors = (
{
name = bottom;
pos = (404,0);
},
{
name = bottomright;
pos = (649,0);
},
{
name = top;
pos = (382,1234);
},
{
name = topright;
pos = (870,1234);
}
);
layerId = "5C20EF92-B63D-42A8-8878-93C2863E0093";
shapes = (
{
closed = 1;
nodes = (
(649,0,l),
(649,681,ls),
(649,747,o),
(617,768,o),
(563,784,cs),
(371,843,l),
(406,736,l),
(406,862,ls),
(406,894,o),
(423,911,o),
(457,911,cs),
(587,911,ls),
(685,911,o),
(737,972,o),
(737,1084,cs),
(737,1336,l),
(365,1336,l),
(365,1257,ls),
(365,1239,o),
(357,1234,o),
(341,1234,cs),
(320,1234,ls),
(183,1234,o),
(118,1158,o),
(118,1025,cs),
(118,737,l),
(255,677,l),
(255,357,l),
(317,414,l),
(295,414,ls),
(167,414,o),
(89,340,o),
(89,207,cs),
(89,74,o),
(170,0,o),
(333,0,cs)
);
},
{
closed = 1;
nodes = (
(308,138,o),
(281,162,o),
(281,206,cs),
(281,244,o),
(296,282,o),
(345,282,cs),
(355,282,l),
(355,138,l),
(343,138,ls)
);
}
);
width = 828;
}
);
script = khmer;
subCategory = Other;
unicode = 6044;
}
{
category = Letter;
glyphname = "sa-khmer";
kernLeft = KH_SA;
layers = (
{
anchors = (
{
name = bottom;
pos = (1289,0);
},
{
name = bottomright;
pos = (1631,0);
},
{
name = top;
pos = (1291,1234);
},
{
name = topright;
pos = (1646,1234);
}
);
layerId = "B1F27B51-9973-4381-9301-4FE46FE1CA59";
shapes = (
{
closed = 1;
nodes = (
(1500,-15,o),
(1646,128,o),
(1646,338,cs),
(1646,896,ls),
(1646,917,o),
(1637,926,o),
(1620,931,cs),
(1473,984,l),
(1487,963,l),
(1487,1047,ls),
(1487,1150,o),
(1540,1187,o),
(1625,1187,cs),
(1707,1187,l),
(1707,1234,l),
(1625,1234,ls),
(1511,1234,o),
(1444,1180,o),
(1444,1047,cs),
(1444,952,l),
(1599,896,l),
(1599,338,ls),
(1599,156,o),
(1475,32,o),
(1289,32,cs),
(1102,32,o),
(978,156,o),
(978,338,cs),
(978,585,ls),
(978,796,o),
(825,940,o),
(604,940,cs),
(384,940,o),
(233,796,o),
(233,585,cs),
(233,0,l),
(304,0,ls),
(421,0,o),
(495,68,o),
(495,184,cs),
(495,303,o),
(421,374,o),
(304,374,cs),
(249,374,l),
(279,343,l),
(279,585,ls),
(279,768,o),
(408,894,o),
(604,894,cs),
(800,894,o),
(931,768,o),
(931,585,cs),
(931,338,ls),
(931,128,o),
(1078,-15,o),
(1289,-15,cs)
);
},
{
closed = 1;
nodes = (
(279,41,l),
(279,333,l),
(307,333,ls),
(397,333,o),
(453,276,o),
(453,184,cs),
(453,96,o),
(396,41,o),
(304,41,cs)
);
},
{
closed = 1;
nodes = (
(501,921,l),
(337,998,l),
(351,977,l),
(351,1047,ls),
(351,1150,o),
(403,1187,o),
(488,1187,cs),
(939,1187,l),
(939,1234,l),
(488,1234,ls),
(375,1234,o),
(307,1180,o),
(307,1047,cs),
(307,968,l),
(476,887,l)
);
}
);
width = 1879;
},
{
anchors = (
{
name = bottom;
pos = (1334,0);
},
{
name = bottomright;
pos = (1749,0);
},
{
name = top;
pos = (1335,1234);
},
{
name = topright;
pos = (1764,1234);
}
);
hints = (
{
horizontal = 1;
origin = (0,55);
target = (0,24);
type = Stem;
},
{
horizontal = 1;
origin = (1,1);
target = (0,43);
type = Stem;
},
{
horizontal = 1;
origin = (0,48);
target = (0,31);
type = Stem;
},
{
horizontal = 1;
origin = (2,9);
target = (2,6);
type = Stem;
},
{
horizontal = 1;
origin = (0,35);
target = (1,0);
type = Stem;
},
{
origin = (1,5);
target = (0,39);
type = Stem;
},
{
origin = (0,52);
target = (0,27);
type = Stem;
},
{
origin = (0,21);
target = (0,2);
type = Stem;
},
{
origin = (0,19);
target = (0,8);
type = Stem;
},
{
origin = (0,35);
target = (0,44);
type = Stem;
}
);
layerId = "C698F293-3EC0-4A5A-A3A0-0FDB1F5CF265";
shapes = (
{
closed = 1;
nodes = (
(1599,-15,o),
(1764,141,o),
(1764,369,cs),
(1764,821,ls),
(1764,864,o),
(1750,880,o),
(1707,899,cs),
(1596,947,l),
(1610,887,l),
(1610,970,ls),
(1610,1043,o),
(1639,1077,o),
(1717,1077,cs),
(1805,1077,l),
(1805,1234,l),
(1714,1234,ls),
(1545,1234,o),
(1465,1156,o),
(1465,977,cs),
(1465,862,l),
(1596,807,l),
(1596,378,ls),
(1596,236,o),
(1496,137,o),
(1335,137,cs),
(1177,137,o),
(1080,236,o),
(1080,378,cs),
(1080,536,ls),
(1080,764,o),
(912,920,o),
(645,920,cs),
(380,920,o),
(214,764,o),
(214,536,cs),
(214,0,l),
(400,0,ls),
(546,0,o),
(617,83,o),
(617,210,cs),
(617,338,o),
(538,413,o),
(407,413,cs),
(354,413,l),
(381,357,l),
(381,527,ls),
(381,670,o),
(482,771,o),
(645,771,cs),
(810,771,o),
(912,670,o),
(912,527,cs),
(912,369,ls),
(912,141,o),
(1075,-15,o),
(1335,-15,cs)
);
},
{
closed = 1;
nodes = (
(377,111,l),
(377,310,l),
(398,310,ls),
(457,310,o),
(492,273,o),
(492,210,cs),
(492,148,o),
(458,111,o),
(402,111,cs)
);
},
{
closed = 1;
nodes = (
(536,872,l),
(413,958,l),
(432,887,l),
(432,966,ls),
(432,1042,o),
(469,1077,o),
(547,1077,cs),
(1013,1077,l),
(1013,1234,l),
(547,1234,ls),
(372,1234,o),
(288,1156,o),
(288,977,cs),
(288,899,l),
(420,804,l)
);
}
);
width = 1978;
},
{
anchors = (
{
name = bottom;
pos = (1333,0);
},
{
name = bottomright;
pos = (1848,0);
},
{
name = top;
pos = (1333,1234);
},
{
name = topright;
pos = (1863,1234);
}
);
layerId = "5C20EF92-B63D-42A8-8878-93C2863E0093";
shapes = (
{
closed = 1;
nodes = (
(1682,-15,o),
(1863,127,o),
(1863,358,cs),
(1863,685,ls),
(1863,750,o),
(1834,770,o),
(1776,789,cs),
(1611,843,l),
(1660,736,l),
(1660,838,ls),
(1660,876,o),
(1680,895,o),
(1720,895,cs),
(1906,895,l),
(1906,1234,l),
(1695,1234,ls),
(1438,1234,o),
(1372,1097,o),
(1372,907,cs),
(1372,734,l),
(1468,690,l),
(1468,388,ls),
(1468,322,o),
(1419,278,o),
(1340,278,cs),
(1262,278,o),
(1214,322,o),
(1214,388,cs),
(1214,481,ls),
(1214,683,o),
(1050,819,o),
(676,819,cs),
(303,819,o),
(141,683,o),
(141,481,cs),
(141,0,l),
(490,0,ls),
(635,0,o),
(709,74,o),
(709,207,cs),
(709,340,o),
(632,414,o),
(506,414,cs),
(500,414,l),
(536,357,l),
(536,434,ls),
(536,497,o),
(589,538,o),
(676,538,cs),
(763,538,o),
(820,497,o),
(820,434,cs),
(820,358,ls),
(820,127,o),
(999,-15,o),
(1340,-15,cs)
);
},
{
closed = 1;
nodes = (
(462,140,l),
(462,279,l),
(472,279,ls),
(521,279,o),
(536,244,o),
(536,207,cs),
(536,163,o),
(509,140,o),
(474,140,cs)
);
},
{
closed = 1;
nodes = (
(552,774,l),
(439,851,l),
(474,773,l),
(474,838,ls),
(474,882,o),
(492,895,o),
(526,895,cs),
(1060,895,l),
(1060,1234,l),
(523,1234,ls),
(254,1234,o),
(186,1090,o),
(186,891,cs),
(186,773,l),
(282,701,l)
);
}
);
width = 2004;
}
);
metricRight = "ba-khmer";
script = khmer;
subCategory = Other;
unicode = 6047;
}
{
category = Letter;
glyphname = "ha-khmer";
kernLeft = KH_BA;
layers = (
{
anchors = (
{
name = bottom;
pos = (1274,0);
},
{
name = bottomright;
pos = (1646,0);
},
{
name = top;
pos = (1276,1234);
},
{
name = topright;
pos = (1631,1234);
}
);
layerId = "B1F27B51-9973-4381-9301-4FE46FE1CA59";
shapes = (
{
closed = 1;
nodes = (
(801,-15,o),
(947,130,o),
(947,341,cs),
(947,892,ls),
(947,1078,o),
(1079,1201,o),
(1274,1201,cs),
(1469,1201,o),
(1599,1078,o),
(1599,892,cs),
(1599,0,l),
(1646,0,l),
(1646,892,ls),
(1646,1103,o),
(1495,1247,o),
(1274,1247,cs),
(1053,1247,o),
(901,1103,o),
(901,892,cs),
(901,341,ls),
(901,157,o),
(776,32,o),
(589,32,cs),
(403,32,o),
(279,157,o),
(279,341,cs),
(279,896,ls),
(279,917,o),
(271,926,o),
(254,931,cs),
(107,984,l),
(121,963,l),
(121,1047,ls),
(121,1150,o),
(173,1187,o),
(258,1187,cs),
(341,1187,l),
(341,1234,l),
(258,1234,ls),
(145,1234,o),
(77,1180,o),
(77,1047,cs),
(77,952,l),
(233,896,l),
(233,341,ls),
(233,130,o),
(378,-15,o),
(589,-15,cs)
);
}
);
width = 1879;
},
{
anchors = (
{
name = bottom;
pos = (1328,0);
},
{
name = bottomright;
pos = (1764,0);
},
{
name = top;
pos = (1328,1234);
},
{
name = topright;
pos = (1749,1234);
}
);
hints = (
{
horizontal = 1;
origin = (0,47);
target = (0,22);
type = Stem;
},
{
horizontal = 1;
origin = (0,15);
target = (0,6);
type = Stem;
},
{
horizontal = 1;
origin = (0,38);
target = (0,35);
type = Stem;
},
{
horizontal = 1;
origin = (0,10);
target = up;
type = BottomGhost;
},
{
origin = (0,44);
target = (0,25);
type = Stem;
},
{
origin = (0,19);
target = (0,2);
type = Stem;
},
{
origin = (0,10);
target = (0,11);
type = Stem;
},
{
origin = (0,42);
target = (0,31);
type = Stem;
}
);
layerId = "C698F293-3EC0-4A5A-A3A0-0FDB1F5CF265";
shapes = (
{
closed = 1;
nodes = (
(899,-13,o),
(1058,146,o),
(1058,378,cs),
(1058,848,ls),
(1058,994,o),
(1162,1097,o),
(1328,1097,cs),
(1494,1097,o),
(1596,994,o),
(1596,848,cs),
(1596,0,l),
(1764,0,l),
(1764,857,ls),
(1764,1089,o),
(1596,1248,o),
(1328,1248,cs),
(1059,1248,o),
(891,1089,o),
(891,857,cs),
(891,387,ls),
(891,241,o),
(797,138,o),
(644,138,cs),
(482,138,o),
(381,241,o),
(381,387,cs),
(381,821,ls),
(381,864,o),
(367,880,o),
(325,899,cs),
(214,947,l),
(227,887,l),
(227,970,ls),
(227,1043,o),
(257,1077,o),
(335,1077,cs),
(422,1077,l),
(422,1234,l),
(331,1234,ls),
(163,1234,o),
(83,1156,o),
(83,977,cs),
(83,862,l),
(214,807,l),
(214,378,ls),
(214,146,o),
(380,-13,o),
(644,-13,cs)
);
}
);
width = 1978;
},
{
anchors = (
{
name = bottom;
pos = (1334,0);
},
{
name = bottomright;
pos = (1861,0);
},
{
name = top;
pos = (1334,1234);
},
{
name = topright;
pos = (1839,1234);
}
);
layerId = "5C20EF92-B63D-42A8-8878-93C2863E0093";
shapes = (
{
closed = 1;
nodes = (
(1015,-15,o),
(1199,144,o),
(1199,403,cs),
(1199,816,ls),
(1199,900,o),
(1251,956,o),
(1334,956,cs),
(1417,956,o),
(1467,900,o),
(1467,816,cs),
(1467,0,l),
(1861,0,l),
(1861,831,ls),
(1861,1089,o),
(1680,1249,o),
(1334,1249,cs),
(987,1249,o),
(805,1090,o),
(805,831,cs),
(805,418,ls),
(805,334,o),
(752,278,o),
(669,278,cs),
(586,278,o),
(534,334,o),
(534,418,cs),
(534,685,ls),
(534,750,o),
(505,770,o),
(447,789,cs),
(282,843,l),
(332,736,l),
(332,838,ls),
(332,876,o),
(352,895,o),
(391,895,cs),
(578,895,l),
(578,1234,l),
(367,1234,ls),
(98,1234,o),
(44,1082,o),
(44,907,cs),
(44,734,l),
(140,690,l),
(140,403,ls),
(140,145,o),
(322,-15,o),
(669,-15,cs)
);
}
);
width = 2002;
}
);
script = khmer;
subCategory = Other;
unicode = 6048;
}
{
category = Letter;
glyphname = "la-khmer";
kernLeft = KH_TO;
layers = (
{
anchors = (
{
name = bottom;
pos = (1125,-559);
},
{
name = bottomright;
pos = (1439,-559);
},
{
name = top;
pos = (1154,1234);
},
{
name = topright;
pos = (1439,1234);
}
);
layerId = "B1F27B51-9973-4381-9301-4FE46FE1CA59";
shapes = (
{
closed = 1;
nodes = (
(856,-559,l),
(1125,-292,l),
(1393,-559,l),
(1439,-559,l),
(1439,896,ls),
(1439,917,o),
(1430,926,o),
(1413,931,cs),
(1266,984,l),
(1280,963,l),
(1280,1047,ls),
(1280,1150,o),
(1332,1187,o),
(1417,1187,cs),
(1500,1187,l),
(1500,1234,l),
(1417,1234,ls),
(1304,1234,o),
(1236,1180,o),
(1236,1047,cs),
(1236,952,l),
(1392,896,l),
(1392,-492,l),
(1389,-492,l),
(1139,-244,l),
(1110,-244,l),
(861,-492,l),
(858,-492,l),
(858,-105,l),
(711,-105,l),
(711,-148,l),
(811,-148,l),
(811,-559,l)
);
},
{
ref = "to-khmer";
}
);
width = 1671;
},
{
anchors = (
{
name = bottom;
pos = (1164,-559);
},
{
name = bottomright;
pos = (1549,-559);
},
{
name = top;
pos = (1190,1234);
},
{
name = topright;
pos = (1549,1234);
}
);
hints = (
{
horizontal = 1;
origin = (0,32);
target = up;
type = BottomGhost;
},
{
horizontal = 1;
place = (-105,-111);
type = Stem;
},
{
horizontal = 1;
origin = (0,16);
target = (0,13);
type = Stem;
},
{
origin = (0,28);
target = (0,27);
type = Stem;
},
{
origin = (0,22);
target = (0,3);
type = Stem;
},
{
origin = (0,20);
target = (0,9);
type = Stem;
},
{
origin = (0,32);
target = (0,27);
type = Stem;
}
);
layerId = "C698F293-3EC0-4A5A-A3A0-0FDB1F5CF265";
shapes = (
{
closed = 1;
nodes = (
(940,-559,l),
(1163,-358,l),
(1388,-559,l),
(1549,-559,l),
(1549,821,ls),
(1549,864,o),
(1535,880,o),
(1492,899,cs),
(1382,947,l),
(1395,887,l),
(1395,970,ls),
(1395,1043,o),
(1425,1077,o),
(1503,1077,cs),
(1590,1077,l),
(1590,1234,l),
(1499,1234,ls),
(1331,1234,o),
(1251,1156,o),
(1251,977,cs),
(1251,862,l),
(1382,807,l),
(1382,-381,l),
(1376,-381,l),
(1187,-215,l),
(1139,-215,l),
(952,-381,l),
(947,-381,l),
(947,-105,l),
(688,-105,l),
(688,-220,l),
(779,-220,l),
(779,-559,l)
);
},
{
ref = "to-khmer";
}
);
width = 1763;
},
{
anchors = (
{
name = bottom;
pos = (1270,-559);
},
{
name = bottomright;
pos = (1797,-559);
},
{
name = top;
pos = (1278,1234);
},
{
name = topright;
pos = (1797,1234);
}
);
layerId = "5C20EF92-B63D-42A8-8878-93C2863E0093";
shapes = (
{
closed = 1;
nodes = (
(1125,-559,l),
(1271,-407,l),
(1417,-559,l),
(1797,-559,l),
(1797,685,ls),
(1797,757,o),
(1760,772,o),
(1711,789,cs),
(1545,843,l),
(1595,736,l),
(1595,838,ls),
(1595,876,o),
(1615,895,o),
(1655,895,cs),
(1840,895,l),
(1840,1234,l),
(1630,1234,ls),
(1372,1234,o),
(1307,1097,o),
(1307,907,cs),
(1307,734,l),
(1403,690,l),
(1403,-277,l),
(1396,-277,l),
(1289,-176,l),
(1253,-176,l),
(1147,-277,l),
(1139,-277,l),
(1139,-93,l),
(661,-93,l),
(661,-255,l),
(761,-255,l),
(761,-559,l)
);
},
{
pos = (1,0);
ref = "to-khmer";
}
);
width = 1938;
},
{
anchors = (
{
name = bottom;
pos = (1125,-559);
},
{
name = bottomright;
pos = (1439,-559);
},
{
name = top;
pos = (1154,1234);
},
{
name = topright;
pos = (1439,1234);
}
);
associatedMasterId = "B1F27B51-9973-4381-9301-4FE46FE1CA59";
color = 6;
layerId = "A21A613C-ACE8-494A-A63C-EF4A1D095429";
name = "Apr 6 22, 12:34";
shapes = (
{
closed = 1;
nodes = (
(856,-559,l),
(1125,-292,l),
(1393,-559,l),
(1439,-559,l),
(1439,896,ls),
(1439,917,o),
(1430,926,o),
(1413,931,cs),
(1266,984,l),
(1280,963,l),
(1280,1047,ls),
(1280,1150,o),
(1332,1187,o),
(1417,1187,cs),
(1500,1187,l),
(1500,1234,l),
(1417,1234,ls),
(1304,1234,o),
(1236,1180,o),
(1236,1047,cs),
(1236,952,l),
(1392,896,l),
(1392,-492,l),
(1389,-492,l),
(1139,-244,l),
(1110,-244,l),
(861,-492,l),
(858,-492,l),
(858,-105,l),
(797,-105,ls),
(725,-105,o),
(679,-149,o),
(679,-224,cs),
(679,-303,o),
(725,-349,o),
(797,-349,cs),
(832,-349,l),
(811,-328,l),
(811,-559,l)
);
},
{
closed = 1;
nodes = (
(749,-309,o),
(721,-276,o),
(721,-224,cs),
(721,-175,o),
(750,-146,o),
(797,-146,cs),
(811,-146,l),
(811,-309,l),
(797,-309,ls)
);
},
{
ref = "to-khmer";
}
);
width = 1671;
},
{
anchors = (
{
name = bottom;
pos = (1125,-559);
},
{
name = bottomright;
pos = (1439,-559);
},
{
name = top;
pos = (1154,1234);
},
{
name = topright;
pos = (1439,1234);
}
);
associatedMasterId = "B1F27B51-9973-4381-9301-4FE46FE1CA59";
color = 6;
layerId = "C0E4ABFA-A71D-438E-B6A3-E149AED1E4CB";
name = "Apr 6 22, 12:40";
shapes = (
{
closed = 1;
nodes = (
(856,-559,l),
(1125,-292,l),
(1393,-559,l),
(1439,-559,l),
(1439,896,ls),
(1439,917,o),
(1430,926,o),
(1413,931,cs),
(1266,984,l),
(1280,963,l),
(1280,1047,ls),
(1280,1150,o),
(1332,1187,o),
(1417,1187,cs),
(1500,1187,l),
(1500,1234,l),
(1417,1234,ls),
(1304,1234,o),
(1236,1180,o),
(1236,1047,cs),
(1236,952,l),
(1392,896,l),
(1392,-492,l),
(1389,-492,l),
(1139,-244,l),
(1110,-244,l),
(861,-492,l),
(858,-492,l),
(858,-105,l),
(797,-105,ls),
(723,-105,o),
(680,-147,o),
(680,-220,cs),
(680,-293,o),
(723,-335,o),
(797,-335,cs),
(832,-335,l),
(811,-314,l),
(811,-559,l)
);
},
{
closed = 1;
nodes = (
(750,-294,o),
(723,-267,o),
(723,-220,cs),
(723,-172,o),
(750,-146,o),
(798,-146,cs),
(813,-146,l),
(813,-294,l),
(798,-294,ls)
);
},
{
ref = "to-khmer";
}
);
width = 1671;
},
{
anchors = (
{
name = bottom;
pos = (1164,-559);
},
{
name = bottomright;
pos = (1549,-559);
},
{
name = top;
pos = (1190,1234);
},
{
name = topright;
pos = (1549,1234);
}
);
associatedMasterId = "C698F293-3EC0-4A5A-A3A0-0FDB1F5CF265";
color = 6;
hints = (
{
horizontal = 1;
origin = (0,38);
target = up;
type = BottomGhost;
},
{
horizontal = 1;
origin = (0,29);
target = (1,5);
type = Stem;
},
{
horizontal = 1;
origin = (0,16);
target = (0,13);
type = Stem;
},
{
origin = (0,32);
target = (1,2);
type = Stem;
},
{
origin = (1,7);
target = (0,27);
type = Stem;
},
{
origin = (0,22);
target = (0,3);
type = Stem;
},
{
origin = (0,20);
target = (0,9);
type = Stem;
},
{
origin = (0,38);
target = (0,27);
type = Stem;
}
);
layerId = "A83B2861-1A8E-4EB8-AB11-FF5827003C8A";
name = "Apr 6 22, 12:42";
shapes = (
{
closed = 1;
nodes = (
(940,-559,l),
(1163,-358,l),
(1388,-559,l),
(1549,-559,l),
(1549,821,ls),
(1549,864,o),
(1535,880,o),
(1492,899,cs),
(1382,947,l),
(1395,887,l),
(1395,970,ls),
(1395,1043,o),
(1425,1077,o),
(1503,1077,cs),
(1590,1077,l),
(1590,1234,l),
(1499,1234,ls),
(1331,1234,o),
(1251,1156,o),
(1251,977,cs),
(1251,862,l),
(1382,807,l),
(1382,-381,l),
(1376,-381,l),
(1187,-215,l),
(1139,-215,l),
(952,-381,l),
(947,-381,l),
(947,-105,l),
(779,-105,ls),
(698,-105,o),
(648,-157,o),
(648,-229,cs),
(648,-311,o),
(698,-358,o),
(779,-358,cs),
(814,-358,l),
(778,-327,l),
(778,-559,l)
);
},
{
closed = 1;
nodes = (
(754,-289,o),
(738,-265,o),
(738,-229,cs),
(738,-195,o),
(758,-175,o),
(788,-175,cs),
(794,-175,l),
(794,-289,l),
(789,-289,ls)
);
},
{
ref = "to-khmer";
}
);
width = 1763;
},
{
anchors = (
{
name = bottom;
pos = (1270,-559);
},
{
name = bottomright;
pos = (1797,-559);
},
{
name = top;
pos = (1278,1234);
},
{
name = topright;
pos = (1797,1234);
}
);
associatedMasterId = "5C20EF92-B63D-42A8-8878-93C2863E0093";
color = 6;
layerId = "0D73F2A7-FC57-4420-BA81-74DC5A6CEF69";
name = "Apr 6 22, 12:45";
shapes = (
{
closed = 1;
nodes = (
(1124,-559,l),
(1270,-407,l),
(1417,-559,l),
(1797,-559,l),
(1797,685,ls),
(1797,757,o),
(1760,772,o),
(1711,789,cs),
(1545,843,l),
(1595,736,l),
(1595,838,ls),
(1595,876,o),
(1615,895,o),
(1655,895,cs),
(1840,895,l),
(1840,1234,l),
(1630,1234,ls),
(1372,1234,o),
(1307,1097,o),
(1307,907,cs),
(1307,734,l),
(1403,690,l),
(1403,-277,l),
(1396,-277,l),
(1289,-176,l),
(1252,-176,l),
(1146,-277,l),
(1139,-277,l),
(1139,-92,l),
(794,-92,ls),
(698,-92,o),
(632,-149,o),
(632,-249,cs),
(632,-349,o),
(698,-405,o),
(794,-405,cs),
(821,-405,l),
(760,-382,l),
(760,-559,l)
);
},
{
closed = 1;
nodes = (
(768,-307,o),
(755,-278,o),
(755,-249,cs),
(755,-213,o),
(781,-195,o),
(813,-195,cs),
(822,-195,l),
(822,-307,l),
(813,-307,ls)
);
},
{
pos = (1,0);
ref = "to-khmer";
}
);
width = 1938;
}
);
script = khmer;
subCategory = Other;
unicode = 6049;
}
{
category = Letter;
glyphname = "qa-khmer";
layers = (
{
anchors = (
{
name = bottom;
pos = (685,0);
},
{
name = bottomright;
pos = (1107,0);
},
{
name = top;
pos = (685,1234);
},
{
name = topright;
pos = (1107,1234);
}
);
layerId = "B1F27B51-9973-4381-9301-4FE46FE1CA59";
shapes = (
{
closed = 1;
nodes = (
(1083,572,l),
(1083,616,l),
(393,616,l),
(393,572,l)
);
},
{
closed = 1;
nodes = (
(403,0,l),
(403,896,ls),
(403,917,o),
(394,926,o),
(378,931,cs),
(223,984,l),
(237,963,l),
(237,1047,ls),
(237,1150,o),
(289,1187,o),
(375,1187,cs),
(464,1187,l),
(464,1234,l),
(375,1234,ls),
(261,1234,o),
(194,1180,o),
(194,1047,cs),
(194,951,l),
(357,895,l),
(357,343,l),
(386,374,l),
(338,374,ls),
(225,374,o),
(154,303,o),
(154,184,cs),
(154,68,o),
(225,0,o),
(338,0,cs)
);
},
{
closed = 1;
nodes = (
(250,41,o),
(196,96,o),
(196,184,cs),
(196,276,o),
(249,333,o),
(335,333,cs),
(357,333,l),
(357,41,l),
(338,41,ls)
);
},
{
closed = 1;
nodes = (
(1100,0,l),
(1100,896,ls),
(1100,917,o),
(1091,926,o),
(1075,931,cs),
(920,984,l),
(934,963,l),
(934,1047,ls),
(934,1150,o),
(986,1187,o),
(1072,1187,cs),
(1161,1187,l),
(1161,1234,l),
(1072,1234,ls),
(958,1234,o),
(891,1180,o),
(891,1047,cs),
(891,951,l),
(1054,895,l),
(1054,343,l),
(1083,374,l),
(1035,374,ls),
(922,374,o),
(851,303,o),
(851,184,cs),
(851,68,o),
(922,0,o),
(1035,0,cs)
);
},
{
closed = 1;
nodes = (
(947,41,o),
(894,96,o),
(894,184,cs),
(894,276,o),
(946,333,o),
(1032,333,cs),
(1054,333,l),
(1054,41,l),
(1035,41,ls)
);
}
);
width = 1333;
},
{
anchors = (
{
name = bottom;
pos = (697,0);
},
{
name = bottomright;
pos = (1177,0);
},
{
name = top;
pos = (697,1234);
},
{
name = topright;
pos = (1177,1234);
}
);
hints = (
{
horizontal = 1;
origin = (1,27);
target = (2,8);
type = Stem;
},
{
horizontal = 1;
origin = (2,5);
target = (1,21);
type = Stem;
},
{
horizontal = 1;
origin = (0,3);
target = (0,2);
type = Stem;
},
{
horizontal = 1;
origin = (1,13);
target = (1,10);
type = Stem;
},
{
origin = (1,24);
target = (2,2);
type = Stem;
},
{
origin = (1,19);
target = (1,0);
type = Stem;
},
{
origin = (3,24);
target = (4,2);
type = Stem;
},
{
origin = (3,19);
target = (3,0);
type = Stem;
},
{
origin = (3,17);
target = (3,6);
type = Stem;
},
{
origin = (1,17);
target = (1,6);
type = Stem;
}
);
layerId = "C698F293-3EC0-4A5A-A3A0-0FDB1F5CF265";
shapes = (
{
closed = 1;
nodes = (
(1057,514,l),
(1057,653,l),
(413,653,l),
(413,514,l)
);
},
{
closed = 1;
nodes = (
(501,0,l),
(501,816,ls),
(501,859,o),
(488,878,o),
(444,894,cs),
(300,947,l),
(314,887,l),
(314,974,ls),
(314,1046,o),
(351,1077,o),
(426,1077,cs),
(524,1077,l),
(524,1234,l),
(419,1234,ls),
(251,1234,o),
(170,1156,o),
(170,977,cs),
(170,855,l),
(333,795,l),
(333,357,l),
(361,413,l),
(333,413,ls),
(202,413,o),
(132,336,o),
(132,207,cs),
(132,81,o),
(198,0,o),
(342,0,cs)
);
},
{
closed = 1;
nodes = (
(285,111,o),
(253,143,o),
(253,206,cs),
(253,259,o),
(273,310,o),
(338,310,cs),
(349,310,l),
(349,111,l),
(334,111,ls)
);
},
{
closed = 1;
nodes = (
(1177,0,l),
(1177,816,ls),
(1177,859,o),
(1164,878,o),
(1121,894,cs),
(976,947,l),
(991,887,l),
(991,974,ls),
(991,1046,o),
(1027,1077,o),
(1103,1077,cs),
(1201,1077,l),
(1201,1234,l),
(1096,1234,ls),
(928,1234,o),
(847,1156,o),
(847,977,cs),
(847,855,l),
(1010,795,l),
(1010,357,l),
(1038,413,l),
(1010,413,ls),
(878,413,o),
(809,336,o),
(809,207,cs),
(809,81,o),
(875,0,o),
(1019,0,cs)
);
},
{
closed = 1;
nodes = (
(962,111,o),
(930,143,o),
(930,206,cs),
(930,259,o),
(950,310,o),
(1015,310,cs),
(1026,310,l),
(1026,111,l),
(1011,111,ls)
);
}
);
width = 1391;
},
{
anchors = (
{
name = bottom;
pos = (739,0);
},
{
name = bottomright;
pos = (1320,0);
},
{
name = top;
pos = (739,1234);
},
{
name = topright;
pos = (1320,1234);
}
);
layerId = "5C20EF92-B63D-42A8-8878-93C2863E0093";
shapes = (
{
closed = 1;
nodes = (
(1173,458,l),
(1173,632,l),
(502,632,l),
(502,458,l)
);
},
{
closed = 1;
nodes = (
(640,0,l),
(640,685,ls),
(640,750,o),
(609,771,o),
(554,789,cs),
(362,851,l),
(412,736,l),
(412,838,ls),
(412,876,o),
(434,895,o),
(480,895,cs),
(668,895,l),
(668,1234,l),
(462,1234,ls),
(192,1234,o),
(124,1090,o),
(124,891,cs),
(124,737,l),
(246,678,l),
(246,357,l),
(308,414,l),
(286,414,ls),
(159,414,o),
(80,340,o),
(80,207,cs),
(80,74,o),
(162,0,o),
(325,0,cs)
);
},
{
closed = 1;
nodes = (
(299,138,o),
(272,162,o),
(272,206,cs),
(272,244,o),
(287,282,o),
(336,282,cs),
(346,282,l),
(346,138,l),
(334,138,ls)
);
},
{
closed = 1;
nodes = (
(1318,0,l),
(1318,685,ls),
(1318,750,o),
(1287,771,o),
(1233,789,cs),
(1040,851,l),
(1090,736,l),
(1090,838,ls),
(1090,876,o),
(1113,895,o),
(1158,895,cs),
(1346,895,l),
(1346,1234,l),
(1140,1234,ls),
(870,1234,o),
(802,1090,o),
(802,891,cs),
(802,737,l),
(924,678,l),
(924,357,l),
(986,414,l),
(964,414,ls),
(837,414,o),
(758,340,o),
(758,207,cs),
(758,74,o),
(840,0,o),
(1003,0,cs)
);
},
{
closed = 1;
nodes = (
(977,138,o),
(950,162,o),
(950,206,cs),
(950,244,o),
(966,282,o),
(1014,282,cs),
(1025,282,l),
(1025,138,l),
(1012,138,ls)
);
}
);
width = 1460;
}
);
script = khmer;
subCategory = Other;
unicode = 6050;
}
{
category = Letter;
glyphname = "qi-khmer";
layers = (
{
layerId = "B1F27B51-9973-4381-9301-4FE46FE1CA59";
shapes = (
{
closed = 1;
nodes = (
(959,0,l),
(1006,0,l),
(1006,582,ls),
(1006,811,o),
(856,955,o),
(619,955,cs),
(383,955,o),
(233,811,o),
(233,582,cs),
(233,0,l),
(304,0,ls),
(421,0,o),
(495,68,o),
(495,184,cs),
(495,303,o),
(421,374,o),
(304,374,cs),
(249,374,l),
(279,343,l),
(279,582,ls),
(279,783,o),
(407,908,o),
(619,908,cs),
(831,908,o),
(959,783,o),
(959,582,cs)
);
},
{
closed = 1;
nodes = (
(279,41,l),
(279,333,l),
(307,333,ls),
(397,333,o),
(453,276,o),
(453,184,cs),
(453,96,o),
(396,41,o),
(304,41,cs)
);
},
{
closed = 1;
nodes = (
(889,1187,ls),
(975,1187,o),
(1013,1220,o),
(1013,1303,cs),
(1013,1374,l),
(968,1374,l),
(968,1303,ls),
(968,1254,o),
(950,1234,o),
(890,1234,cs),
(226,1234,l),
(226,1187,l)
);
}
);
width = 1238;
},
{
hints = (
{
horizontal = 1;
origin = (0,9);
target = (1,0);
type = Stem;
},
{
horizontal = 1;
origin = (0,22);
target = (0,5);
type = Stem;
},
{
horizontal = 1;
origin = (2,10);
target = (2,11);
type = Stem;
},
{
origin = (0,9);
target = (1,0);
type = Stem;
},
{
origin = (1,5);
target = (0,13);
type = Stem;
},
{
origin = (2,6);
target = (2,3);
type = Stem;
},
{
origin = (0,0);
target = (0,1);
type = Stem;
},
{
origin = (0,9);
target = (0,18);
type = Stem;
}
);
layerId = "C698F293-3EC0-4A5A-A3A0-0FDB1F5CF265";
shapes = (
{
closed = 1;
nodes = (
(934,0,l),
(1102,0,l),
(1102,514,ls),
(1102,755,o),
(922,920,o),
(658,920,cs),
(394,920,o),
(214,755,o),
(214,514,cs),
(214,0,l),
(400,0,ls),
(546,0,o),
(617,83,o),
(617,210,cs),
(617,338,o),
(538,413,o),
(407,413,cs),
(354,413,l),
(381,357,l),
(381,505,ls),
(381,661,o),
(493,768,o),
(658,768,cs),
(822,768,o),
(934,661,o),
(934,505,cs)
);
},
{
closed = 1;
nodes = (
(377,111,l),
(377,310,l),
(398,310,ls),
(457,310,o),
(492,273,o),
(492,210,cs),
(492,148,o),
(458,111,o),
(402,111,cs)
);
},
{
closed = 1;
nodes = (
(915,1077,ls),
(1038,1077,o),
(1109,1131,o),
(1109,1247,cs),
(1109,1374,l),
(944,1374,l),
(944,1267,ls),
(944,1243,o),
(935,1234,o),
(910,1234,cs),
(207,1234,l),
(207,1077,l)
);
}
);
width = 1316;
},
{
layerId = "5C20EF92-B63D-42A8-8878-93C2863E0093";
shapes = (
{
closed = 1;
nodes = (
(818,0,l),
(1212,0,l),
(1212,414,ls),
(1212,672,o),
(1027,831,o),
(677,831,cs),
(325,831,o),
(141,672,o),
(141,414,cs),
(141,0,l),
(490,0,ls),
(635,0,o),
(709,74,o),
(709,207,cs),
(709,340,o),
(632,414,o),
(506,414,cs),
(500,414,l),
(536,357,l),
(536,397,ls),
(536,481,o),
(589,537,o),
(677,537,cs),
(763,537,o),
(818,481,o),
(818,397,cs)
);
},
{
closed = 1;
nodes = (
(462,140,l),
(462,279,l),
(472,279,ls),
(521,279,o),
(536,244,o),
(536,207,cs),
(536,163,o),
(509,140,o),
(474,140,cs)
);
},
{
closed = 1;
nodes = (
(944,895,ls),
(1122,895,o),
(1220,993,o),
(1220,1171,cs),
(1220,1336,l),
(832,1336,l),
(832,1254,ls),
(832,1242,o),
(825,1234,o),
(813,1234,cs),
(134,1234,l),
(134,895,l)
);
}
);
width = 1353;
}
);
script = khmer;
subCategory = Other;
unicode = 6053;
}
{
category = Letter;
glyphname = "qii-khmer";
layers = (
{
layerId = "B1F27B51-9973-4381-9301-4FE46FE1CA59";
shapes = (
{
closed = 1;
nodes = (
(1193,-559,ls),
(1373,-559,o),
(1455,-478,o),
(1455,-293,cs),
(1455,1494,ls),
(1455,1648,o),
(1353,1770,o),
(1176,1770,cs),
(1030,1770,o),
(959,1682,o),
(931,1630,c),
(926,1630,l),
(926,1909,l),
(880,1909,l),
(880,1467,l),
(926,1467,l),
(926,1475,ls),
(926,1623,o),
(1027,1724,o),
(1176,1724,cs),
(1328,1724,o),
(1409,1623,o),
(1409,1494,cs),
(1409,-293,ls),
(1409,-447,o),
(1350,-514,o),
(1193,-514,cs),
(920,-514,l),
(920,-559,l)
);
},
{
closed = 1;
nodes = (
(343,-358,l),
(367,-358,ls),
(422,-358,o),
(455,-389,o),
(455,-439,cs),
(455,-489,o),
(421,-520,o),
(365,-520,cs),
(343,-520,l)
);
},
{
closed = 1;
nodes = (
(365,-559,ls),
(445,-559,o),
(494,-516,o),
(494,-439,cs),
(494,-363,o),
(445,-320,o),
(365,-320,cs),
(334,-320,l),
(341,-352,l),
(341,-335,ls),
(341,-207,o),
(452,-138,o),
(619,-138,cs),
(787,-138,o),
(896,-207,o),
(896,-335,cs),
(896,-559,l),
(941,-559,l),
(941,-335,ls),
(941,-178,o),
(808,-93,o),
(619,-93,cs),
(430,-93,o),
(298,-178,o),
(298,-335,cs),
(298,-559,l)
);
},
{
closed = 1;
nodes = (
(279,333,l),
(307,333,ls),
(397,333,o),
(453,276,o),
(453,184,cs),
(453,96,o),
(396,41,o),
(304,41,cs),
(279,41,l)
);
},
{
closed = 1;
nodes = (
(304,0,ls),
(421,0,o),
(495,68,o),
(495,184,cs),
(495,303,o),
(421,374,o),
(304,374,cs),
(249,374,l),
(279,343,l),
(279,876,ls),
(279,1077,o),
(407,1202,o),
(619,1202,cs),
(831,1202,o),
(959,1077,o),
(959,876,cs),
(959,0,l),
(1006,0,l),
(1006,876,ls),
(1006,1105,o),
(856,1249,o),
(619,1249,cs),
(383,1249,o),
(233,1105,o),
(233,876,cs),
(233,0,l)
);
}
);
width = 1688;
},
{
hints = (
{
horizontal = 1;
origin = (2,21);
target = (2,12);
type = Stem;
},
{
horizontal = 1;
origin = (4,25);
target = (3,8);
type = Stem;
},
{
horizontal = 1;
origin = (4,21);
target = (4,12);
type = Stem;
},
{
horizontal = 1;
origin = (0,19);
target = (0,7);
type = Stem;
},
{
origin = (4,25);
target = (4,8);
type = Stem;
},
{
origin = (4,16);
target = (4,17);
type = Stem;
},
{
origin = (0,23);
target = (0,3);
type = Stem;
},
{
origin = (2,16);
target = (2,17);
type = Stem;
},
{
origin = (2,25);
target = (2,9);
type = Stem;
},
{
horizontal = 1;
origin = (0,28);
target = (0,27);
type = Stem;
}
);
layerId = "C698F293-3EC0-4A5A-A3A0-0FDB1F5CF265";
shapes = (
{
closed = 1;
nodes = (
(1256,-559,ls),
(1520,-559,o),
(1634,-441,o),
(1634,-224,cs),
(1634,1490,ls),
(1634,1676,o),
(1489,1803,o),
(1287,1803,cs),
(1147,1803,o),
(1060,1741,o),
(1020,1672,c),
(1011,1672,l),
(1011,1956,l),
(848,1956,l),
(848,1467,l),
(1017,1467,l),
(1017,1473,ls),
(1017,1581,o),
(1105,1655,o),
(1251,1655,cs),
(1379,1655,o),
(1467,1579,o),
(1467,1467,cs),
(1467,-215,ls),
(1467,-345,o),
(1403,-425,o),
(1256,-425,cs),
(912,-425,l),
(912,-559,l)
);
},
{
closed = 1;
nodes = (
(426,-386,l),
(445,-386,ls),
(474,-386,o),
(493,-406,o),
(493,-436,cs),
(493,-466,o),
(474,-486,o),
(445,-486,cs),
(426,-486,l)
);
},
{
closed = 1;
nodes = (
(460,-559,ls),
(543,-559,o),
(592,-514,o),
(592,-437,cs),
(592,-362,o),
(543,-318,o),
(460,-318,cs),
(418,-318,l),
(439,-373,l),
(439,-362,ls),
(439,-279,o),
(518,-223,o),
(658,-223,cs),
(794,-223,o),
(875,-279,o),
(875,-371,cs),
(875,-559,l),
(1032,-559,l),
(1032,-360,ls),
(1032,-191,o),
(904,-93,o),
(658,-93,cs),
(411,-93,o),
(284,-191,o),
(284,-360,cs),
(284,-559,l)
);
},
{
closed = 1;
nodes = (
(377,310,l),
(398,310,ls),
(457,310,o),
(492,273,o),
(492,210,cs),
(492,148,o),
(458,111,o),
(402,111,cs),
(377,111,l)
);
},
{
closed = 1;
nodes = (
(400,0,ls),
(546,0,o),
(617,83,o),
(617,210,cs),
(617,338,o),
(538,413,o),
(407,413,cs),
(354,413,l),
(381,357,l),
(381,831,ls),
(381,987,o),
(493,1094,o),
(658,1094,cs),
(822,1094,o),
(934,987,o),
(934,831,cs),
(934,0,l),
(1102,0,l),
(1102,840,ls),
(1102,1081,o),
(922,1246,o),
(658,1246,cs),
(394,1246,o),
(214,1081,o),
(214,840,cs),
(214,0,l)
);
}
);
width = 1848;
},
{
layerId = "5C20EF92-B63D-42A8-8878-93C2863E0093";
shapes = (
{
closed = 1;
nodes = (
(1384,-559,ls),
(1738,-559,o),
(1858,-429,o),
(1858,-231,cs),
(1858,1442,ls),
(1858,1704,o),
(1693,1831,o),
(1481,1831,cs),
(1286,1831,o),
(1206,1735,o),
(1174,1661,c),
(1162,1661,l),
(1162,1956,l),
(792,1956,l),
(792,1417,l),
(1163,1417,l),
(1163,1425,ls),
(1163,1513,o),
(1228,1559,o),
(1313,1559,cs),
(1408,1559,o),
(1464,1503,o),
(1464,1425,cs),
(1464,-188,ls),
(1464,-297,o),
(1425,-359,o),
(1324,-359,cs),
(986,-359,l),
(986,-559,l)
);
},
{
closed = 1;
nodes = (
(506,-387,l),
(515,-387,ls),
(546,-387,o),
(562,-402,o),
(562,-432,cs),
(562,-463,o),
(546,-479,o),
(515,-479,cs),
(506,-479,l)
);
},
{
closed = 1;
nodes = (
(564,-559,ls),
(643,-559,o),
(687,-512,o),
(687,-432,cs),
(687,-350,o),
(644,-314,o),
(571,-314,cs),
(565,-314,l),
(564,-355,l),
(579,-355,l),
(579,-314,o),
(610,-278,o),
(680,-278,cs),
(753,-278,o),
(789,-317,o),
(789,-378,cs),
(789,-559,l),
(1153,-559,l),
(1153,-369,ls),
(1153,-186,o),
(1019,-78,o),
(680,-78,cs),
(339,-78,o),
(205,-187,o),
(205,-369,cs),
(205,-559,l)
);
},
{
closed = 1;
nodes = (
(462,279,l),
(472,279,ls),
(521,279,o),
(536,244,o),
(536,207,cs),
(536,163,o),
(509,140,o),
(474,140,cs),
(462,140,l)
);
},
{
closed = 1;
nodes = (
(490,0,ls),
(635,0,o),
(709,74,o),
(709,207,cs),
(709,340,o),
(632,414,o),
(506,414,cs),
(500,414,l),
(536,357,l),
(536,816,ls),
(536,899,o),
(592,955,o),
(684,955,cs),
(775,955,o),
(833,899,o),
(833,816,cs),
(833,0,l),
(1227,0,l),
(1227,832,ls),
(1227,1090,o),
(1039,1249,o),
(684,1249,cs),
(327,1249,o),
(141,1090,o),
(141,832,cs),
(141,0,l)
);
}
);
width = 2000;
}
);
script = khmer;
subCategory = Other;
unicode = 6054;
}
{
category = Letter;
glyphname = "qu-khmer";
layers = (
{
layerId = "B1F27B51-9973-4381-9301-4FE46FE1CA59";
shapes = (
{
closed = 1;
nodes = (
(725,-15,o),
(861,88,o),
(913,231,c),
(920,231,l),
(920,0,l),
(965,0,l),
(965,443,l),
(920,443,l),
(920,405,ls),
(920,185,o),
(748,31,o),
(541,31,cs),
(362,31,o),
(237,148,o),
(237,323,cs),
(237,469,o),
(323,553,o),
(482,577,cs),
(677,607,ls),
(854,634,o),
(987,715,o),
(987,912,cs),
(987,1135,o),
(816,1249,o),
(603,1249,cs),
(388,1249,o),
(244,1131,o),
(197,960,c),
(242,946,l),
(289,1105,o),
(413,1202,o),
(604,1202,cs),
(803,1202,o),
(940,1097,o),
(940,913,cs),
(940,694,o),
(744,662,o),
(670,651,cs),
(474,621,ls),
(287,593,o),
(191,489,o),
(191,322,cs),
(191,100,o),
(357,-15,o),
(546,-15,cs)
);
}
);
width = 1174;
},
{
hints = (
{
horizontal = 1;
origin = (0,44);
target = (0,11);
type = Stem;
},
{
horizontal = 1;
origin = (0,24);
target = (0,31);
type = Stem;
},
{
horizontal = 1;
origin = (0,4);
target = up;
type = BottomGhost;
},
{
origin = (0,41);
target = (0,14);
type = Stem;
},
{
origin = (0,8);
target = (0,5);
type = Stem;
},
{
origin = (0,34);
target = (0,21);
type = Stem;
}
);
layerId = "C698F293-3EC0-4A5A-A3A0-0FDB1F5CF265";
shapes = (
{
closed = 1;
nodes = (
(736,-15,o),
(840,63,o),
(891,167,c),
(899,167,l),
(899,0,l),
(1065,0,l),
(1065,426,l),
(898,426,l),
(898,401,ls),
(898,269,o),
(757,137,o),
(572,137,cs),
(432,137,o),
(352,202,o),
(352,331,cs),
(352,455,o),
(429,504,o),
(520,516,cs),
(723,544,ls),
(952,575,o),
(1089,679,o),
(1089,885,cs),
(1089,1105,o),
(912,1249,o),
(643,1249,cs),
(377,1249,o),
(218,1109,o),
(188,917,c),
(361,886,l),
(380,1007,o),
(484,1097,o),
(643,1097,cs),
(803,1097,o),
(911,1011,o),
(911,885,cs),
(911,765,o),
(817,710,o),
(694,694,cs),
(506,669,ls),
(298,642,o),
(178,539,o),
(178,326,cs),
(178,91,o),
(333,-15,o),
(547,-15,cs)
);
}
);
width = 1282;
},
{
layerId = "5C20EF92-B63D-42A8-8878-93C2863E0093";
shapes = (
{
closed = 1;
nodes = (
(661,-15,o),
(739,53,o),
(776,116,c),
(787,116,l),
(787,0,l),
(1165,0,l),
(1165,403,l),
(772,403,l),
(772,351,ls),
(772,276,o),
(725,224,o),
(642,224,cs),
(566,224,o),
(509,268,o),
(509,338,cs),
(509,399,o),
(553,445,o),
(661,455,cs),
(797,469,ls),
(1038,494,o),
(1203,601,o),
(1203,838,cs),
(1203,1123,o),
(963,1249,o),
(665,1249,cs),
(328,1249,o),
(131,1091,o),
(124,812,c),
(517,812,l),
(522,896,o),
(573,955,o),
(664,955,cs),
(741,955,o),
(800,911,o),
(800,832,cs),
(800,753,o),
(740,710,o),
(639,701,cs),
(490,688,ls),
(244,667,o),
(116,547,o),
(116,328,cs),
(116,100,o),
(254,-15,o),
(479,-15,cs)
);
}
);
width = 1307;
}
);
script = khmer;
subCategory = Other;
unicode = 6055;
}
{
category = Letter;
glyphname = "quk-khmer";
layers = (
{
layerId = "B1F27B51-9973-4381-9301-4FE46FE1CA59";
shapes = (
{
closed = 1;
nodes = (
(972,1511,l),
(972,1557,l),
(228,1557,l),
(228,1511,l)
);
},
{
ref = "qu-khmer";
}
);
width = 1174;
},
{
hints = (
{
horizontal = 1;
origin = (0,3);
target = (0,2);
type = Stem;
}
);
layerId = "C698F293-3EC0-4A5A-A3A0-0FDB1F5CF265";
shapes = (
{
closed = 1;
nodes = (
(1067,1467,l),
(1067,1618,l),
(231,1618,l),
(231,1467,l)
);
},
{
ref = "qu-khmer";
}
);
width = 1282;
},
{
layerId = "5C20EF92-B63D-42A8-8878-93C2863E0093";
shapes = (
{
closed = 1;
nodes = (
(1176,1394,l),
(1176,1643,l),
(164,1643,l),
(164,1394,l)
);
},
{
ref = "qu-khmer";
}
);
width = 1307;
}
);
metricWidth = "qu-khmer";
script = khmer;
subCategory = Other;
unicode = 6056;
}
{
category = Letter;
glyphname = "quu-khmer";
layers = (
{
layerId = "B1F27B51-9973-4381-9301-4FE46FE1CA59";
shapes = (
{
closed = 1;
nodes = (
(687,-15,o),
(803,84,o),
(855,220,c),
(862,220,l),
(862,0,l),
(907,0,l),
(907,442,l),
(862,442,l),
(862,405,ls),
(862,189,o),
(715,31,o),
(520,31,cs),
(357,31,o),
(237,140,o),
(237,317,cs),
(237,465,o),
(323,553,o),
(482,577,cs),
(677,607,ls),
(854,634,o),
(987,715,o),
(987,912,cs),
(987,1135,o),
(816,1249,o),
(603,1249,cs),
(388,1249,o),
(244,1131,o),
(197,960,c),
(242,946,l),
(289,1105,o),
(413,1202,o),
(604,1202,cs),
(803,1202,o),
(940,1097,o),
(940,913,cs),
(940,694,o),
(744,662,o),
(670,651,cs),
(474,621,ls),
(287,593,o),
(191,485,o),
(191,317,cs),
(191,119,o),
(325,-15,o),
(520,-15,cs)
);
},
{
closed = 1;
nodes = (
(1081,0,l),
(1081,442,l),
(1036,442,l),
(1036,0,l)
);
}
);
width = 1174;
},
{
hints = (
{
horizontal = 1;
origin = (0,44);
target = (0,11);
type = Stem;
},
{
horizontal = 1;
origin = (0,24);
target = (0,31);
type = Stem;
},
{
horizontal = 1;
origin = (0,4);
target = up;
type = BottomGhost;
},
{
origin = (0,41);
target = (0,14);
type = Stem;
},
{
origin = (1,3);
target = (1,0);
type = Stem;
},
{
origin = (0,8);
target = (0,5);
type = Stem;
},
{
origin = (0,34);
target = (0,21);
type = Stem;
}
);
layerId = "C698F293-3EC0-4A5A-A3A0-0FDB1F5CF265";
shapes = (
{
closed = 1;
nodes = (
(669,-15,o),
(754,57,o),
(811,145,c),
(819,145,l),
(819,0,l),
(971,0,l),
(971,426,l),
(818,426,l),
(818,401,ls),
(818,268,o),
(696,134,o),
(531,134,cs),
(416,134,o),
(352,201,o),
(352,322,cs),
(352,435,o),
(409,501,o),
(520,516,cs),
(723,544,ls),
(952,575,o),
(1089,680,o),
(1089,881,cs),
(1089,1123,o),
(891,1249,o),
(642,1249,cs),
(377,1249,o),
(218,1109,o),
(188,917,c),
(361,886,l),
(380,1007,o),
(484,1097,o),
(645,1097,cs),
(798,1097,o),
(911,1015,o),
(911,885,cs),
(911,765,o),
(817,710,o),
(694,694,cs),
(506,669,ls),
(288,641,o),
(178,523,o),
(178,318,cs),
(178,111,o),
(290,-15,o),
(506,-15,cs)
);
},
{
closed = 1;
nodes = (
(1222,0,l),
(1222,426,l),
(1071,426,l),
(1071,0,l)
);
}
);
width = 1282;
},
{
layerId = "5C20EF92-B63D-42A8-8878-93C2863E0093";
shapes = (
{
closed = 1;
nodes = (
(672,-15,o),
(750,54,o),
(787,116,c),
(798,116,l),
(798,0,l),
(1003,0,l),
(1003,403,l),
(783,403,l),
(783,351,ls),
(783,275,o),
(735,224,o),
(652,224,cs),
(576,224,o),
(518,268,o),
(518,338,cs),
(518,400,o),
(562,445,o),
(670,455,cs),
(805,469,ls),
(1046,494,o),
(1212,601,o),
(1212,838,cs),
(1212,1123,o),
(972,1249,o),
(674,1249,cs),
(337,1249,o),
(140,1091,o),
(132,817,c),
(525,817,l),
(532,902,o),
(586,955,o),
(673,955,cs),
(749,955,o),
(809,911,o),
(809,832,cs),
(809,753,o),
(749,710,o),
(648,701,cs),
(499,688,ls),
(253,667,o),
(125,547,o),
(125,329,cs),
(125,100,o),
(263,-15,o),
(488,-15,cs)
);
},
{
closed = 1;
nodes = (
(1280,0,l),
(1280,403,l),
(1090,403,l),
(1090,0,l)
);
}
);
width = 1307;
}
);
metricWidth = "qu-khmer";
script = khmer;
subCategory = Other;
unicode = 6057;
}
{
category = Letter;
glyphname = "ry-khmer";
layers = (
{
anchors = (
{
name = _indpTail;
pos = (991,73);
}
);
layerId = "B1F27B51-9973-4381-9301-4FE46FE1CA59";
shapes = (
{
closed = 1;
nodes = (
(867,-530,o),
(991,-415,o),
(991,-223,cs),
(991,-183,o),
(982,-144,o),
(968,-105,c),
(924,-105,l),
(939,-144,o),
(947,-183,o),
(947,-223,cs),
(947,-388,o),
(840,-486,o),
(648,-486,cs),
(517,-486,o),
(385,-445,o),
(240,-358,c),
(237,-358,l),
(237,-410,l),
(353,-473,o),
(488,-530,o),
(648,-530,cs)
);
},
{
ref = "ba-khmer";
}
);
width = 1224;
},
{
anchors = (
{
name = _indpTail;
pos = (1094,73);
}
);
hints = (
{
horizontal = 1;
origin = (0,12);
target = (0,20);
type = Stem;
},
{
horizontal = 1;
origin = (0,6);
target = down;
type = TopGhost;
},
{
origin = (0,9);
target = (0,2);
type = Stem;
}
);
layerId = "C698F293-3EC0-4A5A-A3A0-0FDB1F5CF265";
shapes = (
{
closed = 1;
nodes = (
(943,-556,o),
(1094,-449,o),
(1094,-231,cs),
(1094,-189,o),
(1087,-147,o),
(1075,-105,c),
(907,-105,l),
(918,-141,o),
(926,-178,o),
(926,-215,cs),
(926,-347,o),
(837,-409,o),
(664,-409,cs),
(531,-409,o),
(397,-365,o),
(247,-271,c),
(242,-271,l),
(242,-438,l),
(362,-504,o),
(498,-556,o),
(672,-556,cs)
);
},
{
ref = "ba-khmer";
}
);
width = 1308;
},
{
anchors = (
{
name = _indpTail;
pos = (1211,73);
}
);
layerId = "5C20EF92-B63D-42A8-8878-93C2863E0093";
shapes = (
{
closed = 1;
nodes = (
(1019,-565,o),
(1211,-466,o),
(1211,-203,cs),
(1211,-165,o),
(1205,-130,o),
(1196,-92,c),
(807,-92,l),
(815,-117,o),
(821,-139,o),
(821,-165,cs),
(821,-239,o),
(765,-271,o),
(628,-271,cs),
(487,-271,o),
(349,-244,o),
(197,-183,c),
(188,-183,l),
(188,-487,l),
(325,-537,o),
(463,-565,o),
(671,-565,cs)
);
},
{
ref = "ba-khmer";
}
);
width = 1352;
}
);
production = uni17AB;
script = khmer;
subCategory = Other;
unicode = 6059;
}
{
category = Letter;
glyphname = "ryy-khmer";
layers = (
{
anchors = (
{
name = _indpTail;
pos = (991,73);
}
);
layerId = "B1F27B51-9973-4381-9301-4FE46FE1CA59";
shapes = (
{
closed = 1;
nodes = (
(810,-530,o),
(910,-453,o),
(949,-344,c),
(952,-344,l),
(981,-411,o),
(1020,-464,o),
(1109,-518,c),
(1138,-483,l),
(1051,-437,o),
(984,-358,o),
(974,-272,c),
(974,-236,ls),
(974,-183,o),
(965,-144,o),
(947,-105,c),
(904,-105,l),
(922,-144,o),
(931,-183,o),
(931,-223,cs),
(931,-388,o),
(827,-486,o),
(642,-486,cs),
(514,-486,o),
(385,-445,o),
(240,-358,c),
(237,-358,l),
(237,-410,l),
(352,-473,o),
(485,-530,o),
(642,-530,cs)
);
},
{
ref = "ba-khmer";
}
);
width = 1224;
},
{
anchors = (
{
name = _indpTail;
pos = (1094,73);
}
);
hints = (
{
horizontal = 1;
origin = (0,21);
target = (0,29);
type = Stem;
},
{
horizontal = 1;
origin = (0,15);
target = down;
type = TopGhost;
},
{
origin = (0,18);
target = (0,10);
type = Stem;
}
);
layerId = "C698F293-3EC0-4A5A-A3A0-0FDB1F5CF265";
shapes = (
{
closed = 1;
nodes = (
(835,-556,o),
(922,-491,o),
(977,-415,c),
(983,-415,l),
(1007,-459,o),
(1046,-506,o),
(1121,-547,c),
(1225,-440,l),
(1137,-397,o),
(1073,-315,o),
(1073,-256,c),
(1073,-220,ls),
(1073,-176,o),
(1065,-140,o),
(1050,-105,c),
(884,-105,l),
(899,-140,o),
(907,-175,o),
(907,-211,cs),
(907,-329,o),
(809,-409,o),
(667,-409,cs),
(533,-409,o),
(398,-365,o),
(247,-271,c),
(242,-271,l),
(242,-438,l),
(357,-504,o),
(488,-556,o),
(656,-556,cs)
);
},
{
ref = "ba-khmer";
}
);
width = 1308;
},
{
anchors = (
{
name = _indpTail;
pos = (1211,73);
}
);
layerId = "5C20EF92-B63D-42A8-8878-93C2863E0093";
shapes = (
{
closed = 1;
nodes = (
(745,-565,o),
(869,-527,o),
(956,-435,c),
(965,-435,l),
(982,-474,o),
(1007,-513,o),
(1048,-551,c),
(1324,-433,l),
(1262,-365,o),
(1219,-259,o),
(1212,-217,c),
(1212,-180,ls),
(1212,-152,o),
(1206,-122,o),
(1194,-92,c),
(808,-92,l),
(816,-117,o),
(821,-139,o),
(821,-166,cs),
(821,-248,o),
(765,-284,o),
(628,-284,cs),
(488,-284,o),
(351,-252,o),
(197,-183,c),
(188,-183,l),
(188,-487,l),
(309,-537,o),
(434,-565,o),
(581,-565,cs)
);
},
{
ref = "ba-khmer";
}
);
width = 1352;
}
);
production = uni17AC;
script = khmer;
subCategory = Other;
unicode = 6060;
}
{
category = Letter;
glyphname = "ly-khmer";
layers = (
{
anchors = (
{
name = _indpTail;
pos = (1006,73);
}
);
layerId = "B1F27B51-9973-4381-9301-4FE46FE1CA59";
shapes = (
{
closed = 1;
nodes = (
(882,-530,o),
(1006,-415,o),
(1006,-223,cs),
(1006,-183,o),
(997,-144,o),
(982,-105,c),
(939,-105,l),
(953,-144,o),
(962,-183,o),
(962,-223,cs),
(962,-388,o),
(854,-486,o),
(663,-486,cs),
(531,-486,o),
(399,-445,o),
(255,-358,c),
(252,-358,l),
(252,-410,l),
(367,-473,o),
(503,-530,o),
(663,-530,cs)
);
},
{
ref = "po-khmer";
}
);
width = 1238;
},
{
anchors = (
{
name = _indpTail;
pos = (1102,73);
}
);
hints = (
{
horizontal = 1;
origin = (0,12);
target = (0,20);
type = Stem;
},
{
horizontal = 1;
origin = (0,6);
target = down;
type = TopGhost;
},
{
origin = (0,9);
target = (0,2);
type = Stem;
}
);
layerId = "C698F293-3EC0-4A5A-A3A0-0FDB1F5CF265";
shapes = (
{
closed = 1;
nodes = (
(950,-556,o),
(1102,-449,o),
(1102,-231,cs),
(1102,-189,o),
(1094,-147,o),
(1082,-105,c),
(914,-105,l),
(926,-141,o),
(934,-178,o),
(934,-215,cs),
(934,-347,o),
(844,-409,o),
(671,-409,cs),
(538,-409,o),
(404,-365,o),
(255,-271,c),
(249,-271,l),
(249,-438,l),
(370,-504,o),
(506,-556,o),
(680,-556,cs)
);
},
{
ref = "po-khmer";
}
);
width = 1316;
},
{
anchors = (
{
name = _indpTail;
pos = (1220,73);
}
);
layerId = "5C20EF92-B63D-42A8-8878-93C2863E0093";
shapes = (
{
closed = 1;
nodes = (
(1028,-565,o),
(1220,-466,o),
(1220,-203,cs),
(1220,-165,o),
(1214,-130,o),
(1205,-92,c),
(816,-92,l),
(824,-117,o),
(829,-139,o),
(829,-165,cs),
(829,-239,o),
(773,-271,o),
(637,-271,cs),
(496,-271,o),
(358,-244,o),
(206,-183,c),
(197,-183,l),
(197,-487,l),
(333,-537,o),
(472,-565,o),
(680,-565,cs)
);
},
{
ref = "po-khmer";
}
);
width = 1361;
}
);
production = uni17AD;
script = khmer;
subCategory = Other;
unicode = 6061;
}
{
category = Letter;
glyphname = "lyy-khmer";
layers = (
{
anchors = (
{
name = _indpTail;
pos = (1006,73);
}
);
layerId = "B1F27B51-9973-4381-9301-4FE46FE1CA59";
shapes = (
{
closed = 1;
nodes = (
(824,-530,o),
(924,-453,o),
(963,-344,c),
(966,-344,l),
(995,-411,o),
(1035,-464,o),
(1123,-518,c),
(1153,-483,l),
(1066,-437,o),
(998,-358,o),
(988,-272,c),
(988,-236,ls),
(988,-183,o),
(979,-144,o),
(962,-105,c),
(918,-105,l),
(936,-144,o),
(946,-183,o),
(946,-223,cs),
(946,-388,o),
(842,-486,o),
(657,-486,cs),
(528,-486,o),
(399,-445,o),
(255,-358,c),
(252,-358,l),
(252,-410,l),
(367,-473,o),
(499,-530,o),
(657,-530,cs)
);
},
{
ref = "po-khmer";
}
);
width = 1238;
},
{
anchors = (
{
name = _indpTail;
pos = (1102,73);
}
);
hints = (
{
horizontal = 1;
origin = (0,21);
target = (0,29);
type = Stem;
},
{
horizontal = 1;
origin = (0,15);
target = down;
type = TopGhost;
},
{
origin = (0,18);
target = (0,10);
type = Stem;
}
);
layerId = "C698F293-3EC0-4A5A-A3A0-0FDB1F5CF265";
shapes = (
{
closed = 1;
nodes = (
(842,-556,o),
(929,-491,o),
(984,-415,c),
(990,-415,l),
(1014,-459,o),
(1054,-506,o),
(1128,-547,c),
(1233,-440,l),
(1145,-397,o),
(1080,-315,o),
(1080,-256,c),
(1080,-220,ls),
(1080,-176,o),
(1073,-140,o),
(1057,-105,c),
(891,-105,l),
(906,-140,o),
(914,-175,o),
(914,-211,cs),
(914,-329,o),
(816,-409,o),
(675,-409,cs),
(541,-409,o),
(405,-365,o),
(255,-271,c),
(249,-271,l),
(249,-438,l),
(365,-504,o),
(496,-556,o),
(663,-556,cs)
);
},
{
ref = "po-khmer";
}
);
width = 1316;
},
{
anchors = (
{
name = _indpTail;
pos = (1220,73);
}
);
layerId = "5C20EF92-B63D-42A8-8878-93C2863E0093";
shapes = (
{
closed = 1;
nodes = (
(754,-565,o),
(878,-527,o),
(965,-435,c),
(974,-435,l),
(991,-474,o),
(1016,-513,o),
(1057,-551,c),
(1333,-433,l),
(1271,-365,o),
(1228,-259,o),
(1220,-217,c),
(1220,-180,ls),
(1220,-152,o),
(1215,-122,o),
(1203,-92,c),
(816,-92,l),
(824,-117,o),
(830,-139,o),
(830,-166,cs),
(830,-248,o),
(773,-284,o),
(637,-284,cs),
(497,-284,o),
(359,-252,o),
(206,-183,c),
(197,-183,l),
(197,-487,l),
(318,-537,o),
(443,-565,o),
(589,-565,cs)
);
},
{
ref = "po-khmer";
}
);
width = 1361;
}
);
production = uni17AE;
script = khmer;
subCategory = Other;
unicode = 6062;
}
{
category = Letter;
glyphname = "qe-khmer";
layers = (
{
layerId = "B1F27B51-9973-4381-9301-4FE46FE1CA59";
shapes = (
{
closed = 1;
nodes = (
(233,0,l),
(278,0,l),
(618,374,l),
(621,374,l),
(960,0,l),
(1006,0,l),
(1006,867,ls),
(1006,1078,o),
(854,1222,o),
(623,1222,cs),
(429,1222,o),
(322,1126,o),
(285,1046,c),
(279,1046,l),
(279,1374,l),
(233,1374,l),
(233,896,l),
(279,896,l),
(279,906,ls),
(279,1067,o),
(426,1177,o),
(623,1177,cs),
(827,1177,o),
(959,1051,o),
(959,867,cs),
(959,71,l),
(956,71,l),
(634,424,l),
(605,424,l),
(282,71,l),
(279,71,l),
(279,543,ls),
(279,611,o),
(243,652,o),
(164,652,cs),
(90,652,l),
(90,608,l),
(164,608,ls),
(214,608,o),
(233,583,o),
(233,540,cs)
);
}
);
width = 1238;
},
{
hints = (
{
horizontal = 1;
origin = (0,0);
target = up;
type = BottomGhost;
},
{
horizontal = 1;
origin = (0,36);
target = (0,35);
type = Stem;
},
{
horizontal = 1;
origin = (0,21);
target = (0,9);
type = Stem;
},
{
origin = (0,25);
target = (0,5);
type = Stem;
},
{
origin = (0,0);
target = (0,30);
type = Stem;
}
);
layerId = "C698F293-3EC0-4A5A-A3A0-0FDB1F5CF265";
shapes = (
{
closed = 1;
nodes = (
(214,0,l),
(380,0,l),
(655,284,l),
(661,284,l),
(936,0,l),
(1102,0,l),
(1102,853,ls),
(1102,1075,o),
(939,1221,o),
(695,1221,cs),
(530,1221,o),
(437,1153,o),
(386,1075,c),
(377,1075,l),
(377,1374,l),
(214,1374,l),
(214,838,l),
(383,838,l),
(383,844,ls),
(383,978,o),
(496,1070,o),
(663,1070,cs),
(836,1070,o),
(934,972,o),
(934,829,cs),
(934,204,l),
(926,204,l),
(679,459,l),
(637,459,l),
(390,204,l),
(381,204,l),
(381,509,ls),
(381,593,o),
(338,640,o),
(242,640,cs),
(114,640,l),
(114,504,l),
(169,504,ls),
(201,504,o),
(214,487,o),
(214,458,cs)
);
}
);
width = 1316;
},
{
layerId = "5C20EF92-B63D-42A8-8878-93C2863E0093";
shapes = (
{
closed = 1;
nodes = (
(140,0,l),
(530,0,l),
(670,186,l),
(679,186,l),
(819,0,l),
(1212,0,l),
(1212,878,ls),
(1212,1099,o),
(1068,1220,o),
(831,1220,cs),
(645,1220,o),
(563,1142,o),
(530,1081,c),
(518,1081,l),
(518,1336,l),
(140,1336,l),
(140,830,l),
(533,830,l),
(533,837,ls),
(533,923,o),
(594,969,o),
(675,969,cs),
(764,969,o),
(817,913,o),
(817,838,cs),
(817,359,l),
(808,359,l),
(707,490,l),
(642,490,l),
(541,359,l),
(531,359,l),
(531,496,ls),
(531,605,o),
(477,664,o),
(349,664,cs),
(51,664,l),
(51,427,l),
(109,427,ls),
(130,427,o),
(140,416,o),
(140,396,cs)
);
}
);
width = 1353;
}
);
production = uni17AF;
script = khmer;
subCategory = Other;
unicode = 6063;
}
{
category = Letter;
glyphname = "qai-khmer";
layers = (
{
layerId = "B1F27B51-9973-4381-9301-4FE46FE1CA59";
shapes = (
{
closed = 1;
nodes = (
(517,-570,o),
(554,-544,o),
(597,-496,cs),
(672,-409,l),
(639,-409,l),
(706,-489,ls),
(759,-552,o),
(814,-560,o),
(857,-560,cs),
(949,-560,o),
(1006,-491,o),
(1006,-403,cs),
(1006,1102,ls),
(1006,1190,o),
(960,1239,o),
(884,1239,cs),
(817,1239,o),
(768,1207,o),
(701,1134,cs),
(619,1045,l),
(537,1134,ls),
(470,1207,o),
(422,1239,o),
(354,1239,cs),
(278,1239,o),
(233,1190,o),
(233,1102,cs),
(233,0,l),
(304,0,ls),
(421,0,o),
(495,68,o),
(495,184,cs),
(495,303,o),
(421,374,o),
(304,374,cs),
(249,374,l),
(279,343,l),
(279,1102,ls),
(279,1163,o),
(307,1197,o),
(354,1197,cs),
(410,1197,o),
(451,1163,o),
(505,1107,cs),
(616,989,l),
(622,989,l),
(733,1107,ls),
(787,1163,o),
(829,1197,o),
(884,1197,cs),
(931,1197,o),
(959,1163,o),
(959,1102,cs),
(959,-144,l),
(976,-121,l),
(291,-204,l),
(291,-419,ls),
(291,-514,o),
(360,-570,o),
(444,-570,cs)
);
},
{
closed = 1;
nodes = (
(384,-527,o),
(338,-480,o),
(338,-416,cs),
(338,-240,l),
(959,-164,l),
(959,-400,ls),
(959,-464,o),
(921,-517,o),
(857,-517,cs),
(811,-517,o),
(776,-506,o),
(740,-464,cs),
(666,-378,l),
(644,-378,l),
(565,-468,ls),
(527,-512,o),
(491,-527,o),
(449,-527,cs)
);
},
{
closed = 1;
nodes = (
(279,333,l),
(307,333,ls),
(397,333,o),
(453,276,o),
(453,184,cs),
(453,96,o),
(396,41,o),
(304,41,cs),
(279,41,l)
);
}
);
width = 1238;
},
{
hints = (
{
horizontal = 1;
origin = (0,59);
target = (1,17);
type = Stem;
},
{
horizontal = 1;
origin = (0,27);
target = (2,8);
type = Stem;
},
{
horizontal = 1;
origin = (0,23);
target = (0,40);
type = Stem;
},
{
horizontal = 1;
origin = (0,8);
target = (1,8);
type = Stem;
},
{
origin = (0,27);
target = (0,36);
type = Stem;
},
{
origin = (2,4);
target = (0,31);
type = Stem;
},
{
origin = (0,53);
target = (0,11);
type = Stem;
},
{
origin = (0,56);
target = (1,2);
type = Stem;
}
);
layerId = "C698F293-3EC0-4A5A-A3A0-0FDB1F5CF265";
shapes = (
{
closed = 1;
nodes = (
(544,-570,o),
(603,-557,o),
(667,-493,cs),
(725,-432,l),
(669,-432,l),
(731,-489,ls),
(792,-545,o),
(851,-559,o),
(898,-559,cs),
(1024,-559,o),
(1102,-487,o),
(1102,-362,cs),
(1102,1041,ls),
(1102,1169,o),
(1030,1240,o),
(910,1240,cs),
(846,1240,o),
(789,1225,o),
(700,1147,cs),
(658,1110,l),
(616,1147,ls),
(526,1225,o),
(469,1240,o),
(406,1240,cs),
(286,1240,o),
(214,1169,o),
(214,1041,cs),
(214,0,l),
(400,0,ls),
(546,0,o),
(617,83,o),
(617,210,cs),
(617,338,o),
(538,413,o),
(407,413,cs),
(354,413,l),
(381,357,l),
(381,1008,ls),
(381,1057,o),
(407,1084,o),
(450,1084,cs),
(489,1084,o),
(526,1058,o),
(578,1008,cs),
(638,952,l),
(677,952,l),
(737,1008,ls),
(791,1059,o),
(827,1084,o),
(866,1084,cs),
(909,1084,o),
(934,1057,o),
(934,1008,cs),
(934,-169,l),
(1038,-76,l),
(281,-166,l),
(281,-390,ls),
(281,-501,o),
(362,-570,o),
(479,-570,cs)
);
},
{
closed = 1;
nodes = (
(469,-441,o),
(437,-412,o),
(437,-366,cs),
(437,-259,l),
(946,-196,l),
(946,-342,ls),
(946,-397,o),
(912,-429,o),
(864,-429,cs),
(834,-429,o),
(807,-410,o),
(771,-380,cs),
(720,-335,l),
(672,-335,l),
(623,-386,ls),
(582,-426,o),
(546,-441,o),
(514,-441,cs)
);
},
{
closed = 1;
nodes = (
(377,310,l),
(398,310,ls),
(457,310,o),
(492,273,o),
(492,210,cs),
(492,148,o),
(458,111,o),
(402,111,cs),
(377,111,l)
);
}
);
width = 1316;
},
{
layerId = "5C20EF92-B63D-42A8-8878-93C2863E0093";
shapes = (
{
closed = 1;
nodes = (
(571,-570,o),
(650,-546,o),
(703,-487,cs),
(749,-434,l),
(680,-434,l),
(730,-485,ls),
(780,-536,o),
(840,-560,o),
(932,-560,cs),
(1113,-560,o),
(1220,-480,o),
(1220,-329,cs),
(1220,1010,ls),
(1220,1158,o),
(1126,1240,o),
(970,1240,cs),
(876,1240,o),
(803,1227,o),
(701,1147,cs),
(680,1131,l),
(660,1147,ls),
(567,1220,o),
(496,1240,o),
(391,1240,cs),
(234,1240,o),
(141,1158,o),
(141,1010,cs),
(141,0,l),
(490,0,ls),
(635,0,o),
(709,74,o),
(709,207,cs),
(709,340,o),
(632,414,o),
(506,414,cs),
(500,414,l),
(536,357,l),
(536,913,ls),
(536,938,o),
(549,952,o),
(571,952,cs),
(592,952,o),
(612,941,o),
(639,914,cs),
(669,883,l),
(691,883,l),
(722,914,ls),
(749,942,o),
(770,952,o),
(789,952,cs),
(811,952,o),
(825,938,o),
(825,913,cs),
(825,-143,l),
(876,-90,l),
(199,-136,l),
(199,-340,ls),
(199,-485,o),
(290,-570,o),
(473,-570,cs)
);
},
{
closed = 1;
nodes = (
(579,-383,o),
(557,-360,o),
(557,-320,cs),
(557,-244,l),
(862,-222,l),
(862,-305,ls),
(862,-345,o),
(837,-369,o),
(804,-369,cs),
(784,-369,o),
(766,-365,o),
(754,-355,cs),
(720,-330,l),
(696,-330,l),
(667,-359,ls),
(652,-374,o),
(631,-383,o),
(612,-383,cs)
);
},
{
closed = 1;
nodes = (
(462,279,l),
(472,279,ls),
(521,279,o),
(536,244,o),
(536,207,cs),
(536,163,o),
(509,140,o),
(474,140,cs),
(462,140,l)
);
}
);
width = 1361;
}
);
production = uni17B0;
script = khmer;
subCategory = Other;
unicode = 6064;
}
{
category = Letter;
glyphname = "qooVariant-khmer";
layers = (
{
layerId = "B1F27B51-9973-4381-9301-4FE46FE1CA59";
shapes = (
{
closed = 1;
nodes = (
(867,-15,o),
(1020,99,o),
(1020,291,cs),
(1020,477,o),
(883,546,o),
(803,566,c),
(803,572,l),
(891,605,o),
(1013,676,o),
(1013,828,cs),
(1013,976,o),
(910,1077,o),
(736,1077,cs),
(673,1077,o),
(611,1062,o),
(568,1049,c),
(568,1000,l),
(615,1016,o),
(680,1032,o),
(736,1032,cs),
(885,1032,o),
(966,950,o),
(966,828,cs),
(966,683,o),
(821,592,o),
(696,592,cs),
(595,592,l),
(595,546,l),
(696,546,ls),
(824,546,o),
(974,464,o),
(974,291,cs),
(974,128,o),
(841,32,o),
(643,32,cs),
(421,32,o),
(279,143,o),
(279,308,cs),
(279,1024,ls),
(279,1222,o),
(404,1339,o),
(614,1339,cs),
(721,1339,o),
(842,1313,o),
(928,1263,c),
(928,1317,l),
(832,1358,o),
(736,1385,o),
(614,1385,cs),
(373,1385,o),
(233,1252,o),
(233,1024,cs),
(233,308,ls),
(233,116,o),
(388,-15,o),
(643,-15,cs)
);
}
);
width = 1228;
},
{
hints = (
{
horizontal = 1;
origin = (0,55);
target = (0,34);
type = Stem;
},
{
horizontal = 1;
origin = (0,27);
target = (0,26);
type = Stem;
},
{
horizontal = 1;
origin = (0,19);
target = (0,12);
type = Stem;
},
{
horizontal = 1;
origin = (0,41);
target = (0,48);
type = Stem;
},
{
origin = (0,52);
target = (0,37);
type = Stem;
},
{
origin = (0,31);
target = (0,2);
type = Stem;
},
{
origin = (0,22);
target = (0,9);
type = Stem;
}
);
layerId = "C698F293-3EC0-4A5A-A3A0-0FDB1F5CF265";
shapes = (
{
closed = 1;
nodes = (
(939,-13,o),
(1103,104,o),
(1103,301,cs),
(1103,466,o),
(991,528,o),
(916,553,c),
(916,562,l),
(993,596,o),
(1094,660,o),
(1094,806,cs),
(1094,969,o),
(982,1062,o),
(795,1062,cs),
(719,1062,o),
(648,1048,o),
(606,1035,c),
(606,887,l),
(645,901,o),
(705,915,o),
(760,915,cs),
(868,915,o),
(932,868,o),
(932,788,cs),
(932,693,o),
(851,629,o),
(735,629,cs),
(626,629,l),
(626,485,l),
(735,485,ls),
(856,485,o),
(941,414,o),
(941,310,cs),
(941,199,o),
(837,135,o),
(661,135,cs),
(477,135,o),
(362,231,o),
(362,375,cs),
(362,933,ls),
(362,1133,o),
(473,1238,o),
(676,1238,cs),
(785,1238,o),
(910,1219,o),
(999,1184,c),
(999,1345,l),
(899,1372,o),
(799,1388,o),
(669,1388,cs),
(363,1388,o),
(196,1240,o),
(196,951,cs),
(196,370,ls),
(196,135,o),
(357,-13,o),
(653,-13,cs)
);
}
);
width = 1234;
},
{
layerId = "5C20EF92-B63D-42A8-8878-93C2863E0093";
shapes = (
{
closed = 1;
nodes = (
(1038,-15,o),
(1214,108,o),
(1214,314,cs),
(1214,451,o),
(1131,502,o),
(988,533,c),
(988,548,l),
(1111,581,o),
(1192,636,o),
(1192,782,cs),
(1192,950,o),
(1081,1027,o),
(837,1027,cs),
(741,1027,o),
(670,1013,o),
(635,1003,c),
(635,769,l),
(656,777,o),
(695,785,o),
(731,785,cs),
(785,785,o),
(824,757,o),
(824,717,cs),
(824,656,o),
(779,640,o),
(711,640,cs),
(645,640,l),
(645,439,l),
(711,439,ls),
(795,439,o),
(835,399,o),
(835,344,cs),
(835,281,o),
(773,250,o),
(685,250,cs),
(571,250,o),
(504,309,o),
(504,397,cs),
(504,890,ls),
(504,1050,o),
(564,1140,o),
(763,1140,cs),
(875,1140,o),
(1003,1119,o),
(1094,1086,c),
(1094,1381,l),
(977,1401,o),
(869,1412,o),
(716,1412,cs),
(318,1412,o),
(116,1253,o),
(116,920,cs),
(116,381,ls),
(116,127,o),
(290,-15,o),
(675,-15,cs)
);
}
);
width = 1316;
}
);
production = uni17B2;
script = khmer;
subCategory = Other;
unicode = 6066;
}
{
category = Letter;
glyphname = "aaSign-khmer";
layers = (
{
layerId = "B1F27B51-9973-4381-9301-4FE46FE1CA59";
shapes = (
{
closed = 1;
nodes = (
(307,0,l),
(354,0,l),
(354,994,ls),
(354,1156,o),
(244,1249,o),
(93,1249,cs),
(19,1249,o),
(-62,1225,o),
(-135,1173,c),
(-135,1123,l),
(-134,1123,l),
(-57,1176,o),
(20,1202,o),
(93,1202,cs),
(223,1202,o),
(307,1124,o),
(307,994,cs)
);
}
);
width = 586;
},
{
hints = (
{
horizontal = 1;
origin = (0,0);
target = up;
type = BottomGhost;
},
{
horizontal = 1;
origin = (0,5);
target = (0,13);
type = Stem;
},
{
origin = (0,0);
target = (0,1);
type = Stem;
}
);
layerId = "C698F293-3EC0-4A5A-A3A0-0FDB1F5CF265";
shapes = (
{
closed = 1;
nodes = (
(244,0,l),
(412,0,l),
(412,964,ls),
(412,1153,o),
(295,1249,o),
(127,1249,cs),
(37,1249,o),
(-47,1225,o),
(-112,1185,c),
(-112,1035,l),
(-107,1035,l),
(-48,1073,o),
(12,1095,o),
(75,1095,cs),
(179,1095,o),
(244,1037,o),
(244,930,cs)
);
}
);
width = 626;
},
{
layerId = "5C20EF92-B63D-42A8-8878-93C2863E0093";
shapes = (
{
closed = 1;
nodes = (
(140,0,l),
(534,0,l),
(534,875,ls),
(534,1110,o),
(395,1249,o),
(133,1249,cs),
(1,1249,o),
(-95,1223,o),
(-150,1198,c),
(-150,882,l),
(-141,882,l),
(-107,899,o),
(-58,915,o),
(1,915,cs),
(88,915,o),
(140,866,o),
(140,782,cs)
);
}
);
width = 675;
}
);
script = khmer;
subCategory = Other;
unicode = 6070;
}
{
category = Mark;
glyphname = "iMark-khmer";
layers = (
{
anchors = (
{
name = _topright;
pos = (788,1234);
}
);
layerId = "B1F27B51-9973-4381-9301-4FE46FE1CA59";
shapes = (
{
closed = 1;
nodes = (
(50,1467,l),
(788,1467,l),
(788,1511,l),
(717,1690,o),
(570,1828,o),
(359,1828,cs),
(177,1828,o),
(50,1724,o),
(50,1511,cs)
);
},
{
closed = 1;
nodes = (
(95,1511,l),
(95,1692,o),
(195,1784,o),
(356,1784,cs),
(544,1784,o),
(680,1660,o),
(740,1511,c)
);
}
);
width = 838;
},
{
anchors = (
{
name = _topright;
pos = (879,1234);
}
);
hints = (
{
horizontal = 1;
origin = (0,0);
target = (1,0);
type = Stem;
},
{
horizontal = 1;
origin = (0,5);
target = (1,3);
type = Stem;
},
{
origin = (0,0);
target = (1,0);
type = Stem;
}
);
layerId = "C698F293-3EC0-4A5A-A3A0-0FDB1F5CF265";
shapes = (
{
closed = 1;
nodes = (
(50,1467,l),
(879,1467,l),
(879,1575,l),
(760,1768,o),
(619,1887,o),
(403,1887,cs),
(197,1887,o),
(50,1778,o),
(50,1566,cs)
);
},
{
closed = 1;
nodes = (
(217,1577,l),
(217,1686,o),
(283,1749,o),
(405,1749,cs),
(536,1749,o),
(643,1676,o),
(697,1577,c)
);
}
);
width = 929;
},
{
anchors = (
{
name = _topright;
pos = (1093,1234);
}
);
layerId = "5C20EF92-B63D-42A8-8878-93C2863E0093";
shapes = (
{
closed = 1;
nodes = (
(50,1397,l),
(1093,1397,l),
(1093,1496,l),
(1000,1748,o),
(768,1909,o),
(507,1909,cs),
(262,1909,o),
(50,1782,o),
(50,1496,cs)
);
},
{
closed = 1;
nodes = (
(398,1547,l),
(398,1618,o),
(440,1666,o),
(521,1666,cs),
(610,1666,o),
(683,1609,o),
(712,1547,c)
);
}
);
width = 1143;
}
);
metricLeft = "=50";
metricRight = "=|";
script = khmer;
subCategory = Nonspacing;
unicode = 6071;
}
{
category = Mark;
glyphname = "iiMark-khmer";
layers = (
{
anchors = (
{
name = _topright;
pos = (788,1234);
}
);
layerId = "B1F27B51-9973-4381-9301-4FE46FE1CA59";
shapes = (
{
closed = 1;
nodes = (
(50,1467,l),
(788,1467,l),
(788,1909,l),
(745,1909,l),
(745,1583,l),
(739,1583,l),
(663,1733,o),
(533,1828,o),
(359,1828,cs),
(178,1828,o),
(50,1724,o),
(50,1511,cs)
);
},
{
closed = 1;
nodes = (
(95,1511,l),
(95,1692,o),
(196,1784,o),
(356,1784,cs),
(543,1784,o),
(675,1658,o),
(734,1511,c)
);
}
);
width = 838;
},
{
anchors = (
{
name = _topright;
pos = (879,1234);
}
);
hints = (
{
horizontal = 1;
origin = (0,0);
target = (1,0);
type = Stem;
},
{
horizontal = 1;
origin = (0,8);
target = (1,3);
type = Stem;
},
{
origin = (0,0);
target = (1,0);
type = Stem;
},
{
origin = (0,4);
target = (0,1);
type = Stem;
}
);
layerId = "C698F293-3EC0-4A5A-A3A0-0FDB1F5CF265";
shapes = (
{
closed = 1;
nodes = (
(50,1467,l),
(879,1467,l),
(879,1956,l),
(722,1956,l),
(722,1748,l),
(713,1748,l),
(668,1802,o),
(571,1887,o),
(405,1887,cs),
(193,1887,o),
(50,1778,o),
(50,1566,cs)
);
},
{
closed = 1;
nodes = (
(217,1577,l),
(217,1686,o),
(280,1749,o),
(408,1749,cs),
(524,1749,o),
(642,1682,o),
(697,1577,c)
);
}
);
width = 929;
},
{
anchors = (
{
name = _topright;
pos = (1093,1234);
}
);
layerId = "5C20EF92-B63D-42A8-8878-93C2863E0093";
shapes = (
{
closed = 1;
nodes = (
(50,1397,l),
(1093,1397,l),
(1093,1956,l),
(771,1956,l),
(771,1794,l),
(757,1794,l),
(698,1853,o),
(611,1909,o),
(462,1909,cs),
(242,1909,o),
(50,1782,o),
(50,1496,cs)
);
},
{
closed = 1;
nodes = (
(398,1547,l),
(398,1618,o),
(440,1666,o),
(521,1666,cs),
(609,1666,o),
(682,1610,o),
(712,1547,c)
);
}
);
width = 1143;
}
);
metricLeft = "=50";
metricRight = "=|";
script = khmer;
subCategory = Nonspacing;
unicode = 6072;
}
{
category = Mark;
glyphname = "yMark-khmer";
layers = (
{
anchors = (
{
name = _topright;
pos = (788,1234);
}
);
layerId = "B1F27B51-9973-4381-9301-4FE46FE1CA59";
shapes = (
{
closed = 1;
nodes = (
(50,1467,l),
(788,1467,l),
(788,1511,l),
(771,1542,o),
(739,1586,o),
(717,1612,c),
(719,1604,l),
(817,1604,o),
(893,1677,o),
(893,1767,cs),
(893,1861,o),
(822,1933,o),
(728,1933,cs),
(635,1933,o),
(564,1861,o),
(564,1767,cs),
(564,1743,o),
(577,1715,o),
(594,1692,c),
(610,1708,l),
(547,1775,o),
(451,1828,o),
(337,1828,cs),
(178,1828,o),
(50,1724,o),
(50,1511,cs)
);
},
{
closed = 1;
nodes = (
(95,1511,l),
(95,1692,o),
(196,1784,o),
(334,1784,cs),
(533,1784,o),
(685,1594,o),
(744,1511,c)
);
},
{
closed = 1;
nodes = (
(662,1643,o),
(608,1698,o),
(608,1767,cs),
(608,1837,o),
(659,1890,o),
(728,1890,cs),
(798,1890,o),
(849,1837,o),
(849,1767,cs),
(849,1698,o),
(795,1643,o),
(728,1643,cs)
);
}
);
width = 943;
},
{
anchors = (
{
name = _topright;
pos = (899,1234);
}
);
hints = (
{
horizontal = 1;
origin = (0,0);
target = (1,0);
type = Stem;
},
{
horizontal = 1;
origin = (0,22);
target = (1,3);
type = Stem;
},
{
horizontal = 1;
origin = (2,5);
target = (0,12);
type = Stem;
},
{
origin = (0,0);
target = (1,0);
type = Stem;
},
{
origin = (2,8);
target = (0,9);
type = Stem;
}
);
layerId = "C698F293-3EC0-4A5A-A3A0-0FDB1F5CF265";
shapes = (
{
closed = 1;
nodes = (
(50,1467,l),
(879,1467,l),
(879,1532,l),
(863,1565,o),
(834,1607,o),
(812,1634,c),
(755,1611,l),
(870,1611,o),
(954,1691,o),
(954,1796,cs),
(954,1904,o),
(870,1985,o),
(762,1985,cs),
(652,1985,o),
(568,1904,o),
(568,1797,c),
(584,1774,o),
(605,1748,o),
(628,1727,c),
(655,1778,l),
(601,1841,o),
(503,1887,o),
(397,1887,cs),
(184,1887,o),
(50,1768,o),
(50,1566,cs)
);
},
{
closed = 1;
nodes = (
(217,1577,l),
(217,1686,o),
(281,1749,o),
(410,1749,cs),
(522,1749,o),
(635,1682,o),
(689,1577,c)
);
},
{
closed = 1;
nodes = (
(717,1716,o),
(683,1751,o),
(683,1796,cs),
(683,1840,o),
(717,1876,o),
(761,1876,cs),
(804,1876,o),
(839,1840,o),
(839,1796,cs),
(839,1751,o),
(804,1716,o),
(761,1716,cs)
);
}
);
width = 1004;
},
{
anchors = (
{
name = _topright;
pos = (1093,1234);
}
);
layerId = "5C20EF92-B63D-42A8-8878-93C2863E0093";
shapes = (
{
closed = 1;
nodes = (
(50,1397,l),
(1093,1397,l),
(1093,1497,l),
(1072,1519,o),
(1043,1543,o),
(1019,1560,c),
(887,1492,l),
(1041,1492,o),
(1147,1592,o),
(1147,1738,cs),
(1147,1885,o),
(1037,1985,o),
(887,1985,cs),
(736,1985,o),
(626,1885,o),
(626,1738,c),
(669,1711,o),
(712,1681,o),
(754,1657,c),
(754,1747,l),
(694,1851,o),
(567,1909,o),
(432,1909,cs),
(228,1909,o),
(50,1782,o),
(50,1496,cs)
);
},
{
closed = 1;
nodes = (
(398,1547,l),
(398,1618,o),
(440,1666,o),
(521,1666,cs),
(608,1666,o),
(682,1612,o),
(712,1547,c)
);
},
{
closed = 1;
nodes = (
(852,1674,o),
(825,1700,o),
(825,1738,cs),
(825,1777,o),
(852,1803,o),
(887,1803,cs),
(922,1803,o),
(949,1777,o),
(949,1738,cs),
(949,1700,o),
(922,1674,o),
(887,1674,cs)
);
}
);
width = 1197;
}
);
metricLeft = "=50";
metricRight = "=|";
script = khmer;
subCategory = Nonspacing;
unicode = 6073;
}
{
category = Mark;
glyphname = "yyMark-khmer";
layers = (
{
anchors = (
{
name = _topright;
pos = (788,1234);
}
);
layerId = "B1F27B51-9973-4381-9301-4FE46FE1CA59";
shapes = (
{
closed = 1;
nodes = (
(788,1467,l),
(788,1909,l),
(745,1909,l),
(745,1583,l),
(739,1583,l),
(666,1722,o),
(533,1828,o),
(355,1828,cs),
(179,1828,o),
(50,1724,o),
(50,1511,cs),
(50,1467,l)
);
},
{
closed = 1;
nodes = (
(95,1692,o),
(196,1784,o),
(356,1784,cs),
(543,1784,o),
(675,1658,o),
(734,1511,c),
(95,1511,l)
);
},
{
closed = 1;
nodes = (
(563,1758,l),
(563,1933,l),
(519,1933,l),
(519,1758,l)
);
}
);
width = 838;
},
{
anchors = (
{
name = _topright;
pos = (879,1234);
}
);
hints = (
{
horizontal = 1;
origin = (0,11);
target = (1,6);
type = Stem;
},
{
horizontal = 1;
origin = (0,7);
target = (1,2);
type = Stem;
},
{
origin = (0,11);
target = (1,6);
type = Stem;
},
{
origin = (2,3);
target = (2,0);
type = Stem;
},
{
origin = (0,3);
target = (0,0);
type = Stem;
}
);
layerId = "C698F293-3EC0-4A5A-A3A0-0FDB1F5CF265";
shapes = (
{
closed = 1;
nodes = (
(879,1467,l),
(879,1956,l),
(726,1956,l),
(726,1740,l),
(718,1740,l),
(672,1795,o),
(572,1881,o),
(402,1881,cs),
(191,1881,o),
(50,1774,o),
(50,1566,cs),
(50,1467,l)
);
},
{
closed = 1;
nodes = (
(217,1686,o),
(280,1749,o),
(408,1749,cs),
(524,1749,o),
(642,1682,o),
(697,1577,c),
(217,1577,l)
);
},
{
closed = 1;
nodes = (
(588,1786,l),
(588,1985,l),
(435,1985,l),
(435,1786,l)
);
}
);
width = 929;
},
{
anchors = (
{
name = _topright;
pos = (1093,1234);
}
);
layerId = "5C20EF92-B63D-42A8-8878-93C2863E0093";
shapes = (
{
closed = 1;
nodes = (
(1093,1397,l),
(1093,1957,l),
(830,1957,l),
(830,1727,l),
(817,1727,l),
(736,1813,o),
(600,1893,o),
(405,1893,cs),
(213,1893,o),
(50,1770,o),
(50,1496,cs),
(50,1397,l)
);
},
{
closed = 1;
nodes = (
(398,1619,o),
(440,1667,o),
(521,1667,cs),
(609,1667,o),
(682,1611,o),
(712,1547,c),
(398,1547,l)
);
},
{
closed = 1;
nodes = (
(721,1755,l),
(721,1985,l),
(463,1985,l),
(463,1755,l)
);
}
);
width = 1143;
}
);
metricLeft = "=50";
metricRight = "=|";
script = khmer;
subCategory = Nonspacing;
unicode = 6074;
}
{
category = Mark;
glyphname = "uMark-khmer";
layers = (
{
anchors = (
{
name = _bottomright;
pos = (222,0);
}
);
layerId = "B1F27B51-9973-4381-9301-4FE46FE1CA59";
shapes = (
{
closed = 1;
nodes = (
(177,-559,l),
(222,-559,l),
(222,-212,ls),
(222,-141,o),
(189,-105,o),
(124,-105,cs),
(50,-105,l),
(50,-147,l),
(118,-147,ls),
(157,-147,o),
(177,-169,o),
(177,-212,cs)
);
}
);
width = 272;
},
{
anchors = (
{
name = _bottomright;
pos = (313,0);
}
);
hints = (
{
horizontal = 1;
origin = (0,0);
target = up;
type = BottomGhost;
},
{
horizontal = 1;
origin = (0,6);
target = (0,7);
type = Stem;
},
{
origin = (0,0);
target = (0,1);
type = Stem;
}
);
layerId = "C698F293-3EC0-4A5A-A3A0-0FDB1F5CF265";
shapes = (
{
closed = 1;
nodes = (
(157,-559,l),
(313,-559,l),
(313,-263,ls),
(313,-148,o),
(276,-105,o),
(176,-105,cs),
(50,-105,l),
(50,-226,l),
(119,-226,ls),
(146,-226,o),
(157,-238,o),
(157,-269,cs)
);
}
);
width = 363;
},
{
anchors = (
{
name = _bottomright;
pos = (525,0);
}
);
layerId = "5C20EF92-B63D-42A8-8878-93C2863E0093";
shapes = (
{
closed = 1;
nodes = (
(152,-559,l),
(525,-559,l),
(525,-258,ls),
(525,-130,o),
(475,-93,o),
(346,-93,cs),
(50,-93,l),
(50,-262,l),
(124,-262,ls),
(148,-262,o),
(152,-271,o),
(152,-290,cs)
);
}
);
width = 575;
}
);
metricLeft = "=50";
metricRight = "=|";
script = khmer;
subCategory = Nonspacing;
unicode = 6075;
}
{
category = Mark;
color = 1;
glyphname = "uuMark-khmer";
layers = (
{
anchors = (
{
name = _bottomright;
pos = (527,0);
}
);
layerId = "B1F27B51-9973-4381-9301-4FE46FE1CA59";
shapes = (
{
closed = 1;
nodes = (
(451,-570,o),
(527,-493,o),
(527,-394,cs),
(527,-105,l),
(482,-105,l),
(482,-394,ls),
(482,-467,o),
(424,-525,o),
(334,-525,cs),
(243,-525,o),
(185,-467,o),
(185,-394,cs),
(185,-105,l),
(50,-105,l),
(50,-147,l),
(140,-147,l),
(140,-394,ls),
(140,-493,o),
(218,-570,o),
(334,-570,cs)
);
}
);
width = 577;
},
{
anchors = (
{
name = _bottomright;
pos = (654,0);
}
);
hints = (
{
horizontal = 1;
origin = (0,19);
target = (0,8);
type = Stem;
},
{
horizontal = 1;
origin = (0,13);
target = (0,14);
type = Stem;
},
{
origin = (0,16);
target = (0,11);
type = Stem;
},
{
origin = (0,5);
target = (0,2);
type = Stem;
}
);
layerId = "C698F293-3EC0-4A5A-A3A0-0FDB1F5CF265";
shapes = (
{
closed = 1;
nodes = (
(545,-570,o),
(654,-490,o),
(654,-365,cs),
(654,-105,l),
(500,-105,l),
(500,-356,ls),
(500,-412,o),
(454,-445,o),
(386,-445,cs),
(317,-445,o),
(271,-412,o),
(271,-356,cs),
(271,-105,l),
(50,-105,l),
(50,-218,l),
(117,-218,l),
(117,-365,ls),
(117,-490,o),
(226,-570,o),
(386,-570,cs)
);
}
);
width = 704;
},
{
anchors = (
{
name = _bottomright;
pos = (848,0);
}
);
background = {
anchors = (
{
name = _bottomright;
pos = (915,0);
}
);
shapes = (
{
closed = 1;
nodes = (
(792,-573,o),
(915,-487,o),
(915,-322,cs),
(915,-93,l),
(594,-93,l),
(594,-319,ls),
(594,-365,o),
(563,-391,o),
(511,-391,cs),
(458,-391,o),
(428,-365,o),
(428,-319,cs),
(428,-93,l),
(103,-93,l),
(103,-259,l),
(170,-259,l),
(170,-338,ls),
(170,-494,o),
(287,-573,o),
(522,-573,cs)
);
}
);
};
layerId = "5C20EF92-B63D-42A8-8878-93C2863E0093";
shapes = (
{
closed = 1;
nodes = (
(727,-573,o),
(848,-487,o),
(848,-322,cs),
(848,-93,l),
(526,-93,l),
(526,-319,ls),
(526,-365,o),
(498,-391,o),
(450,-391,cs),
(402,-391,o),
(375,-365,o),
(375,-319,cs),
(375,-93,l),
(50,-93,l),
(50,-259,l),
(117,-259,l),
(117,-338,ls),
(117,-494,o),
(231,-573,o),
(461,-573,cs)
);
}
);
width = 898;
},
{
anchors = (
{
name = _bottomright;
pos = (587,0);
}
);
associatedMasterId = "C698F293-3EC0-4A5A-A3A0-0FDB1F5CF265";
attr = {
axisRules = (
{
min = 500;
}
);
};
color = 6;
hints = (
{
horizontal = 1;
origin = (0,17);
target = (0,8);
type = Stem;
},
{
origin = (0,14);
target = (0,11);
type = Stem;
},
{
origin = (0,5);
target = (0,2);
type = Stem;
}
);
layerId = "5B5CAB87-FD7C-494B-93FA-E1876F2CCBA1";
name = "[wg<500]";
shapes = (
{
closed = 1;
nodes = (
(478,-570,o),
(587,-490,o),
(587,-365,cs),
(587,-105,l),
(433,-105,l),
(433,-356,ls),
(433,-412,o),
(387,-445,o),
(319,-445,cs),
(250,-445,o),
(204,-412,o),
(204,-356,cs),
(204,-105,l),
(50,-105,l),
(50,-365,ls),
(50,-490,o),
(159,-570,o),
(319,-570,cs)
);
}
);
width = 637;
},
{
anchors = (
{
name = _bottomright;
pos = (781,0);
}
);
associatedMasterId = "5C20EF92-B63D-42A8-8878-93C2863E0093";
attr = {
axisRules = (
{
min = 500;
}
);
};
background = {
anchors = (
{
name = _bottomright;
pos = (848,0);
}
);
shapes = (
{
closed = 1;
nodes = (
(725,-573,o),
(848,-487,o),
(848,-322,cs),
(848,-93,l),
(527,-93,l),
(527,-319,ls),
(527,-365,o),
(496,-391,o),
(444,-391,cs),
(391,-391,o),
(361,-365,o),
(361,-319,cs),
(361,-93,l),
(36,-93,l),
(36,-259,l),
(103,-259,l),
(103,-338,ls),
(103,-494,o),
(220,-573,o),
(455,-573,cs)
);
}
);
};
color = 6;
layerId = "7798CB59-F4EC-4D84-BAF4-7069FA867F83";
name = "21 Oct 22, 09:06";
shapes = (
{
closed = 1;
nodes = (
(660,-573,o),
(781,-487,o),
(781,-322,cs),
(781,-93,l),
(459,-93,l),
(459,-319,ls),
(459,-365,o),
(431,-391,o),
(383,-391,cs),
(335,-391,o),
(308,-365,o),
(308,-319,cs),
(308,-93,l),
(50,-93,l),
(50,-338,ls),
(50,-494,o),
(164,-573,o),
(394,-573,cs)
);
}
);
width = 831;
},
{
anchors = (
{
name = _bottomright;
pos = (437,0);
}
);
associatedMasterId = "B1F27B51-9973-4381-9301-4FE46FE1CA59";
attr = {
axisRules = (
{
min = 500;
}
);
};
color = 6;
layerId = "6EDDEB63-D30C-4A34-A8F2-8FF0C7B6680F";
name = "21 Oct 22, 11:16";
shapes = (
{
closed = 1;
nodes = (
(361,-570,o),
(437,-493,o),
(437,-394,cs),
(437,-105,l),
(392,-105,l),
(392,-394,ls),
(392,-467,o),
(334,-525,o),
(244,-525,cs),
(153,-525,o),
(95,-467,o),
(95,-394,cs),
(95,-105,l),
(50,-105,l),
(50,-394,ls),
(50,-493,o),
(128,-570,o),
(244,-570,cs)
);
}
);
width = 487;
}
);
metricLeft = "=50";
metricRight = "=|";
script = khmer;
subCategory = Nonspacing;
unicode = 6076;
}
{
category = Mark;
color = 1;
glyphname = "uaMark-khmer";
layers = (
{
anchors = (
{
name = _bottomright;
pos = (601,0);
}
);
layerId = "B1F27B51-9973-4381-9301-4FE46FE1CA59";
shapes = (
{
closed = 1;
nodes = (
(185,-559,l),
(371,-370,l),
(556,-559,l),
(601,-559,l),
(601,-105,l),
(556,-105,l),
(556,-490,l),
(552,-490,l),
(381,-316,l),
(359,-316,l),
(189,-490,l),
(185,-490,l),
(185,-105,l),
(50,-105,l),
(50,-147,l),
(140,-147,l),
(140,-559,l)
);
}
);
width = 651;
},
{
anchors = (
{
name = _bottomright;
pos = (669,0);
}
);
background = {
shapes = (
{
closed = 1;
nodes = (
(240,-559,l),
(382,-432,l),
(524,-559,l),
(670,-559,l),
(670,-105,l),
(517,-105,l),
(517,-401,l),
(510,-401,l),
(395,-301,l),
(367,-301,l),
(253,-401,l),
(246,-401,l),
(246,-105,l),
(27,-105,l),
(27,-218,l),
(94,-218,l),
(94,-559,l)
);
}
);
};
hints = (
{
horizontal = 1;
origin = (0,13);
target = (0,14);
type = Stem;
},
{
origin = (0,16);
target = (0,11);
type = Stem;
},
{
origin = (0,6);
target = (0,3);
type = Stem;
},
{
horizontal = 1;
origin = (0,2);
target = up;
type = BottomGhost;
}
);
layerId = "C698F293-3EC0-4A5A-A3A0-0FDB1F5CF265";
shapes = (
{
closed = 1;
nodes = (
(261,-559,l),
(392,-428,l),
(524,-559,l),
(670,-559,l),
(670,-105,l),
(517,-105,l),
(517,-404,l),
(510,-404,l),
(404,-301,l),
(378,-301,l),
(274,-404,l),
(267,-404,l),
(267,-105,l),
(50,-105,l),
(50,-218,l),
(117,-218,l),
(117,-559,l)
);
}
);
width = 720;
},
{
anchors = (
{
name = _bottomright;
pos = (867,0);
}
);
background = {
anchors = (
{
name = _bottomright;
pos = (867,0);
}
);
shapes = (
{
closed = 1;
nodes = (
(345,-559,l),
(458,-447,l),
(569,-559,l),
(867,-559,l),
(867,-93,l),
(547,-93,l),
(547,-350,l),
(540,-350,l),
(464,-276,l),
(448,-276,l),
(375,-350,l),
(369,-350,l),
(369,-93,l),
(117,-93,l),
(117,-559,l)
);
}
);
};
layerId = "5C20EF92-B63D-42A8-8878-93C2863E0093";
shapes = (
{
closed = 1;
nodes = (
(345,-559,l),
(458,-447,l),
(569,-559,l),
(867,-559,l),
(867,-93,l),
(547,-93,l),
(547,-350,l),
(540,-350,l),
(464,-276,l),
(448,-276,l),
(375,-350,l),
(369,-350,l),
(369,-93,l),
(50,-93,l),
(50,-259,l),
(117,-259,l),
(117,-559,l)
);
}
);
width = 917;
},
{
anchors = (
{
name = _bottomright;
pos = (625,0);
}
);
associatedMasterId = "C698F293-3EC0-4A5A-A3A0-0FDB1F5CF265";
attr = {
axisRules = (
{
min = 500;
}
);
};
color = 6;
hints = (
{
origin = (0,14);
target = (0,11);
type = Stem;
},
{
origin = (0,6);
target = (0,3);
type = Stem;
},
{
horizontal = 1;
origin = (0,2);
target = up;
type = BottomGhost;
}
);
layerId = "D2832B81-30CA-442C-810C-C64748609623";
name = "21 Oct 22, 09:00";
shapes = (
{
closed = 1;
nodes = (
(196,-559,l),
(338,-432,l),
(480,-559,l),
(626,-559,l),
(626,-105,l),
(473,-105,l),
(473,-401,l),
(466,-401,l),
(351,-301,l),
(323,-301,l),
(209,-401,l),
(202,-401,l),
(202,-105,l),
(50,-105,l),
(50,-559,l)
);
}
);
width = 676;
},
{
anchors = (
{
name = _bottomright;
pos = (818,0);
}
);
associatedMasterId = "5C20EF92-B63D-42A8-8878-93C2863E0093";
attr = {
axisRules = (
{
min = 500;
}
);
};
background = {
shapes = (
{
closed = 1;
nodes = (
(296,-559,l),
(409,-447,l),
(520,-559,l),
(818,-559,l),
(818,-93,l),
(498,-93,l),
(498,-350,l),
(491,-350,l),
(415,-276,l),
(399,-276,l),
(326,-350,l),
(320,-350,l),
(320,-93,l),
(1,-93,l),
(1,-259,l),
(68,-259,l),
(68,-559,l)
);
}
);
};
color = 6;
layerId = "7F0FF0B4-F485-49BA-A5B5-D09885239C16";
name = "21 Oct 22, 09:08";
shapes = (
{
closed = 1;
nodes = (
(296,-559,l),
(409,-447,l),
(520,-559,l),
(818,-559,l),
(818,-93,l),
(498,-93,l),
(498,-350,l),
(491,-350,l),
(415,-276,l),
(399,-276,l),
(326,-350,l),
(320,-350,l),
(320,-93,l),
(50,-93,l),
(50,-559,l)
);
}
);
width = 868;
},
{
anchors = (
{
name = _bottomright;
pos = (511,0);
}
);
associatedMasterId = "B1F27B51-9973-4381-9301-4FE46FE1CA59";
attr = {
axisRules = (
{
min = 500;
}
);
};
color = 6;
layerId = "8B8C159C-2116-4671-81C9-C3568C910963";
name = "21 Oct 22, 11:16";
shapes = (
{
closed = 1;
nodes = (
(95,-559,l),
(281,-370,l),
(466,-559,l),
(511,-559,l),
(511,-105,l),
(466,-105,l),
(466,-490,l),
(462,-490,l),
(291,-316,l),
(269,-316,l),
(99,-490,l),
(95,-490,l),
(95,-105,l),
(50,-105,l),
(50,-559,l)
);
}
);
width = 561;
}
);
metricLeft = "=50";
metricRight = "=|";
script = khmer;
subCategory = Nonspacing;
unicode = 6077;
}
{
category = Letter;
glyphname = "yaSign-khmer";
layers = (
{
background = {
shapes = (
{
closed = 1;
nodes = (
(192,-573,o),
(294,-476,o),
(294,-335,cs),
(294,1341,ls),
(294,1455,o),
(246,1511,o),
(142,1511,c),
(142,1467,l),
(215,1467,o),
(247,1425,o),
(247,1341,cs),
(247,-335,ls),
(247,-449,o),
(164,-528,o),
(7,-528,cs),
(-152,-528,o),
(-233,-449,o),
(-233,-335,cs),
(-233,-105,l),
(-279,-105,l),
(-279,-335,ls),
(-279,-476,o),
(-179,-573,o),
(7,-573,cs)
);
},
{
closed = 1;
nodes = (
(-551,1692,o),
(-447,1784,o),
(-287,1784,cs),
(-100,1784,o),
(30,1658,o),
(87,1511,c),
(-551,1511,l)
);
},
{
closed = 1;
nodes = (
(142,1467,l),
(142,1909,l),
(98,1909,l),
(98,1583,l),
(92,1583,l),
(22,1719,o),
(-108,1828,o),
(-287,1828,cs),
(-463,1828,o),
(-596,1724,o),
(-596,1511,cs),
(-596,1467,l)
);
},
{
closed = 1;
nodes = (
(-84,1758,l),
(-84,1933,l),
(-127,1933,l),
(-127,1758,l)
);
}
);
};
layerId = "B1F27B51-9973-4381-9301-4FE46FE1CA59";
shapes = (
{
closed = 1;
nodes = (
(192,-573,o),
(294,-476,o),
(294,-335,cs),
(294,1326,ls),
(294,1455,o),
(246,1501,o),
(149,1511,c),
(135,1467,l),
(214,1467,o),
(247,1425,o),
(247,1326,cs),
(247,-335,ls),
(247,-449,o),
(164,-528,o),
(7,-528,cs),
(-152,-528,o),
(-233,-449,o),
(-233,-335,cs),
(-233,-105,l),
(-279,-105,l),
(-279,-335,ls),
(-279,-476,o),
(-179,-573,o),
(7,-573,cs)
);
},
{
closed = 1;
nodes = (
(-507,1692,o),
(-406,1784,o),
(-251,1784,cs),
(-67,1784,o),
(60,1658,o),
(116,1511,c),
(-507,1511,l)
);
},
{
closed = 1;
nodes = (
(171,1467,l),
(171,1909,l),
(127,1909,l),
(127,1583,l),
(122,1583,l),
(52,1719,o),
(-75,1828,o),
(-251,1828,cs),
(-423,1828,o),
(-552,1724,o),
(-552,1511,cs),
(-552,1467,l)
);
},
{
closed = 1;
nodes = (
(-55,1758,l),
(-55,1933,l),
(-98,1933,l),
(-98,1758,l)
);
}
);
width = 527;
},
{
hints = (
{
horizontal = 1;
origin = (0,23);
target = (0,14);
type = Stem;
},
{
horizontal = 1;
origin = (0,19);
target = down;
type = TopGhost;
},
{
horizontal = 1;
origin = (2,11);
target = (1,6);
type = Stem;
},
{
horizontal = 1;
origin = (2,7);
target = (1,2);
type = Stem;
},
{
origin = (2,11);
target = (1,6);
type = Stem;
},
{
origin = (3,3);
target = (3,0);
type = Stem;
},
{
origin = (2,3);
target = (2,0);
type = Stem;
},
{
origin = (0,11);
target = (0,2);
type = Stem;
},
{
origin = (0,20);
target = (0,17);
type = Stem;
}
);
layerId = "C698F293-3EC0-4A5A-A3A0-0FDB1F5CF265";
shapes = (
{
closed = 1;
nodes = (
(255,-573,o),
(416,-441,o),
(416,-240,cs),
(416,1347,ls),
(416,1504,o),
(337,1572,o),
(221,1607,c),
(143,1467,l),
(210,1467,o),
(249,1417,o),
(249,1343,cs),
(249,-231,ls),
(249,-349,o),
(155,-423,o),
(17,-423,cs),
(-120,-423,o),
(-214,-349,o),
(-214,-231,cs),
(-214,-105,l),
(-381,-105,l),
(-381,-240,ls),
(-381,-441,o),
(-220,-573,o),
(17,-573,cs)
);
},
{
closed = 1;
nodes = (
(-416,1686,o),
(-348,1749,o),
(-232,1749,cs),
(-113,1749,o),
(-6,1682,o),
(49,1577,c),
(-416,1577,l)
);
},
{
closed = 1;
nodes = (
(231,1467,l),
(231,1956,l),
(79,1956,l),
(79,1740,l),
(70,1740,l),
(25,1795,o),
(-63,1881,o),
(-239,1881,cs),
(-434,1881,o),
(-584,1775,o),
(-584,1566,cs),
(-584,1467,l)
);
},
{
closed = 1;
nodes = (
(-60,1786,l),
(-60,1985,l),
(-212,1985,l),
(-212,1786,l)
);
}
);
width = 630;
},
{
layerId = "5C20EF92-B63D-42A8-8878-93C2863E0093";
shapes = (
{
closed = 1;
nodes = (
(351,-570,o),
(553,-423,o),
(553,-175,cs),
(553,1270,ls),
(553,1513,o),
(389,1636,o),
(236,1658,c),
(55,1396,l),
(119,1396,o),
(159,1347,o),
(159,1279,cs),
(159,-162,ls),
(159,-242,o),
(104,-288,o),
(9,-288,cs),
(-86,-288,o),
(-141,-242,o),
(-141,-162,cs),
(-141,-92,l),
(-536,-92,l),
(-536,-175,ls),
(-536,-423,o),
(-333,-570,o),
(9,-570,cs)
);
},
{
closed = 1;
nodes = (
(-273,1618,o),
(-231,1665,o),
(-150,1665,cs),
(-63,1665,o),
(11,1610,o),
(41,1547,c),
(-273,1547,l)
);
},
{
closed = 1;
nodes = (
(422,1395,l),
(422,1957,l),
(159,1957,l),
(159,1727,l),
(146,1727,l),
(65,1811,o),
(-70,1891,o),
(-266,1891,cs),
(-458,1891,o),
(-621,1768,o),
(-621,1496,cs),
(-621,1395,l)
);
},
{
closed = 1;
nodes = (
(50,1755,l),
(50,1985,l),
(-206,1985,l),
(-206,1755,l)
);
}
);
width = 694;
}
);
production = uni17BF;
script = khmer;
subCategory = Other;
unicode = 6079;
}
{
category = Letter;
glyphname = "ieSign-khmer";
layers = (
{
layerId = "B1F27B51-9973-4381-9301-4FE46FE1CA59";
shapes = (
{
closed = 1;
nodes = (
(192,-573,o),
(294,-476,o),
(294,-335,cs),
(294,1494,ls),
(294,1648,o),
(191,1770,o),
(15,1770,cs),
(-131,1770,o),
(-202,1682,o),
(-230,1630,c),
(-236,1630,l),
(-236,1909,l),
(-281,1909,l),
(-281,1467,l),
(-236,1467,l),
(-236,1475,ls),
(-236,1623,o),
(-134,1724,o),
(15,1724,cs),
(167,1724,o),
(247,1623,o),
(247,1494,cs),
(247,-335,ls),
(247,-449,o),
(164,-528,o),
(7,-528,cs),
(-152,-528,o),
(-233,-449,o),
(-233,-335,cs),
(-233,-105,l),
(-279,-105,l),
(-279,-335,ls),
(-279,-476,o),
(-179,-573,o),
(7,-573,cs)
);
}
);
width = 527;
},
{
hints = (
{
horizontal = 1;
origin = (0,25);
target = (0,34);
type = Stem;
},
{
horizontal = 1;
origin = (0,30);
target = down;
type = TopGhost;
},
{
horizontal = 1;
origin = (0,6);
target = (0,18);
type = Stem;
},
{
origin = (0,31);
target = (0,28);
type = Stem;
},
{
origin = (0,22);
target = (0,2);
type = Stem;
},
{
origin = (0,13);
target = (0,14);
type = Stem;
}
);
layerId = "C698F293-3EC0-4A5A-A3A0-0FDB1F5CF265";
shapes = (
{
closed = 1;
nodes = (
(255,-573,o),
(416,-441,o),
(416,-240,cs),
(416,1490,ls),
(416,1676,o),
(271,1803,o),
(69,1803,cs),
(-71,1803,o),
(-158,1741,o),
(-198,1672,c),
(-207,1672,l),
(-207,1956,l),
(-370,1956,l),
(-370,1467,l),
(-207,1467,l),
(-207,1473,ls),
(-207,1581,o),
(-107,1655,o),
(33,1655,cs),
(171,1655,o),
(249,1579,o),
(249,1467,cs),
(249,-231,ls),
(249,-349,o),
(155,-423,o),
(17,-423,cs),
(-120,-423,o),
(-214,-349,o),
(-214,-231,cs),
(-214,-105,l),
(-381,-105,l),
(-381,-240,ls),
(-381,-441,o),
(-220,-573,o),
(17,-573,cs)
);
}
);
width = 630;
},
{
layerId = "5C20EF92-B63D-42A8-8878-93C2863E0093";
shapes = (
{
closed = 1;
nodes = (
(351,-570,o),
(553,-423,o),
(553,-175,cs),
(553,1422,ls),
(553,1684,o),
(388,1811,o),
(175,1811,cs),
(-16,1811,o),
(-98,1716,o),
(-132,1641,c),
(-143,1641,l),
(-143,1956,l),
(-514,1956,l),
(-514,1397,l),
(-142,1397,l),
(-142,1405,ls),
(-142,1492,o),
(-78,1538,o),
(7,1538,cs),
(103,1538,o),
(159,1482,o),
(159,1405,cs),
(159,-162,ls),
(159,-242,o),
(104,-288,o),
(9,-288,cs),
(-86,-288,o),
(-141,-242,o),
(-141,-162,cs),
(-141,-92,l),
(-536,-92,l),
(-536,-175,ls),
(-536,-423,o),
(-333,-570,o),
(9,-570,cs)
);
}
);
width = 694;
}
);
production = uni17C0;
script = khmer;
subCategory = Other;
unicode = 6080;
}
{
category = Letter;
glyphname = "eSign-khmer";
kernRight = KH_E;
layers = (
{
anchors = (
{
name = top_part;
pos = (255,1234);
}
);
layerId = "B1F27B51-9973-4381-9301-4FE46FE1CA59";
shapes = (
{
closed = 1;
nodes = (
(297,0,ls),
(410,0,o),
(480,69,o),
(480,187,cs),
(480,304,o),
(410,374,o),
(297,374,cs),
(256,374,l),
(279,350,l),
(279,896,ls),
(279,917,o),
(271,925,o),
(254,932,cs),
(133,984,l),
(147,963,l),
(147,1048,ls),
(147,1150,o),
(199,1187,o),
(284,1187,cs),
(394,1187,l),
(394,1234,l),
(284,1234,ls),
(171,1234,o),
(103,1180,o),
(103,1048,cs),
(103,952,l),
(233,896,l),
(233,0,l)
);
},
{
closed = 1;
nodes = (
(278,41,l),
(278,333,l),
(300,333,ls),
(386,333,o),
(438,277,o),
(438,187,cs),
(438,98,o),
(384,41,o),
(297,41,cs)
);
}
);
width = 589;
},
{
anchors = (
{
name = top_part;
pos = (310,1234);
}
);
hints = (
{
horizontal = 1;
origin = (0,27);
target = (1,0);
type = Stem;
},
{
horizontal = 1;
origin = (0,21);
target = (0,18);
type = Stem;
},
{
origin = (0,27);
target = (0,8);
type = Stem;
},
{
origin = (1,5);
target = (0,3);
type = Stem;
},
{
origin = (0,25);
target = (0,14);
type = Stem;
}
);
layerId = "C698F293-3EC0-4A5A-A3A0-0FDB1F5CF265";
shapes = (
{
closed = 1;
nodes = (
(386,0,ls),
(515,0,o),
(591,78,o),
(591,210,cs),
(591,338,o),
(515,413,o),
(386,413,cs),
(357,413,l),
(384,379,l),
(384,821,ls),
(384,864,o),
(370,880,o),
(327,899,cs),
(218,947,l),
(240,887,l),
(240,966,ls),
(240,1042,o),
(275,1077,o),
(348,1077,cs),
(495,1077,l),
(495,1234,l),
(341,1234,ls),
(175,1234,o),
(96,1158,o),
(96,984,cs),
(96,863,l),
(217,807,l),
(217,0,l)
);
},
{
closed = 1;
nodes = (
(373,111,l),
(373,310,l),
(386,310,ls),
(438,310,o),
(473,269,o),
(473,210,cs),
(473,151,o),
(439,111,o),
(391,111,cs)
);
}
);
width = 659;
},
{
anchors = (
{
name = top_part;
pos = (385,1234);
}
);
layerId = "5C20EF92-B63D-42A8-8878-93C2863E0093";
shapes = (
{
closed = 1;
nodes = (
(445,0,ls),
(609,0,o),
(691,75,o),
(691,210,cs),
(691,346,o),
(612,414,o),
(484,414,cs),
(462,414,l),
(554,357,l),
(554,685,ls),
(554,750,o),
(522,771,o),
(467,789,cs),
(302,843,l),
(351,736,l),
(351,843,ls),
(351,878,o),
(371,895,o),
(414,895,cs),
(616,895,l),
(616,1234,l),
(395,1234,ls),
(131,1234,o),
(64,1094,o),
(64,899,cs),
(64,735,l),
(159,691,l),
(159,0,l)
);
},
{
closed = 1;
nodes = (
(438,138,l),
(438,282,l),
(449,282,ls),
(486,282,o),
(512,252,o),
(512,210,cs),
(512,167,o),
(487,138,o),
(451,138,cs)
);
}
);
width = 741;
}
);
production = uni17C1;
script = khmer;
subCategory = Other;
unicode = 6081;
}
{
category = Letter;
glyphname = "aeSign-khmer";
kernRight = KH_E;
layers = (
{
anchors = (
{
name = _top_part;
pos = (255,1234);
}
);
layerId = "B1F27B51-9973-4381-9301-4FE46FE1CA59";
shapes = (
{
closed = 1;
nodes = (
(399,1366,o),
(516,1485,o),
(516,1676,cs),
(516,1828,l),
(471,1828,l),
(471,1676,ls),
(471,1510,o),
(375,1412,o),
(232,1412,cs),
(120,1412,o),
(47,1476,o),
(47,1572,cs),
(47,1663,o),
(110,1724,o),
(206,1724,cs),
(232,1724,l),
(232,1770,l),
(206,1770,ls),
(86,1770,o),
(2,1690,o),
(2,1572,cs),
(2,1450,o),
(95,1366,o),
(232,1366,cs)
);
},
{
ref = "eSign-khmer";
}
);
width = 589;
},
{
anchors = (
{
name = _top_part;
pos = (310,1234);
}
);
hints = (
{
horizontal = 1;
origin = (0,8);
target = (0,23);
type = Stem;
},
{
horizontal = 1;
origin = (0,14);
target = (0,17);
type = Stem;
},
{
origin = (0,20);
target = (0,11);
type = Stem;
},
{
origin = (0,5);
target = (0,2);
type = Stem;
},
{
origin = (0,20);
target = (0,15);
type = Stem;
}
);
layerId = "C698F293-3EC0-4A5A-A3A0-0FDB1F5CF265";
shapes = (
{
closed = 1;
nodes = (
(477,1355,o),
(602,1475,o),
(602,1644,cs),
(602,1886,l),
(450,1886,l),
(450,1652,ls),
(450,1558,o),
(386,1490,o),
(287,1490,cs),
(210,1490,o),
(157,1530,o),
(157,1592,cs),
(157,1644,o),
(193,1682,o),
(245,1682,cs),
(265,1682,l),
(265,1818,l),
(245,1818,ls),
(94,1818,o),
(4,1729,o),
(4,1596,cs),
(4,1446,o),
(119,1355,o),
(285,1355,cs)
);
},
{
ref = "eSign-khmer";
}
);
width = 659;
},
{
anchors = (
{
name = _top_part;
pos = (385,1234);
}
);
layerId = "5C20EF92-B63D-42A8-8878-93C2863E0093";
shapes = (
{
closed = 1;
nodes = (
(579,1321,o),
(732,1428,o),
(732,1663,cs),
(732,1909,l),
(406,1909,l),
(406,1674,ls),
(406,1575,o),
(374,1537,o),
(323,1537,cs),
(291,1537,o),
(271,1556,o),
(271,1586,cs),
(271,1613,o),
(288,1634,o),
(314,1634,cs),
(317,1634,l),
(317,1826,l),
(264,1826,ls),
(94,1826,o),
(-11,1742,o),
(-11,1582,cs),
(-11,1417,o),
(113,1321,o),
(321,1321,cs)
);
},
{
ref = "eSign-khmer";
}
);
width = 741;
}
);
production = uni17C2;
script = khmer;
subCategory = Other;
unicode = 6082;
}
